<?xml version="1.0" standalone="no"?>
<!DOCTYPE svg PUBLIC "-//W3C//DTD SVG 1.1//EN" "http://www.w3.org/Graphics/SVG/1.1/DTD/svg11.dtd" >
<svg xmlns="http://www.w3.org/2000/svg">
<metadata></metadata>
<defs>
<font id="social_shapesregular" horiz-adv-x="1508" >
<font-face units-per-em="2048" ascent="1638" descent="-410" />
<missing-glyph horiz-adv-x="508" />
<glyph unicode="&#xd;" horiz-adv-x="508" />
<glyph unicode=" "  horiz-adv-x="508" />
<glyph unicode="&#x09;" horiz-adv-x="508" />
<glyph unicode="&#xa0;" horiz-adv-x="508" />
<glyph unicode="!" d="M50 700v8q0 214 126 400q27 38 66 80q49 50 70 65q50 39 85 59q167 96 353 96h8q214 0 400 -126q38 -27 80 -66q50 -49 65 -70q39 -50 59 -85q96 -167 96 -353v-8q0 -214 -126 -400q-27 -38 -66 -80q-49 -50 -70 -65q-50 -39 -85 -59q-167 -96 -353 -96h-8 q-214 0 -400 126q-38 27 -80 66q-50 49 -65 70q-39 50 -59 85q-96 167 -96 353zM505 648h149v-442h178v442h149q1 7 22 172h-1h-170v97q0 40 4 50q0 4 7 17q10 17 32 24q15 6 55 6h79v1v153q-62 7 -129 7h-5q-51 0 -93 -16q-64 -26 -96 -81t-32 -127v-131h-149v-172z" />
<glyph unicode="&#x22;" d="M50 703v2q0 200 108 375q126 197 349 283q119 45 246 45h2q200 0 375 -108q197 -126 283 -349q45 -119 45 -246v-2q0 -200 -108 -375q-126 -197 -349 -283q-119 -45 -246 -45h-2q-200 0 -375 108q-197 126 -283 349q-45 119 -45 246zM336 375q53 -35 116 -56 q87 -30 177 -30q145 0 268 67q39 22 85 61q44 40 60 61q38 47 64 96q18 33 34 77q31 92 31 173v28v5q16 10 53 46q27 29 42 52h-1q-36 -15 -75 -24q-29 -5 -32 -5v1q12 5 40 31q32 38 42 73q-37 -22 -78 -35q-36 -11 -43 -11q-27 26 -41 32q-46 28 -97 28h-1q-76 0 -134 -55 q-57 -58 -57 -134v-4q0 -17 5 -41h-1q-21 0 -82 10q-52 12 -92 28q-43 17 -92 48q-37 23 -83 66q-24 24 -44 47q-25 -47 -25 -92v-8q0 -62 45 -119q23 -26 38 -34v-1q-39 0 -85 23v-5q0 -75 58 -134q36 -33 67 -42q21 -8 26 -8q0 -2 -21 -5q-13 -2 -20 -2h-4h-3h-3h-1 q-14 0 -32 3q23 -66 78 -101q49 -31 99 -31q-28 -23 -54 -36q-88 -45 -175 -45h-13q-19 0 -39 2z" />
<glyph unicode="#" d="M50 702v4q0 218 130 406q25 35 55 68q46 48 65 62q69 56 112 77q160 89 340 89h4q218 0 406 -130q35 -25 68 -55q48 -46 62 -65q56 -69 77 -112q89 -160 89 -340v-4q0 -218 -130 -406q-25 -35 -55 -68q-46 -48 -65 -62q-69 -56 -112 -77q-160 -89 -340 -89h-4 q-218 0 -406 130q-35 25 -68 55q-48 46 -62 65q-56 69 -77 112q-89 160 -89 340zM282 693q0 -47 18 -97q38 -99 126 -156q75 -45 162 -45h4q68 0 131 28q20 10 49 30q111 86 111 250v4q0 16 -2 37v1h-92h-200v-1v-103q9 -1 174 -2q0 -7 -10 -31q-4 -13 -17 -32 q-8 -9 -29 -29q-54 -39 -118 -39q-70 0 -119 42q-9 6 -25 23q-45 54 -45 128q0 54 25 99q8 15 28 37q14 13 21 18q47 38 111 38q66 0 129 -42h1q2 1 10 9q50 49 67 71v1q-97 75 -191 75h-11h-2h-2h-4q-93 0 -173 -58q-84 -61 -113 -157q-7 -18 -11 -42q-3 -30 -3 -52v-5z M983 658q10 0 88 -1v-80v-8h1h85q1 29 1 88q18 0 88 1v86v1h-88l-1 88h-85h-1v-88h-88v-1v-86z" />
<glyph unicode="$" d="M50 702v4q0 218 130 406q25 35 55 68q46 48 65 62q69 56 112 77q160 89 340 89h4q218 0 406 -130q35 -25 68 -55q48 -46 62 -65q56 -69 77 -112q89 -160 89 -340v-4q0 -218 -130 -406q-25 -35 -55 -68q-46 -48 -65 -62q-69 -56 -112 -77q-160 -89 -340 -89h-4 q-218 0 -406 130q-35 25 -68 55q-48 46 -62 65q-56 69 -77 112q-89 160 -89 340zM368 471q0 -53 17 -81q5 -14 28 -38q44 -41 104 -41h467q62 0 107 44q42 42 42 111v454q0 57 -27 94q-23 30 -48 42q-33 20 -72 20h-471q-67 0 -114 -55q-21 -24 -30 -63q-3 -13 -3 -44v-443z M442 458v313l1 1h112q1 0 1 -1q-15 -38 -15 -78q0 -89 70 -156q64 -53 135 -53h9q70 0 132 51q24 22 33 36q40 57 40 119v6q0 36 -15 76h113q1 0 1 -1v-315q0 -35 -35 -60q-16 -11 -48 -11h-450q-35 0 -51 13q-3 0 -18 16q-15 20 -15 44zM616 693q0 52 38 94q42 41 93 41h7 q54 0 98 -46q33 -39 33 -91q0 -48 -36 -90q-42 -42 -99 -42q-59 0 -102 47q-32 40 -32 87zM915 857v1v129h1q24 0 128 1l1 -1v-128q0 -1 -1 -1h-16q-36 0 -113 -1z" />
<glyph unicode="%" d="M50 702v4q0 218 130 406q25 35 55 68q46 48 65 62q69 56 112 77q160 89 340 89h4q218 0 406 -130q35 -25 68 -55q48 -46 62 -65q56 -69 77 -112q89 -160 89 -340v-4q0 -218 -130 -406q-25 -35 -55 -68q-46 -48 -65 -62q-69 -56 -112 -77q-160 -89 -340 -89h-4 q-218 0 -406 130q-35 25 -68 55q-48 46 -62 65q-56 69 -77 112q-89 160 -89 340zM406 807q0 -89 41 -147q11 -17 33 -35q30 -19 40 -19h3q4 0 9 2q6 5 7 16q12 43 12 49q0 5 -6 12q-38 43 -38 107q0 89 54 157q14 20 37 39q71 55 164 55q94 0 154 -49q65 -58 65 -151 t-33 -170q-11 -23 -22 -39q-47 -68 -110 -68q-30 0 -54 18q-31 24 -31 60v4q0 17 17 71q32 97 32 132q0 24 -9 43q-20 35 -61 35q-39 0 -67 -34q-34 -42 -34 -99q0 -46 17 -83l-63 -266q-13 -52 -13 -109v-10q0 -44 6 -94q0 -9 6 -10h1h4q2 4 16 22q31 42 49 75q14 29 29 65 q13 47 38 154q5 -7 14 -18q15 -13 24 -19q44 -28 89 -28q3 1 4 1h1q45 0 89 17q76 30 126 106q63 101 63 234q0 50 -18 101q-39 94 -127 148q-82 50 -186 50q-135 0 -234 -70q-17 -10 -46 -37q-26 -29 -36 -46q-56 -84 -56 -172z" />
<glyph unicode="&#x26;" d="M50 702v4q0 218 130 406q25 35 55 68q46 48 65 62q69 56 112 77q160 89 340 89h4q218 0 406 -130q35 -25 68 -55q48 -46 62 -65q56 -69 77 -112q89 -160 89 -340v-4q0 -218 -130 -406q-25 -35 -55 -68q-46 -48 -65 -62q-69 -56 -112 -77q-160 -89 -340 -89h-4 q-218 0 -406 130q-35 25 -68 55q-48 46 -62 65q-56 69 -77 112q-89 160 -89 340zM251 713q0 -87 55 -158q26 -31 44 -43q58 -40 123 -40h1q86 0 152 66q37 39 51 78q19 47 19 98q0 96 -65 170q-25 26 -41 36q-55 35 -117 35q-84 0 -151 -65q-71 -75 -71 -177zM808 717 q0 -98 70 -173q32 -29 54 -40q51 -25 100 -25h9q69 0 133 47q30 25 45 46q46 68 46 139v11q0 75 -50 144q-43 57 -116 80q-33 9 -62 9q-92 0 -163 -71q-66 -73 -66 -167z" />
<glyph unicode="'" d="M50 702v4q0 218 130 406q25 35 55 68q46 48 65 62q69 56 112 77q160 89 340 89h4q218 0 406 -130q35 -25 68 -55q48 -46 62 -65q56 -69 77 -112q89 -160 89 -340v-4q0 -218 -130 -406q-25 -35 -55 -68q-46 -48 -65 -62q-69 -56 -112 -77q-160 -89 -340 -89h-4 q-218 0 -406 130q-35 25 -68 55q-48 46 -62 65q-56 69 -77 112q-89 160 -89 340zM359 1018q0 -44 35 -75q28 -23 64 -23q46 0 77 38q20 27 20 61q0 49 -44 81q-26 16 -54 16q-44 0 -75 -35q-23 -28 -23 -63zM373 301h169v544h-169v-544zM648 301h169v253q0 72 11 97 q21 59 88 59h1h1h3h2q51 0 72 -47q8 -24 8 -35q3 -13 3 -81v-246h170v304q0 138 -49 196q-47 59 -156 59q-68 0 -121 -43q-20 -18 -26 -27q-7 -11 -12 -19h-1q-1 0 -1 1v73h-162v-544z" />
<glyph unicode="(" d="M50 702v4q0 218 130 406q25 35 55 68q46 48 65 62q69 56 112 77q160 89 340 89h4q218 0 406 -130q35 -25 68 -55q48 -46 62 -65q56 -69 77 -112q89 -160 89 -340v-4q0 -218 -130 -406q-25 -35 -55 -68q-46 -48 -65 -62q-69 -56 -112 -77q-160 -89 -340 -89h-4 q-218 0 -406 130q-35 25 -68 55q-48 46 -62 65q-56 69 -77 112q-89 160 -89 340zM455 790q0 -1 1 -1h96v-313q0 -45 17 -90q31 -82 103 -125q68 -42 160 -42h3q63 0 128 27q18 7 32 17q4 3 12 12q-5 15 -46 137l-11 -4q-40 -13 -67 -13h-5q-40 0 -63 24q-24 26 -24 72v298 h192v1v145h-192v244v1h-140q-4 0 -7 -6q-2 -27 -7 -45q-6 -24 -13 -47q-13 -32 -31 -59q-6 -14 -20 -28q-3 -5 -21 -24q-21 -17 -36 -27q-26 -17 -51 -27l-10 -3v-124z" />
<glyph unicode=")" d="M50 702v4q0 218 130 406q25 35 55 68q46 48 65 62q69 56 112 77q160 89 340 89h4q218 0 406 -130q35 -25 68 -55q48 -46 62 -65q56 -69 77 -112q89 -160 89 -340v-4q0 -218 -130 -406q-25 -35 -55 -68q-46 -48 -65 -62q-69 -56 -112 -77q-160 -89 -340 -89h-4 q-218 0 -406 130q-35 25 -68 55q-48 46 -62 65q-56 69 -77 112q-89 160 -89 340zM241 887q0 -5 2 -13q39 -88 83 -168q36 -66 77 -125q24 -37 60 -79q20 -23 45 -45q22 -18 40 -30q30 -20 61 -32q62 -24 112 -24h63q5 0 16 5q12 4 16 13q3 4 4 16q0 38 10 65q4 10 8 17 q12 14 24 14h2q19 0 53 -39q25 -29 43 -48q18 -17 26 -22q32 -23 60 -23h1q5 0 9 1l129 1q4 0 14 2q33 8 33 30v2q0 6 -3 14q-6 12 -15 26q-11 16 -43 53q-12 12 -34 35q-32 28 -38 35q-30 28 -30 45v2q0 15 18 40q0 1 62 81q83 110 83 148q0 8 -3 12q-8 12 -36 12h-3h-11 l-148 -1h-8q-4 0 -7 -2q-11 -1 -18 -15q-10 -23 -18 -44q-19 -41 -34 -66q-70 -121 -101 -121q-5 0 -8 2q-18 12 -18 61v58q2 67 3 83q0 31 -6 42q-5 12 -19 19q-10 3 -13 3q-20 7 -81 7h-12q-67 0 -92 -10q-6 -2 -17 -10q-12 -12 -12 -17v-2l1 -1q11 -2 17 -5q22 -7 30 -21 q4 -8 7 -19q3 -9 5 -25q2 -37 2 -57v-3v-2v-1v-4q0 -51 -10 -77q-6 -23 -22 -23q-26 0 -82 91q-40 66 -66 132q-7 18 -19 24q-13 4 -18 5q-22 -1 -141 -1q-9 0 -20 -4q-13 -3 -13 -17z" />
<glyph unicode="*" d="M50 702v4q0 218 130 406q25 35 55 68q46 48 65 62q69 56 112 77q160 89 340 89h4q218 0 406 -130q35 -25 68 -55q48 -46 62 -65q56 -69 77 -112q89 -160 89 -340v-4q0 -218 -130 -406q-25 -35 -55 -68q-46 -48 -65 -62q-69 -56 -112 -77q-160 -89 -340 -89h-4 q-218 0 -406 130q-35 25 -68 55q-48 46 -62 65q-56 69 -77 112q-89 160 -89 340zM280 654q0 -56 7 -133q2 -24 8 -42q7 -31 15 -47q16 -30 48 -48q11 -5 26 -10q13 -2 37 -6q16 -3 89 -6q172 -5 251 -5q71 0 184 3q147 5 168 9q23 4 39 13q10 4 20 12q11 9 20 20 q12 15 20 36q7 19 12 47q10 87 10 157v77q0 68 -9 154q-6 31 -12 44q-9 30 -25 48q-14 14 -19 15q-11 9 -24 15q-10 5 -27 8q-19 4 -66 7q-145 6 -295 6q-76 0 -174 -3q-93 -2 -147 -6q-31 -2 -42 -5q-29 -5 -51 -22q-13 -10 -23 -22q-8 -11 -17 -35q-7 -19 -14 -50 q-9 -86 -9 -154v-77zM658 569v268q5 -2 211 -110q46 -24 47 -25l-43 -21q-2 -2 -215 -112z" />
<glyph unicode="+" d="M50 702v4q0 218 130 406q25 35 55 68q46 48 65 62q69 56 112 77q160 89 340 89h4q218 0 406 -130q35 -25 68 -55q48 -46 62 -65q56 -69 77 -112q89 -160 89 -340v-4q0 -218 -130 -406q-25 -35 -55 -68q-46 -48 -65 -62q-69 -56 -112 -77q-160 -89 -340 -89h-4 q-218 0 -406 130q-35 25 -68 55q-48 46 -62 65q-56 69 -77 112q-89 160 -89 340zM313 469q0 -15 36 -31q28 -9 77 -17q10 0 15 -31q3 -28 18 -28q49 8 68 8q15 0 23 -2q35 0 90 -41q55 -42 113 -42h9q38 0 70 16q24 11 66 42q34 27 88 27h2q9 0 17 -1l51 -7q8 0 13 8 q11 50 16 50q117 18 117 50q0 9 -11 12q-46 6 -94 41q-24 17 -52 51q-46 63 -46 91q0 26 37 41q74 22 74 47q0 2 -2 8q-13 20 -36 20q-6 0 -10 -1q-30 -13 -47 -13q-11 0 -23 6q5 82 5 111q0 38 -5 64q-2 27 -30 70q-13 22 -48 52q-68 50 -144 50h-23q-41 0 -83 -15 q-81 -31 -118 -99q-28 -39 -28 -116v-10q0 -32 5 -107q-11 -6 -25 -6q-13 0 -27 4q-23 10 -30 10h-4q-32 -8 -32 -27q0 -21 44 -39q67 -16 67 -50q0 -18 -21 -53q-14 -28 -52 -68q-31 -29 -57 -42q-44 -20 -54 -20q-19 0 -19 -12v-1z" />
<glyph unicode="," d="M50 704q54 94 149 149q-55 97 -55 203q97 55 203 55v4q0 101 55 199q106 0 203 -55q54 94 148 149h1q14 -6 48 -32q18 -13 50 -46q24 -28 37 -47l14 -23h1q97 54 202 54q55 -97 55 -203h4q99 0 196 -53q3 -2 3 -3q0 -104 -54 -202v-1q92 -53 148 -147v-1q-6 -14 -32 -48 q-13 -18 -46 -50q-28 -24 -47 -37l-23 -14v-1q54 -96 54 -202q-98 -55 -203 -55v-4q0 -99 -53 -196q-2 -3 -3 -3q-104 0 -202 54h-1q-53 -92 -147 -148h-1q-14 7 -46 31q-17 12 -52 48q-21 24 -26 32q-8 10 -25 37h-1q-96 -54 -202 -54q-55 97 -55 203h-6q-89 0 -181 46 l-16 9q0 106 55 203q-30 17 -64 45q-31 29 -40 41q-28 33 -42 57q-3 5 -3 6zM547 661h124v-368h1h147h1v368h123q1 6 19 143v1h-142v80q0 33 3 41q0 4 6 15q8 14 27 20q11 5 45 5h66v128q-51 6 -108 6h-4q-42 0 -77 -14q-54 -21 -80 -66q-27 -47 -27 -107v-108h-124v-1v-143 z" />
<glyph unicode="-" d="M50 704q54 94 149 149q-55 97 -55 203q97 55 203 55v4q0 101 55 199q106 0 203 -55q54 94 148 149h1q14 -6 48 -32q18 -13 50 -46q24 -28 37 -47l14 -23h1q97 54 202 54q55 -97 55 -203h4q99 0 196 -53q3 -2 3 -3q0 -104 -54 -202v-1q92 -53 148 -147v-1q-6 -14 -32 -48 q-13 -18 -46 -50q-28 -24 -47 -37l-23 -14v-1q54 -96 54 -202q-98 -55 -203 -55v-4q0 -99 -53 -196q-2 -3 -3 -3q-104 0 -202 54h-1q-53 -92 -147 -148h-1q-14 7 -46 31q-17 12 -52 48q-21 24 -26 32q-8 10 -25 37h-1q-96 -54 -202 -54q-55 97 -55 203h-6q-89 0 -181 46 l-16 9q0 106 55 203q-30 17 -64 45q-31 29 -40 41q-28 33 -42 57q-3 5 -3 6zM386 415q47 -31 102 -49q77 -27 157 -27q128 0 237 59q34 20 75 54q39 35 53 54q33 42 56 85q16 29 30 68q28 81 28 153v24v5q14 9 47 41q23 25 37 45h-1q-32 -13 -66 -21q-26 -4 -29 -4v1 q11 4 36 27q28 34 37 65q-33 -20 -69 -31q-32 -10 -38 -10q-24 23 -36 28q-41 25 -86 25h-1q-67 0 -118 -49q-51 -51 -51 -118v-4q0 -15 5 -36h-1q-19 0 -73 9q-46 11 -81 25q-38 15 -81 42q-33 21 -74 59q-21 21 -38 41q-23 -41 -23 -81v-7q0 -55 40 -105q21 -23 34 -30v-1 q-35 0 -75 20v-4q0 -67 51 -119q32 -29 59 -37q19 -7 23 -7q0 -2 -18 -4q-12 -2 -18 -2h-4h-2h-3h-1q-12 0 -28 2q20 -58 69 -89q43 -27 87 -27q-24 -21 -47 -32q-78 -40 -155 -40h-12q-16 0 -34 2z" />
<glyph unicode="." d="M50 704q54 94 149 149q-55 97 -55 203q97 55 203 55v4q0 101 55 199q106 0 203 -55q54 94 148 149h1q14 -6 48 -32q18 -13 50 -46q24 -28 37 -47l14 -23h1q97 54 202 54q55 -97 55 -203h4q99 0 196 -53q3 -2 3 -3q0 -104 -54 -202v-1q92 -53 148 -147v-1q-6 -14 -32 -48 q-13 -18 -46 -50q-28 -24 -47 -37l-23 -14v-1q54 -96 54 -202q-98 -55 -203 -55v-4q0 -99 -53 -196q-2 -3 -3 -3q-104 0 -202 54h-1q-53 -92 -147 -148h-1q-14 7 -46 31q-17 12 -52 48q-21 24 -26 32q-8 10 -25 37h-1q-96 -54 -202 -54q-55 97 -55 203h-6q-89 0 -181 46 l-16 9q0 106 55 203q-30 17 -64 45q-31 29 -40 41q-28 33 -42 57q-3 5 -3 6zM308 691q0 -47 18 -95q37 -98 124 -154q74 -45 159 -45h5q66 0 128 28q20 9 49 29q109 85 109 246v5q0 15 -2 36v1h-90h-198v-1v-102q10 -1 172 -2q0 -6 -9 -30q-5 -13 -18 -31q-7 -10 -28 -29 q-53 -39 -117 -39q-68 0 -117 42q-8 6 -24 23q-45 53 -45 125q0 53 25 98q8 15 27 36q14 13 21 18q47 38 109 38q66 0 128 -42h1q1 1 10 9q48 48 66 70v1q-96 74 -189 74h-10h-3h-2h-4q-91 0 -170 -57q-82 -61 -112 -155q-6 -18 -10 -41q-3 -30 -3 -52v-4zM999 656 q10 0 86 -1v-78v-8h1h85q1 28 1 86q17 0 86 1v85v1h-86l-1 86h-85h-1v-86h-86v-1v-85z" />
<glyph unicode="/" d="M50 704q54 94 149 149q-55 97 -55 203q97 55 203 55v4q0 101 55 199q106 0 203 -55q54 94 148 149h1q14 -6 48 -32q18 -13 50 -46q24 -28 37 -47l14 -23h1q97 54 202 54q55 -97 55 -203h4q99 0 196 -53q3 -2 3 -3q0 -104 -54 -202v-1q92 -53 148 -147v-1q-6 -14 -32 -48 q-13 -18 -46 -50q-28 -24 -47 -37l-23 -14v-1q54 -96 54 -202q-98 -55 -203 -55v-4q0 -99 -53 -196q-2 -3 -3 -3q-104 0 -202 54h-1q-53 -92 -147 -148h-1q-14 7 -46 31q-17 12 -52 48q-21 24 -26 32q-8 10 -25 37h-1q-96 -54 -202 -54q-55 97 -55 203h-6q-89 0 -181 46 l-16 9q0 106 55 203q-30 17 -64 45q-31 29 -40 41q-28 33 -42 57q-3 5 -3 6zM414 484q0 -47 15 -72q5 -13 25 -34q40 -37 94 -37h418q56 0 96 39q38 38 38 100v407q0 51 -24 84q-21 27 -43 38q-30 18 -65 18h-422q-60 0 -102 -49q-19 -22 -27 -57q-3 -11 -3 -39v-398z M480 473v280l1 1h101q1 0 1 -1q-14 -34 -14 -69q0 -80 63 -140q57 -48 121 -48h8q63 0 118 46q22 20 30 32q36 51 36 107v5q0 33 -14 68h102q1 0 1 -1v-282q0 -31 -32 -54q-14 -10 -43 -10h-403q-32 0 -46 12q-3 0 -16 14q-14 18 -14 40zM636 684q0 46 34 84q38 37 84 37h6 q49 0 88 -42q30 -35 30 -81q0 -43 -33 -81q-37 -38 -88 -38q-53 0 -92 43q-29 35 -29 78zM905 831v1v115q22 0 115 1l1 -1v-115h-1h-14q-32 0 -101 -1z" />
<glyph unicode="0" d="M50 704q54 94 149 149q-55 97 -55 203q97 55 203 55v4q0 101 55 199q106 0 203 -55q54 94 148 149h1q14 -6 48 -32q18 -13 50 -46q24 -28 37 -47l14 -23h1q97 54 202 54q55 -97 55 -203h4q99 0 196 -53q3 -2 3 -3q0 -104 -54 -202v-1q92 -53 148 -147v-1q-6 -14 -32 -48 q-13 -18 -46 -50q-28 -24 -47 -37l-23 -14v-1q54 -96 54 -202q-98 -55 -203 -55v-4q0 -99 -53 -196q-2 -3 -3 -3q-104 0 -202 54h-1q-53 -92 -147 -148h-1q-14 7 -46 31q-17 12 -52 48q-21 24 -26 32q-8 10 -25 37h-1q-96 -54 -202 -54q-55 97 -55 203h-6q-89 0 -181 46 l-16 9q0 106 55 203q-30 17 -64 45q-31 29 -40 41q-28 33 -42 57q-3 5 -3 6zM479 777q0 -75 35 -124q8 -14 28 -29q25 -17 33 -17h2q4 0 8 3q5 3 6 12q11 37 11 43q0 3 -5 10q-32 36 -32 89q0 76 44 133q13 17 32 33q60 46 138 46q81 0 131 -40q55 -49 55 -128 q0 -78 -28 -143q-9 -20 -18 -34q-40 -57 -94 -57q-25 0 -46 15q-25 21 -25 51v3q0 14 14 60q27 82 27 111q0 21 -8 37q-17 30 -51 30q-33 0 -58 -29q-28 -35 -28 -84q0 -38 14 -70l-52 -224q-12 -45 -12 -93v-8q0 -37 6 -80q0 -7 5 -8h1h2q3 3 15 18q25 36 40 64 q13 24 25 55q11 39 33 130q4 -6 11 -15q13 -12 21 -17q37 -23 75 -23q2 1 3 1h1q37 0 76 14q63 26 106 90q52 84 52 197q0 43 -15 85q-32 80 -106 126q-71 42 -158 42q-115 0 -198 -59q-14 -9 -38 -32q-22 -24 -31 -38q-47 -71 -47 -146z" />
<glyph unicode="1" d="M50 704q54 94 149 149q-55 97 -55 203q97 55 203 55v4q0 101 55 199q106 0 203 -55q54 94 148 149h1q14 -6 48 -32q18 -13 50 -46q24 -28 37 -47l14 -23h1q97 54 202 54q55 -97 55 -203h4q99 0 196 -53q3 -2 3 -3q0 -104 -54 -202v-1q92 -53 148 -147v-1q-6 -14 -32 -48 q-13 -18 -46 -50q-28 -24 -47 -37l-23 -14v-1q54 -96 54 -202q-98 -55 -203 -55v-4q0 -99 -53 -196q-2 -3 -3 -3q-104 0 -202 54h-1q-53 -92 -147 -148h-1q-14 7 -46 31q-17 12 -52 48q-21 24 -26 32q-8 10 -25 37h-1q-96 -54 -202 -54q-55 97 -55 203h-6q-89 0 -181 46 l-16 9q0 106 55 203q-30 17 -64 45q-31 29 -40 41q-28 33 -42 57q-3 5 -3 6zM341 694q0 -73 46 -132q21 -26 36 -36q49 -33 103 -33h1q71 0 126 55q31 32 43 65q15 39 15 81q0 80 -54 142q-21 22 -34 30q-46 29 -97 29q-70 0 -126 -54q-59 -63 -59 -147zM805 697 q0 -82 58 -144q26 -24 45 -33q42 -21 83 -21h8q57 0 110 39q25 21 38 38q38 57 38 116v9q0 62 -42 120q-35 47 -96 67q-28 7 -52 7q-76 0 -135 -59q-55 -61 -55 -139z" />
<glyph unicode="2" d="M50 704q54 94 149 149q-55 97 -55 203q97 55 203 55v4q0 101 55 199q106 0 203 -55q54 94 148 149h1q14 -6 48 -32q18 -13 50 -46q24 -28 37 -47l14 -23h1q97 54 202 54q55 -97 55 -203h4q99 0 196 -53q3 -2 3 -3q0 -104 -54 -202v-1q92 -53 148 -147v-1q-6 -14 -32 -48 q-13 -18 -46 -50q-28 -24 -47 -37l-23 -14v-1q54 -96 54 -202q-98 -55 -203 -55v-4q0 -99 -53 -196q-2 -3 -3 -3q-104 0 -202 54h-1q-53 -92 -147 -148h-1q-14 7 -46 31q-17 12 -52 48q-21 24 -26 32q-8 10 -25 37h-1q-96 -54 -202 -54q-55 97 -55 203h-6q-89 0 -181 46 l-16 9q0 106 55 203q-30 17 -64 45q-31 29 -40 41q-28 33 -42 57q-3 5 -3 6zM423 960q0 -36 28 -62q24 -19 53 -19q37 0 63 31q17 22 17 50q0 40 -36 67q-22 13 -45 13q-36 0 -61 -29q-19 -23 -19 -51zM434 372h139v446h-139v-446zM660 372h138v207q0 59 8 80q18 48 73 48h1 h1h2h2q41 0 58 -38q8 -21 8 -29q2 -11 2 -66v-202h139v249q0 113 -40 160q-39 48 -128 48q-55 0 -99 -34q-16 -15 -21 -23q-6 -8 -10 -15h-1v1v60h-133v-446z" />
<glyph unicode="3" d="M50 704q54 94 149 149q-55 97 -55 203q97 55 203 55v4q0 101 55 199q106 0 203 -55q54 94 148 149h1q14 -6 48 -32q18 -13 50 -46q24 -28 37 -47l14 -23h1q97 54 202 54q55 -97 55 -203h4q99 0 196 -53q3 -2 3 -3q0 -104 -54 -202v-1q92 -53 148 -147v-1q-6 -14 -32 -48 q-13 -18 -46 -50q-28 -24 -47 -37l-23 -14v-1q54 -96 54 -202q-98 -55 -203 -55v-4q0 -99 -53 -196q-2 -3 -3 -3q-104 0 -202 54h-1q-53 -92 -147 -148h-1q-14 7 -46 31q-17 12 -52 48q-21 24 -26 32q-8 10 -25 37h-1q-96 -54 -202 -54q-55 97 -55 203h-6q-89 0 -181 46 l-16 9q0 106 55 203q-30 17 -64 45q-31 29 -40 41q-28 33 -42 57q-3 5 -3 6zM517 773q0 -1 1 -1h81v-264q0 -38 14 -76q27 -70 88 -107q58 -35 135 -35h2q54 0 109 23q15 6 27 14q3 3 10 11q-4 12 -39 116l-10 -4q-33 -11 -56 -11h-4q-34 0 -54 20q-20 22 -20 61v252h163v1 v123h-163v206v1h-119q-2 0 -5 -5q-2 -22 -6 -38q-5 -21 -11 -40q-11 -27 -26 -50q-6 -11 -17 -24q-3 -4 -18 -20q-17 -14 -31 -23q-22 -14 -42 -22l-9 -3v-105z" />
<glyph unicode="4" d="M50 704q54 94 149 149q-55 97 -55 203q97 55 203 55v4q0 101 55 199q106 0 203 -55q54 94 148 149h1q14 -6 48 -32q18 -13 50 -46q24 -28 37 -47l14 -23h1q97 54 202 54q55 -97 55 -203h4q99 0 196 -53q3 -2 3 -3q0 -104 -54 -202v-1q92 -53 148 -147v-1q-6 -14 -32 -48 q-13 -18 -46 -50q-28 -24 -47 -37l-23 -14v-1q54 -96 54 -202q-98 -55 -203 -55v-4q0 -99 -53 -196q-2 -3 -3 -3q-104 0 -202 54h-1q-53 -92 -147 -148h-1q-14 7 -46 31q-17 12 -52 48q-21 24 -26 32q-8 10 -25 37h-1q-96 -54 -202 -54q-55 97 -55 203h-6q-89 0 -181 46 l-16 9q0 106 55 203q-30 17 -64 45q-31 29 -40 41q-28 33 -42 57q-3 5 -3 6zM343 860q0 -5 2 -11q32 -72 67 -138q30 -54 64 -102q19 -30 49 -65q16 -19 36 -37q18 -15 33 -24q25 -17 51 -27q50 -19 92 -19h51q4 0 13 4q10 3 13 11q3 3 4 13q0 31 8 53q2 8 6 14q9 11 20 11 h2q15 0 43 -31q21 -25 36 -41q14 -14 20 -17q28 -19 50 -19h1q4 0 6 1l107 1q3 0 11 1q27 7 27 25v2q0 5 -3 10q-4 10 -12 23t-35 42q-10 11 -28 29q-25 24 -31 29q-24 23 -24 37v2q0 12 15 32q0 1 50 67q68 90 68 122q0 5 -3 9q-5 10 -29 10h-2h-10h-121h-6q-3 0 -6 -2 q-9 -2 -14 -12q-9 -20 -15 -37q-16 -33 -28 -55q-58 -99 -83 -99q-4 0 -6 2q-15 10 -15 49v1v47q1 56 2 69q0 25 -5 35q-4 9 -15 15q-9 2 -11 2q-17 6 -66 6h-10q-55 0 -76 -8q-5 -2 -14 -9q-9 -9 -9 -14v-1v-1q9 -2 14 -3q18 -7 25 -18q4 -7 6 -15t3 -21q2 -30 2 -46v-3v-2 v-1v-4q0 -41 -7 -62q-5 -19 -19 -19q-21 0 -67 75q-33 54 -54 107q-6 15 -16 20q-10 4 -14 4h-116q-7 0 -16 -3q-11 -3 -11 -14z" />
<glyph unicode="5" d="M50 704q54 94 149 149q-55 97 -55 203q97 55 203 55v4q0 101 55 199q106 0 203 -55q54 94 148 149h1q14 -6 48 -32q18 -13 50 -46q24 -28 37 -47l14 -23h1q97 54 202 54q55 -97 55 -203h4q99 0 196 -53q3 -2 3 -3q0 -104 -54 -202v-1q92 -53 148 -147v-1q-6 -14 -32 -48 q-13 -18 -46 -50q-28 -24 -47 -37l-23 -14v-1q54 -96 54 -202q-98 -55 -203 -55v-4q0 -99 -53 -196q-2 -3 -3 -3q-104 0 -202 54h-1q-53 -92 -147 -148h-1q-14 7 -46 31q-17 12 -52 48q-21 24 -26 32q-8 10 -25 37h-1q-96 -54 -202 -54q-55 97 -55 203h-6q-89 0 -181 46 l-16 9q0 106 55 203q-30 17 -64 45q-31 29 -40 41q-28 33 -42 57q-3 5 -3 6zM379 660q0 -46 6 -106q1 -20 5 -35q7 -24 14 -37q10 -25 38 -38q8 -4 20 -8q10 -3 29 -6q14 -1 72 -4q137 -4 200 -4q57 0 146 2q117 5 135 8t31 10q7 3 16 9q8 6 15 16q10 13 15 30q7 14 11 37 q8 69 8 126v60q0 55 -8 123q-4 25 -9 36q-7 23 -20 38q-11 11 -14 12q-10 7 -21 11q-7 4 -20 7q-16 3 -54 4q-115 6 -234 6q-61 0 -140 -2q-73 -2 -117 -5q-24 -1 -33 -4q-23 -4 -41 -17q-10 -8 -18 -18q-6 -10 -13 -29q-6 -14 -12 -39q-7 -69 -7 -123v-60zM681 591v214 q3 -2 167 -88q38 -19 39 -20l-35 -17q-1 -1 -171 -89z" />
<glyph unicode="6" d="M50 704q54 94 149 149q-55 97 -55 203q97 55 203 55v4q0 101 55 199q106 0 203 -55q54 94 148 149h1q14 -6 48 -32q18 -13 50 -46q24 -28 37 -47l14 -23h1q97 54 202 54q55 -97 55 -203h4q99 0 196 -53q3 -2 3 -3q0 -104 -54 -202v-1q92 -53 148 -147v-1q-6 -14 -32 -48 q-13 -18 -46 -50q-28 -24 -47 -37l-23 -14v-1q54 -96 54 -202q-98 -55 -203 -55v-4q0 -99 -53 -196q-2 -3 -3 -3q-104 0 -202 54h-1q-53 -92 -147 -148h-1q-14 7 -46 31q-17 12 -52 48q-21 24 -26 32q-8 10 -25 37h-1q-96 -54 -202 -54q-55 97 -55 203h-6q-89 0 -181 46 l-16 9q0 106 55 203q-30 17 -64 45q-31 29 -40 41q-28 33 -42 57q-3 5 -3 6zM339 481q0 -14 34 -28q26 -9 72 -17q9 0 14 -29q3 -26 17 -26q45 8 64 8q14 0 21 -2q33 0 84 -39t106 -39h8q35 0 66 15q22 10 61 39q32 26 83 26h1q9 0 16 -1l48 -7q8 0 12 8q11 46 15 46 q110 18 110 47q0 8 -11 11q-43 6 -87 38q-23 17 -49 49q-43 58 -43 84q0 25 35 39q69 20 69 44q0 2 -2 8q-12 18 -34 18q-5 0 -10 -1q-28 -12 -43 -12q-11 0 -21 6q4 76 4 103q0 36 -4 61q-3 24 -28 65q-13 21 -46 49q-63 46 -135 46h-21q-38 0 -78 -14q-75 -29 -110 -92 q-26 -37 -26 -109v-9q0 -30 4 -100q-10 -6 -23 -6q-12 0 -25 3q-22 10 -28 10h-4q-30 -8 -30 -25q0 -20 41 -36q63 -16 63 -48q0 -16 -19 -49q-14 -27 -49 -63q-29 -28 -54 -40q-41 -18 -50 -18q-18 -1 -18 -12v-1z" />
<glyph unicode="7" d="M50 704q134 135 205 205q1 238 1 293h1h216h74q198 198 207 206q136 -135 205 -205q238 -1 293 -1v-1v-216v-74q198 -198 206 -207q-135 -136 -205 -205q-1 -238 -1 -293h-1h-216h-74q-198 -198 -207 -206q-135 134 -205 205q-238 1 -293 1v1v216v74q-198 198 -206 207z M563 639h118v-349h140v349h118q1 6 17 136v1h-135v76q0 31 4 39q0 3 5 14q7 13 25 19q12 5 44 5h62v121v1q-49 5 -102 5h-4q-40 0 -74 -13q-50 -20 -75 -63q-25 -44 -25 -101v-103h-118v-1v-135v-1z" />
<glyph unicode="8" d="M50 704q134 135 205 205q1 238 1 293h1h216h74q198 198 207 206q136 -135 205 -205q238 -1 293 -1v-1v-216v-74q198 -198 206 -207q-135 -136 -205 -205q-1 -238 -1 -293h-1h-216h-74q-198 -198 -207 -206q-135 134 -205 205q-238 1 -293 1v1v216v74q-198 198 -206 207z M411 450q41 -27 90 -44q67 -23 137 -23q112 0 207 52q30 18 66 47q34 30 46 47q29 36 51 74q13 26 26 60q24 71 24 134v21v5q11 8 40 36q21 22 33 39h-1q-28 -11 -58 -18q-22 -5 -25 -5v1q10 5 31 24q25 30 33 57q-29 -16 -60 -27q-29 -8 -34 -8q-21 20 -32 25 q-35 21 -74 21h-1q-59 0 -104 -42q-44 -45 -44 -104v-4q0 -12 3 -31h-1q-16 0 -62 7q-41 10 -72 22q-33 14 -71 37q-28 18 -64 52q-19 19 -35 37q-19 -37 -19 -72v-6q0 -48 35 -92q18 -21 30 -27v-1q-31 0 -66 18v-3q0 -58 44 -105q28 -25 52 -32q17 -5 20 -5q0 -2 -16 -5 q-9 -2 -15 -2h-3h-3h-2h-1q-10 0 -25 3q18 -51 61 -78q38 -24 77 -24q-22 -18 -42 -28q-69 -35 -135 -35h-11q-15 0 -30 2z" />
<glyph unicode="9" d="M50 704q134 135 205 205q1 238 1 293h1h216h74q198 198 207 206q136 -135 205 -205q238 -1 293 -1v-1v-216v-74q198 -198 206 -207q-135 -136 -205 -205q-1 -238 -1 -293h-1h-216h-74q-198 -198 -207 -206q-135 134 -205 205q-238 1 -293 1v1v216v74q-198 198 -206 207z M321 691q0 -42 16 -85q34 -89 112 -139q67 -41 144 -41h4q60 0 115 25q19 8 45 26q98 77 98 222v5q0 13 -2 32v1h-81h-179v-1v-92q9 -1 156 -1q0 -6 -9 -28q-4 -11 -16 -28q-6 -9 -25 -26q-48 -35 -106 -35q-61 0 -105 38q-7 5 -22 21q-40 48 -40 113q0 47 22 88q7 13 25 32 q12 12 18 17q43 34 99 34q59 0 115 -38h1q1 1 9 8q43 43 60 63v1q-87 67 -171 67h-9h-2h-2h-4q-82 0 -153 -51q-74 -55 -101 -140q-6 -16 -9 -37q-3 -27 -3 -47v-4zM944 660q9 0 78 -1v-71v-7h1h77v78q16 0 78 1v76v1h-78v78h-77h-1v-78h-78v-1v-76z" />
<glyph unicode=":" d="M50 704q134 135 205 205q1 238 1 293h1h216h74q198 198 207 206q136 -135 205 -205q238 -1 293 -1v-1v-216v-74q198 -198 206 -207q-135 -136 -205 -205q-1 -238 -1 -293h-1h-216h-74q-198 -198 -207 -206q-135 134 -205 205q-238 1 -293 1v1v216v74q-198 198 -206 207z M422 505q0 -47 15 -71q4 -13 25 -34q38 -36 91 -36h412q54 0 94 39q37 37 37 98v400q0 50 -24 82q-20 27 -42 37q-29 18 -64 18h-414q-60 0 -101 -48q-18 -22 -26 -56q-3 -11 -3 -39v-390zM487 494v275l1 1h99q1 0 1 -1q-14 -33 -14 -68q0 -79 62 -138q56 -47 119 -47h8 q62 0 116 45q21 20 29 32q36 50 36 105v5q0 32 -14 67h100q1 0 1 -1v-277q0 -31 -31 -53q-14 -10 -42 -10h-397q-31 0 -45 12q-2 0 -16 14q-13 17 -13 39zM640 701q0 45 34 82q37 37 82 37h6q48 0 86 -41q30 -34 30 -80q0 -42 -32 -79q-37 -38 -87 -38q-52 0 -90 42 q-29 35 -29 77zM909 846v1v114h1h113v-113v-1h-15q-31 0 -99 -1z" />
<glyph unicode=";" d="M50 704q134 135 205 205q1 238 1 293h1h216h74q198 198 207 206q136 -135 205 -205q238 -1 293 -1v-1v-216v-74q198 -198 206 -207q-135 -136 -205 -205q-1 -238 -1 -293h-1h-216h-74q-198 -198 -207 -206q-135 134 -205 205q-238 1 -293 1v1v216v74q-198 198 -206 207z M477 801q0 -74 34 -122q9 -14 28 -29q25 -16 33 -16h2q4 0 8 2q5 4 6 13q10 36 10 41q0 4 -5 10q-32 36 -32 89q0 74 45 131q12 16 31 32q59 46 136 46q79 0 129 -41q54 -48 54 -126q0 -77 -28 -141q-9 -19 -18 -33q-39 -56 -92 -56q-25 0 -45 15q-25 20 -25 50v3 q0 14 14 59q26 81 26 110q0 20 -7 36q-17 29 -51 29q-32 0 -56 -28q-28 -35 -28 -83q0 -38 14 -69l-52 -221q-11 -44 -11 -91v-8q0 -37 5 -79q0 -7 5 -8h1h3q2 3 13 18q26 35 41 63q12 24 24 54q11 39 32 128q4 -6 12 -15q12 -11 20 -16q36 -23 74 -23q2 1 3 1h1q37 0 74 14 q63 25 105 88q52 84 52 195q0 42 -15 84q-32 78 -105 123q-69 42 -155 42q-113 0 -195 -58q-14 -9 -38 -31q-22 -24 -30 -38q-47 -70 -47 -144z" />
<glyph unicode="&#x3c;" d="M50 704q134 135 205 205q1 238 1 293h1h216h74q198 198 207 206q136 -135 205 -205q238 -1 293 -1v-1v-216v-74q198 -198 206 -207q-135 -136 -205 -205q-1 -238 -1 -293h-1h-216h-74q-198 -198 -207 -206q-135 134 -205 205q-238 1 -293 1v1v216v74q-198 198 -206 207z M369 690q0 -68 43 -124q21 -24 34 -34q46 -31 96 -31h1q68 0 119 52q30 30 41 60q14 37 14 77q0 76 -50 134q-20 20 -32 27q-44 28 -93 28q-65 0 -118 -51q-55 -59 -55 -138zM805 690q0 -77 54 -136q25 -22 43 -31q40 -19 78 -19h8q53 0 103 37q24 19 36 36q36 53 36 108v9 q0 59 -40 112q-33 45 -90 63q-26 7 -49 7q-72 0 -127 -55q-52 -57 -52 -131z" />
<glyph unicode="=" d="M50 704q134 135 205 205q1 238 1 293h1h216h74q198 198 207 206q136 -135 205 -205q238 -1 293 -1v-1v-216v-74q198 -198 206 -207q-135 -136 -205 -205q-1 -238 -1 -293h-1h-216h-74q-198 -198 -207 -206q-135 134 -205 205q-238 1 -293 1v1v216v74q-198 198 -206 207z M399 970q0 -39 31 -66q25 -21 56 -21q40 0 68 34q18 24 18 54q0 43 -39 71q-22 15 -47 15q-39 0 -66 -31q-21 -25 -21 -56zM411 337h150v481h-150v-481zM654 337h149v223q0 64 9 86q20 52 78 52h1h2h2h2q45 0 63 -41q8 -22 8 -31q3 -11 3 -72v-217h149v268q0 123 -43 173 q-41 52 -138 52q-59 0 -107 -37q-17 -17 -22 -25q-7 -9 -11 -16h-1q-1 0 -1 1v65h-143v-481z" />
<glyph unicode="&#x3e;" d="M50 704q134 135 205 205q1 238 1 293h1h216h74q198 198 207 206q136 -135 205 -205q238 -1 293 -1v-1v-216v-74q198 -198 206 -207q-135 -136 -205 -205q-1 -238 -1 -293h-1h-216h-74q-198 -198 -207 -206q-135 134 -205 205q-238 1 -293 1v1v216v74q-198 198 -206 207z M530 768q0 -1 1 -1h77v-251q0 -36 13 -72q26 -66 84 -102q55 -33 128 -33h3q50 0 103 22q14 5 25 13q4 3 10 10l-37 111l-9 -4q-32 -10 -53 -10h-5q-32 0 -51 19q-19 21 -19 58v239h155v1v117h-155v196v1h-113q-2 0 -5 -4q-2 -22 -6 -37q-4 -19 -10 -38q-10 -26 -25 -47 q-5 -11 -16 -23q-3 -4 -17 -19q-17 -14 -29 -22q-21 -13 -41 -21l-8 -3v-100z" />
<glyph unicode="?" d="M50 704q134 135 205 205q1 238 1 293h1h216h74q198 198 207 206q136 -135 205 -205q238 -1 293 -1v-1v-216v-74q198 -198 206 -207q-135 -136 -205 -205q-1 -238 -1 -293h-1h-216h-74q-198 -198 -207 -206q-135 134 -205 205q-238 1 -293 1v1v216v74q-198 198 -206 207z M364 873q0 -4 2 -9q30 -69 63 -130q29 -52 61 -98q18 -28 46 -61q16 -18 35 -35q17 -14 31 -23q24 -16 47 -25q48 -18 88 -18h48q4 0 12 3q10 4 13 10q2 4 3 13q0 30 8 51q3 7 7 13q8 10 18 10h1q15 0 41 -29q19 -24 33 -38q15 -14 21 -18q24 -17 46 -17h1q4 0 6 1l101 1 q3 0 10 1q26 6 26 24q0 5 -2 11q-5 10 -12 22q-8 12 -33 40q-9 10 -27 27q-24 23 -28 28q-24 20 -24 35v1q0 11 14 31q0 1 47 62q65 86 65 115v1q0 5 -2 9q-6 9 -27 9h-3h-9l-115 -1h-6q-2 0 -6 -1q-7 -2 -13 -12q-8 -18 -14 -33q-15 -33 -26 -53q-55 -94 -79 -94q-3 0 -5 3 q-15 9 -15 46v1v45q2 52 2 64q0 24 -4 33t-15 13q-8 4 -10 4q-15 5 -63 5h-9q-52 0 -71 -9q-6 0 -13 -7q-10 -9 -10 -12v-2v-1q10 -2 13 -3q18 -7 25 -17q3 -6 5 -14t3 -20q2 -29 2 -44v-3v-1v-2v-2q0 -39 -7 -60q-5 -18 -17 -18q-21 0 -64 71q-31 51 -52 102q-6 14 -14 18 q-11 4 -14 5q-16 -1 -109 -1q-7 0 -16 -3q-10 -4 -10 -13v-1z" />
<glyph unicode="@" d="M50 704q134 135 205 205q1 238 1 293h1h216h74q198 198 207 206q136 -135 205 -205q238 -1 293 -1v-1v-216v-74q198 -198 206 -207q-135 -136 -205 -205q-1 -238 -1 -293h-1h-216h-74q-198 -198 -207 -206q-135 134 -205 205q-238 1 -293 1v1v216v74q-198 198 -206 207z M392 650q0 -43 6 -102q2 -18 5 -32q6 -23 12 -36q12 -23 36 -36q9 -4 21 -7q10 -3 28 -6q12 -2 67 -5q132 -3 192 -3q54 0 140 2q113 4 129 7q17 4 29 10q8 3 16 10q8 6 15 14q8 12 14 28q6 15 11 36q7 66 7 120v59q0 51 -7 117q-5 23 -9 34q-7 22 -19 36q-11 10 -14 12 q-9 7 -20 11q-7 3 -19 6q-15 2 -51 5q-111 5 -225 5q-58 0 -133 -3q-71 0 -112 -4q-23 -1 -33 -3q-21 -4 -38 -17q-10 -9 -17 -17q-6 -9 -13 -27q-6 -15 -10 -38q-8 -66 -8 -117v-59zM681 585v204q3 -1 160 -84q36 -18 37 -18l-33 -17q-1 -1 -164 -85z" />
<glyph unicode="A" d="M50 704q134 135 205 205q1 238 1 293h1h216h74q198 198 207 206q136 -135 205 -205q238 -1 293 -1v-1v-216v-74q198 -198 206 -207q-135 -136 -205 -205q-1 -238 -1 -293h-1h-216h-74q-198 -198 -207 -206q-135 134 -205 205q-238 1 -293 1v1v216v74q-198 198 -206 207z M348 484q0 -14 33 -28q25 -9 71 -17q8 0 13 -28q3 -26 17 -26q44 8 62 8q14 0 21 -2q33 0 82 -37q51 -39 104 -39h9q34 0 64 15q21 10 60 38q31 25 81 25h1q9 0 16 -1l47 -7q8 0 12 8q10 45 15 45q107 18 107 47q0 8 -11 10q-42 6 -85 38q-23 16 -48 47q-42 57 -42 83 q0 24 34 38q68 20 68 43q0 2 -2 8q-12 18 -33 18q-6 0 -10 -1q-27 -12 -43 -12q-10 0 -20 6q4 74 4 101q0 35 -4 59q-3 24 -28 64q-12 20 -44 48q-62 45 -132 45h-21q-38 0 -76 -14q-74 -28 -108 -90q-26 -36 -26 -107v-9q0 -29 4 -97q-9 -6 -22 -6q-12 0 -25 3 q-22 10 -28 10h-4q-29 -8 -29 -25q0 -19 40 -35q62 -16 62 -47q0 -16 -19 -49q-13 -25 -48 -61q-28 -27 -52 -39q-40 -18 -50 -18q-17 -1 -17 -11v-1z" />
<glyph unicode="B" horiz-adv-x="1321" d="M50 352v704q237 137 487 281q121 70 123 71l387 -223l224 -129v-704q-237 -137 -487 -281q-121 -70 -123 -71l-387 223zM459 650h127v-376h151v376h127q1 6 19 146h-1h-145v83q0 33 4 42q0 3 6 14q8 15 27 21q12 5 47 5h67v1v130q-52 6 -110 6h-4q-43 0 -80 -14 q-54 -22 -81 -68q-27 -47 -27 -109v-111h-127v-146z" />
<glyph unicode="C" horiz-adv-x="1321" d="M50 352v704q237 137 487 281q121 70 123 71l387 -223l224 -129v-704q-237 -137 -487 -281q-121 -70 -123 -71l-387 223zM280 440q44 -29 97 -47q72 -24 146 -24q120 0 223 55q32 19 70 51q36 33 50 51q32 38 53 80q15 27 29 64q25 76 25 143v23v4q13 9 44 39q22 24 35 43 h-1q-30 -12 -62 -20q-24 -4 -26 -4v1q9 4 33 25q26 32 35 61q-31 -18 -65 -29q-30 -9 -36 -9q-22 21 -34 26q-38 24 -81 24h-1q-63 0 -110 -46q-48 -48 -48 -112v-3q0 -14 4 -34h-1q-17 0 -68 9q-43 9 -76 23q-35 14 -77 39q-31 20 -69 56q-19 20 -36 39q-21 -39 -21 -77v-7 q0 -51 38 -99q19 -21 31 -27v-1q-32 0 -70 19v-5q0 -61 48 -111q29 -27 56 -34q17 -7 21 -7q0 -2 -17 -5q-12 -1 -17 -1h-3h-3h-2h-1q-12 0 -27 2q19 -54 65 -84q41 -25 83 -25q-24 -19 -46 -30q-72 -37 -144 -37h-12q-15 0 -32 1z" />
<glyph unicode="D" horiz-adv-x="1321" d="M50 352v704q237 137 487 281q121 70 123 71l387 -223l224 -129v-704q-237 -137 -487 -281q-121 -70 -123 -71l-387 223zM193 694q0 -47 18 -95q37 -98 124 -154q74 -45 159 -45h5q66 0 128 28q20 9 49 29q109 85 109 246v5q0 15 -2 36v1h-90h-198v-1v-102q10 -1 172 -2 q0 -6 -9 -30q-5 -13 -18 -31q-7 -10 -28 -29q-53 -39 -117 -39q-68 0 -117 42q-8 6 -24 23q-45 53 -45 125q0 53 25 98q8 15 27 36q14 13 21 18q47 38 109 38q66 0 128 -42h1q1 1 10 9q48 48 66 70v1q-96 74 -189 74h-10h-3h-2h-4q-91 0 -170 -57q-82 -61 -112 -155 q-6 -18 -10 -41q-3 -30 -3 -52v-4zM884 659q10 0 86 -1v-78v-8h1h85q1 28 1 86q17 0 86 1v85v1h-86l-1 86h-85h-1v-86h-86v-1v-85z" />
<glyph unicode="E" horiz-adv-x="1321" d="M50 352v704q237 137 487 281q121 70 123 71l387 -223l224 -129v-704q-237 -137 -487 -281q-121 -70 -123 -71l-387 223zM307 499q0 -49 16 -75q4 -13 26 -35q40 -38 96 -38h431q58 0 99 41q39 38 39 102v420q0 53 -25 87q-21 27 -44 39q-31 18 -67 18h-435 q-62 0 -106 -51q-19 -22 -27 -58q-3 -12 -3 -41v-409zM375 487v289l1 1h104q1 0 1 -1q-14 -35 -14 -72q0 -82 65 -144q59 -49 124 -49h9q64 0 122 47q22 20 30 33q37 53 37 110v6q0 33 -14 70h105q1 0 1 -1v-291q0 -32 -33 -55q-15 -11 -44 -11h-416q-32 0 -47 12 q-3 0 -17 15q-14 19 -14 41zM536 704q0 48 35 87q39 38 86 38h7q50 0 90 -43q31 -36 31 -84q0 -44 -33 -83q-39 -39 -92 -39q-54 0 -94 44q-30 37 -30 80zM813 856v1v119q23 0 119 1l1 -1v-119h-1h-15q-33 0 -104 -1z" />
<glyph unicode="F" horiz-adv-x="1321" d="M50 352v704q237 137 487 281q121 70 123 71l387 -223l224 -129v-704q-237 -137 -487 -281q-121 -70 -123 -71l-387 223zM364 809q0 -77 35 -126q9 -15 29 -30q26 -17 34 -17h2q4 0 8 2q6 4 7 14q10 37 10 43q0 4 -5 10q-33 37 -33 91q0 77 46 136q13 17 33 34 q61 47 141 47q82 0 133 -42q56 -49 56 -130q0 -80 -29 -146q-9 -20 -18 -34q-41 -59 -95 -59q-26 0 -47 16q-26 20 -26 52v2q0 15 14 62q27 83 27 113q0 21 -7 38q-17 30 -53 30q-34 0 -58 -29q-29 -36 -29 -86q0 -39 14 -71l-53 -229q-12 -46 -12 -95v-8q0 -38 5 -82 q0 -7 5 -8h2h2q3 3 15 18q26 37 41 66q13 24 25 56q12 40 34 133q4 -7 12 -16q13 -12 21 -17q38 -23 77 -23q1 1 2 1h2q38 0 77 14q65 26 108 92q54 86 54 201q0 44 -16 87q-33 81 -108 128q-72 43 -161 43q-117 0 -202 -60q-15 -9 -39 -33q-23 -24 -32 -39 q-48 -72 -48 -149z" />
<glyph unicode="G" horiz-adv-x="1321" d="M50 352v704q237 137 487 281q121 70 123 71l387 -223l224 -129v-704q-237 -137 -487 -281q-121 -70 -123 -71l-387 223zM235 691q0 -73 46 -132q21 -26 36 -36q49 -33 103 -33h1q71 0 126 55q31 32 43 65q15 39 15 81q0 80 -54 142q-21 22 -34 30q-46 29 -97 29 q-70 0 -126 -54q-59 -63 -59 -147zM699 694q0 -82 58 -144q26 -24 45 -33q42 -21 83 -21h8q57 0 110 39q25 21 38 38q38 57 38 116v9q0 62 -42 120q-35 47 -96 67q-28 7 -52 7q-76 0 -135 -59q-55 -61 -55 -139z" />
<glyph unicode="H" horiz-adv-x="1321" d="M50 352v704q237 137 487 281q121 70 123 71l387 -223l224 -129v-704q-237 -137 -487 -281q-121 -70 -123 -71l-387 223zM334 988q0 -38 31 -65q24 -20 54 -20q40 0 68 33q17 23 17 53q0 42 -38 70q-23 14 -47 14q-38 0 -65 -31q-20 -24 -20 -54zM345 366h148v472h-148 v-472zM585 366h146v219q0 63 9 85q19 51 77 51h1h3h3q43 0 61 -41q7 -22 7 -30q4 -12 4 -70v-214h146v263q0 121 -42 169q-40 52 -136 52q-58 0 -104 -36q-18 -17 -23 -25q-6 -8 -10 -16h-1v1v64h-141v-472z" />
<glyph unicode="I" horiz-adv-x="1321" d="M50 352v704q237 137 487 281q121 70 123 71l387 -223l224 -129v-704q-237 -137 -487 -281q-121 -70 -123 -71l-387 223zM415 795q0 -1 1 -1h85v-278q0 -40 15 -80q28 -73 92 -112q61 -37 142 -37h3q56 0 114 24q16 6 28 15q4 3 11 11q-4 13 -41 122l-10 -4 q-35 -11 -59 -11h-5q-35 0 -56 21q-21 23 -21 64v265h171v1v129h-171v217v1h-125q-3 0 -6 -5q-2 -24 -6 -40q-5 -22 -12 -42q-11 -29 -27 -53q-6 -12 -18 -25q-3 -4 -19 -21q-18 -15 -32 -24q-23 -15 -45 -24l-9 -3v-110z" />
<glyph unicode="J" horiz-adv-x="1321" d="M50 352v704q237 137 487 281q121 70 123 71l387 -223l224 -129v-704q-237 -137 -487 -281q-121 -70 -123 -71l-387 223zM231 898q0 -4 2 -11q33 -75 70 -143q32 -57 66 -107q21 -31 51 -67q17 -20 39 -39q19 -16 34 -26q26 -17 52 -27q53 -20 96 -20h53q5 0 14 3 q10 5 14 12q2 3 4 14q0 33 8 56q3 8 7 14q10 12 20 12h2q16 0 45 -33q22 -25 37 -42q15 -15 22 -19q27 -19 51 -19h1q4 0 7 1l111 1q3 0 11 2q29 7 29 25v2q0 4 -2 11q-5 11 -14 23q-8 14 -36 45q-10 11 -30 30q-26 25 -31 30q-26 23 -26 38v2q0 13 15 34q0 1 53 70 q71 93 71 126q0 6 -2 10q-7 11 -31 11h-3q-5 0 -10 -1h-126h-6t-7 -2q-8 -2 -14 -13q-9 -20 -16 -37q-16 -36 -29 -58q-60 -103 -86 -103q-4 0 -7 2q-16 11 -16 52v1q1 36 1 49q2 57 2 71q0 26 -5 36t-16 15q-9 4 -12 4q-16 5 -69 5h-10q-57 0 -78 -9q-6 -1 -15 -8 q-10 -10 -10 -14v-2v-1q11 -2 15 -3q19 -7 26 -19q4 -7 6 -16q2 -8 4 -21q2 -32 2 -49v-2v-2v-2v-3q0 -43 -8 -66q-6 -19 -19 -19q-23 0 -70 78q-34 56 -57 112q-6 15 -16 20q-11 5 -15 5q-18 0 -121 -1q-7 0 -17 -3q-11 -3 -11 -14v-1z" />
<glyph unicode="K" horiz-adv-x="1321" d="M50 352v704q237 137 487 281q121 70 123 71l387 -223l224 -129v-704q-237 -137 -487 -281q-121 -70 -123 -71l-387 223zM271 659q0 -46 6 -109q2 -19 6 -34q6 -25 13 -38q12 -25 38 -38q9 -5 22 -9q10 -2 30 -5q13 -2 72 -5q140 -4 204 -4q58 0 150 2q119 5 136 8 q19 3 32 10q8 4 17 10q8 7 16 16q9 13 15 29t11 39q8 70 8 128v62q0 56 -8 125q-5 26 -9 37q-7 23 -21 38q-11 11 -14 13q-10 7 -21 11q-8 4 -21 7q-16 3 -54 5q-118 6 -240 6q-62 0 -142 -3q-75 -1 -119 -5q-25 -1 -34 -3q-24 -5 -42 -19q-10 -8 -18 -17q-7 -10 -14 -29 q-6 -15 -11 -40q-8 -71 -8 -126v-62zM579 589v218q3 -1 170 -89q38 -19 39 -20l-34 -18q-2 -1 -175 -91z" />
<glyph unicode="L" horiz-adv-x="1321" d="M50 352v704q237 137 487 281q121 70 123 71l387 -223l224 -129v-704q-237 -137 -487 -281q-121 -70 -123 -71l-387 223zM238 477q0 -14 35 -30q26 -9 74 -17q9 0 14 -29q3 -27 17 -27q47 8 66 8q14 0 21 -2q35 0 87 -40q53 -40 109 -40h9q36 0 67 15q22 11 63 41 q32 26 84 26h2q9 0 16 -1l50 -7q8 0 12 8q11 47 16 47q112 18 112 49q0 8 -11 11q-44 6 -90 39q-23 17 -50 50q-44 60 -44 87q0 25 36 40q71 20 71 45q0 1 -2 8q-12 19 -35 19q-5 0 -10 -1q-28 -13 -45 -13q-10 0 -21 6q4 79 4 106q0 37 -4 62q-3 26 -29 67q-13 22 -47 50 q-65 48 -138 48h-22q-39 0 -80 -14q-77 -30 -113 -95q-27 -38 -27 -112v-9q0 -31 4 -103q-9 -6 -23 -6q-13 0 -26 4q-23 10 -29 10h-4q-31 -9 -31 -27q0 -19 42 -36q65 -17 65 -49q0 -17 -20 -51q-14 -27 -50 -65q-30 -28 -55 -40q-42 -19 -52 -19q-18 -1 -18 -12v-1z" />
<glyph unicode="M" d="M50 170v1068q0 90 70 142q39 28 90 28h1088q85 0 135 -75q25 -42 25 -95v-1068q0 -90 -70 -142q-39 -28 -90 -28h-1088q-85 0 -135 75q-25 42 -25 95zM499 655h149v-442h178v442h149q1 7 22 172h-1h-170v97q0 40 4 50q0 4 7 17q10 17 32 24q15 6 55 6h79v1v153 q-62 7 -129 7h-5q-51 0 -93 -16q-64 -26 -96 -81t-32 -127v-131h-149v-172z" />
<glyph unicode="N" d="M50 170v1068q0 90 70 142q39 28 90 28h1088q85 0 135 -75q25 -42 25 -95v-1068q0 -90 -70 -142q-39 -28 -90 -28h-1088q-85 0 -135 75q-25 42 -25 95zM306 375q53 -35 116 -56q87 -30 177 -30q145 0 268 67q39 22 85 61q44 40 60 61q38 47 64 96q18 33 34 77 q31 92 31 173v28v5q16 10 53 46q27 29 42 52h-1q-36 -15 -75 -24q-29 -5 -32 -5v1q12 5 40 31q32 38 42 73q-37 -22 -78 -35q-36 -11 -43 -11q-27 26 -41 32q-46 28 -97 28h-1q-76 0 -134 -55q-57 -58 -57 -134v-4q0 -17 5 -41h-1q-21 0 -82 10q-52 12 -92 28q-43 17 -92 48 q-37 23 -83 66q-24 24 -44 47q-25 -47 -25 -92v-8q0 -62 45 -119q23 -26 38 -34v-1q-39 0 -85 23v-5q0 -75 58 -134q36 -33 67 -42q21 -8 26 -8q0 -2 -21 -5q-13 -2 -20 -2h-4h-3h-3h-1q-14 0 -32 3q23 -66 78 -101q49 -31 99 -31q-28 -23 -54 -36q-88 -45 -175 -45h-13 q-19 0 -39 2z" />
<glyph unicode="O" d="M50 170v1068q0 90 70 142q39 28 90 28h1088q85 0 135 -75q25 -42 25 -95v-1068q0 -90 -70 -142q-39 -28 -90 -28h-1088q-85 0 -135 75q-25 42 -25 95zM226 684q0 -52 20 -105q41 -109 138 -171q82 -50 176 -50h6q73 0 142 31q22 10 54 32q121 95 121 273v6q0 17 -2 40v1 h-100h-220v-1v-113q11 -1 191 -2q0 -7 -10 -34q-5 -14 -20 -34q-7 -11 -31 -32q-59 -44 -130 -44q-75 0 -130 47q-8 7 -26 25q-50 59 -50 139q0 59 28 109q8 17 30 40q15 15 23 20q52 42 121 42q73 0 142 -46h1q1 1 11 10q54 53 74 77v1q-107 83 -210 83h-11h-4h-2h-4 q-101 0 -189 -64q-91 -67 -125 -172q-6 -20 -11 -45q-3 -34 -3 -58v-5zM993 646q11 0 96 -1v-87v-9h1h94q1 31 1 96q19 0 96 1v94v1h-96l-1 96h-94h-1v-96h-96v-1v-94z" />
<glyph unicode="P" d="M50 170v1068q0 90 70 142q39 28 90 28h1088q85 0 135 -75q25 -42 25 -95v-1068q0 -90 -70 -142q-39 -28 -90 -28h-1088q-85 0 -135 75q-25 42 -25 95zM372 465q0 -53 17 -81q5 -14 28 -38q44 -41 104 -41h467q62 0 107 44q42 42 42 111v454q0 57 -27 94q-23 30 -48 42 q-33 20 -72 20h-471q-67 0 -114 -55q-21 -24 -30 -63q-3 -13 -3 -44v-443zM446 452v313l1 1h112q1 0 1 -1q-15 -38 -15 -78q0 -89 70 -156q64 -53 135 -53h9q70 0 132 51q24 22 33 36q40 57 40 119v6q0 36 -15 76h113q1 0 1 -1v-315q0 -35 -35 -60q-16 -11 -48 -11h-450 q-35 0 -51 13q-3 0 -18 16q-15 20 -15 44zM620 687q0 52 38 94q42 41 93 41h7q54 0 98 -46q33 -39 33 -91q0 -48 -36 -90q-42 -42 -99 -42q-59 0 -102 47q-32 40 -32 87zM919 851v1v129h1q24 0 128 1l1 -1v-128q0 -1 -1 -1h-16q-36 0 -113 -1z" />
<glyph unicode="Q" d="M50 170v1068q0 90 70 142q39 28 90 28h1088q85 0 135 -75q25 -42 25 -95v-1068q0 -90 -70 -142q-39 -28 -90 -28h-1088q-85 0 -135 75q-25 42 -25 95zM416 822q0 -86 40 -142q10 -16 32 -34q29 -19 38 -19h3q4 0 9 3q6 4 7 15q12 42 12 48q0 5 -6 12q-37 41 -37 103 q0 86 52 152q14 19 36 39q69 52 159 52q93 0 150 -47q63 -55 63 -146q0 -90 -32 -165q-11 -22 -21 -38q-45 -66 -107 -66q-29 0 -53 17q-29 24 -29 59v3q0 16 16 69q31 94 31 128q0 23 -9 42q-19 34 -59 34q-38 0 -66 -32q-32 -41 -32 -97q0 -44 16 -81l-60 -257 q-14 -51 -14 -107v-9q0 -42 6 -92q0 -8 6 -9h2h3q3 3 16 21q29 41 47 73q14 28 28 63q13 46 38 150q4 -7 13 -18q15 -13 24 -19q42 -26 86 -26q2 1 3 1h2q42 0 86 16q74 30 122 103q60 97 60 226q0 50 -17 99q-37 91 -122 144q-81 48 -181 48q-132 0 -227 -68 q-17 -10 -44 -36q-25 -28 -36 -44q-54 -81 -54 -168z" />
<glyph unicode="R" d="M50 170v1068q0 90 70 142q39 28 90 28h1088q85 0 135 -75q25 -42 25 -95v-1068q0 -90 -70 -142q-39 -28 -90 -28h-1088q-85 0 -135 75q-25 42 -25 95zM257 694q0 -87 55 -158q26 -31 44 -43q58 -40 123 -40h1q86 0 152 66q37 39 51 78q19 47 19 98q0 96 -65 170 q-25 26 -41 36q-55 35 -117 35q-84 0 -151 -65q-71 -75 -71 -177zM814 698q0 -98 70 -173q32 -29 54 -40q51 -25 100 -25h9q69 0 133 47q30 25 45 46q46 68 46 139v11q0 75 -50 144q-43 57 -116 80q-33 9 -62 9q-92 0 -163 -71q-66 -73 -66 -167z" />
<glyph unicode="S" d="M50 170v1068q0 90 70 142q39 28 90 28h1088q85 0 135 -75q25 -42 25 -95v-1068q0 -90 -70 -142q-39 -28 -90 -28h-1088q-85 0 -135 75q-25 42 -25 95zM350 1029q0 -45 36 -77q29 -24 66 -24q47 0 79 39q21 28 21 63q0 51 -45 84q-27 16 -56 16q-45 0 -77 -36 q-24 -29 -24 -65zM364 290h175v561h-175v-561zM648 290h174v261q0 74 11 100q22 61 91 61h1h1h3h2q53 0 74 -49q9 -25 9 -36q3 -13 3 -83v-254h175v313q0 143 -50 202q-49 61 -161 61q-70 0 -125 -44q-21 -19 -27 -28q-7 -11 -12 -20h-1q-1 0 -1 1v76h-167v-561z" />
<glyph unicode="T" d="M50 170v1068q0 90 70 142q39 28 90 28h1088q85 0 135 -75q25 -42 25 -95v-1068q0 -90 -70 -142q-39 -28 -90 -28h-1088q-85 0 -135 75q-25 42 -25 95zM488 782q0 -1 1 -1h87v-284q0 -41 15 -82q29 -75 95 -115q62 -38 145 -38h3q58 0 117 25q16 6 29 15q4 3 11 11 q-4 14 -42 125l-10 -4q-36 -11 -61 -11h-5q-36 0 -57 21q-22 24 -22 66v271h176v1v133h-176v222v1h-128q-3 0 -6 -5q-2 -25 -6 -41q-5 -23 -12 -43q-12 -30 -28 -54q-6 -13 -18 -26q-3 -4 -20 -22q-18 -15 -33 -24q-23 -16 -46 -25l-9 -3v-113z" />
<glyph unicode="U" d="M50 170v1068q0 90 70 142q39 28 90 28h1088q85 0 135 -75q25 -42 25 -95v-1068q0 -90 -70 -142q-39 -28 -90 -28h-1088q-85 0 -135 75q-25 42 -25 95zM231 913q0 -6 2 -14q41 -92 87 -176q38 -70 81 -132q25 -38 63 -82q21 -25 47 -48q23 -19 42 -31q32 -21 64 -34 q65 -25 118 -25h66q5 0 17 5t17 14q3 4 4 17q0 40 10 68q4 11 9 18q12 15 25 15h2q20 0 55 -41q27 -31 46 -51q18 -18 27 -23q34 -24 63 -24h1q5 0 9 1l136 1q4 0 14 2q35 9 35 32v2q0 6 -3 14q-6 13 -16 28q-11 17 -45 55q-12 13 -36 37q-33 30 -40 37q-31 29 -31 47v2 q0 16 19 42q0 1 65 85q87 116 87 156q0 8 -3 12q-8 13 -38 13h-3h-12l-155 -1h-8q-4 0 -8 -2q-11 -2 -18 -16q-11 -24 -19 -46q-20 -43 -36 -70q-74 -127 -106 -127q-5 0 -8 2q-19 13 -19 64v1v60q2 71 3 88q0 32 -6 44t-20 19q-11 4 -14 4q-21 7 -85 7h-13q-70 0 -96 -11 q-7 -2 -18 -10q-13 -13 -13 -18v-2l1 -1q12 -2 18 -5q23 -8 32 -22q4 -9 7 -20q3 -10 5 -26q2 -39 2 -60v-3v-2v-2v-4q0 -53 -10 -81q-6 -24 -23 -24q-28 0 -86 96q-42 69 -70 138q-7 19 -20 25q-13 5 -18 6q-23 -1 -148 -1q-10 0 -21 -4q-14 -4 -14 -18z" />
<glyph unicode="V" d="M50 170v1068q0 90 70 142q39 28 90 28h1088q85 0 135 -75q25 -42 25 -95v-1068q0 -90 -70 -142q-39 -28 -90 -28h-1088q-85 0 -135 75q-25 42 -25 95zM234 648q0 -60 8 -144q2 -26 8 -45q8 -34 17 -51q16 -33 51 -51q12 -6 29 -11q14 -3 39 -7q18 -3 97 -7q186 -5 271 -5 q77 0 199 3q159 6 182 10q25 5 43 14q10 5 21 14q12 8 22 20q13 17 21 40q8 20 14 50q11 94 11 170v84q0 74 -10 167q-7 33 -13 47q-10 32 -28 52q-15 14 -20 16q-12 10 -26 16q-11 5 -29 9q-21 4 -71 7q-157 7 -320 7q-82 0 -189 -3q-100 -2 -158 -7q-33 -2 -45 -5 q-32 -6 -56 -24q-14 -10 -24 -23q-9 -13 -19 -39q-8 -20 -15 -53q-10 -94 -10 -167v-84zM643 556v290q5 -2 228 -118q50 -26 51 -28l-46 -23q-2 -2 -233 -121z" />
<glyph unicode="W" d="M50 170v1068q0 90 70 142q39 28 90 28h1088q85 0 135 -75q25 -42 25 -95v-1068q0 -90 -70 -142q-39 -28 -90 -28h-1088q-85 0 -135 75q-25 42 -25 95zM277 446q0 -16 39 -33q29 -10 82 -19q10 0 16 -33q3 -30 19 -30q52 9 73 9q16 0 24 -2q38 0 96 -44q59 -45 121 -45h10 q40 0 75 17q25 12 70 45q36 29 94 29h2q10 0 18 -1l55 -8q9 0 14 9q12 53 17 53q125 20 125 54q0 9 -12 12q-49 7 -100 44q-26 19 -56 55q-49 67 -49 97q0 28 40 44q79 23 79 50q0 2 -2 9q-14 21 -39 21q-6 0 -11 -1q-32 -14 -50 -14q-12 0 -24 7q5 87 5 118q0 41 -5 69 q-3 28 -32 74q-14 24 -52 56q-72 53 -154 53h-24q-44 0 -89 -16q-86 -33 -126 -105q-30 -42 -30 -125v-10q0 -34 5 -114q-11 -7 -26 -7q-14 0 -29 4q-25 11 -32 11h-5q-34 -9 -34 -29q0 -22 47 -41q72 -18 72 -54q0 -19 -22 -57q-16 -30 -56 -72q-33 -31 -61 -45 q-47 -21 -58 -21q-20 -1 -20 -13v-1z" />
<glyph unicode="X" d="M50 0v1408h1408v-1408h-1408zM502 654h149v-442h178v442h149q1 7 22 172h-1h-170v97q0 40 4 50q0 4 7 17q10 17 32 24q15 6 55 6h79v1v153q-62 7 -129 7h-5q-51 0 -93 -16q-64 -26 -96 -81t-32 -127v-131h-149v-172z" />
<glyph unicode="Y" d="M50 0v1408h1408v-1408h-1408zM293 385q53 -35 116 -56q87 -30 177 -30q145 0 268 67q39 22 85 61q44 40 60 61q38 47 64 96q18 33 34 77q31 92 31 173v28v5q16 10 53 46q27 29 42 52h-1q-36 -15 -75 -24q-29 -5 -32 -5v1q12 5 40 31q32 38 42 73q-37 -22 -78 -35 q-36 -11 -43 -11q-27 26 -41 32q-46 28 -97 28h-1q-76 0 -134 -55q-57 -58 -57 -134v-4q0 -17 5 -41h-1q-21 0 -82 10q-52 12 -92 28q-43 17 -92 48q-37 23 -83 66q-24 24 -44 47q-25 -47 -25 -92v-8q0 -62 45 -119q23 -26 38 -34v-1q-39 0 -85 23v-5q0 -75 58 -134 q36 -33 67 -42q21 -8 26 -8q0 -2 -21 -5q-13 -2 -20 -2h-4h-3h-3h-1q-14 0 -32 3q23 -66 78 -101q49 -31 99 -31q-28 -23 -54 -36q-88 -45 -175 -45h-13q-19 0 -39 2z" />
<glyph unicode="Z" d="M50 0v1408h1408v-1408h-1408zM226 684q0 -52 20 -105q41 -109 138 -171q82 -50 176 -50h6q73 0 142 31q22 10 54 32q121 95 121 273v6q0 17 -2 40v1h-100h-220v-1v-113q11 -1 191 -2q0 -7 -10 -34q-5 -14 -20 -34q-7 -11 -31 -32q-59 -44 -130 -44q-75 0 -130 47 q-8 7 -26 25q-50 59 -50 139q0 59 28 109q8 17 30 40q15 15 23 20q52 42 121 42q73 0 142 -46h1q1 1 11 10q54 53 74 77v1q-107 83 -210 83h-11h-4h-2h-4q-101 0 -189 -64q-91 -67 -125 -172q-6 -20 -11 -45q-3 -34 -3 -58v-5zM993 646q11 0 96 -1v-87v-9h1h94q1 31 1 96 q19 0 96 1v94v1h-96l-1 96h-94h-1v-96h-96v-1v-94z" />
<glyph unicode="[" d="M50 0v1408h1408v-1408h-1408zM372 468q0 -53 17 -81q5 -14 28 -38q44 -41 104 -41h467q62 0 107 44q42 42 42 111v454q0 57 -27 94q-23 30 -48 42q-33 20 -72 20h-471q-67 0 -114 -55q-21 -24 -30 -63q-3 -13 -3 -44v-443zM446 455v313l1 1h112q1 0 1 -1q-15 -38 -15 -78 q0 -89 70 -156q64 -53 135 -53h9q70 0 132 51q24 22 33 36q40 57 40 119v6q0 36 -15 76h113q1 0 1 -1v-315q0 -35 -35 -60q-16 -11 -48 -11h-450q-35 0 -51 13q-3 0 -18 16q-15 20 -15 44zM620 690q0 52 38 94q42 41 93 41h7q54 0 98 -46q33 -39 33 -91q0 -48 -36 -90 q-42 -42 -99 -42q-59 0 -102 47q-32 40 -32 87zM919 854v1v129h1q24 0 128 1l1 -1v-128q0 -1 -1 -1h-16q-36 0 -113 -1z" />
<glyph unicode="\" d="M50 0v1408h1408v-1408h-1408zM427 814q0 -89 41 -145q10 -17 33 -35q30 -19 39 -19h3q4 0 9 3q6 4 7 15q12 43 12 49q0 5 -6 12q-37 42 -37 105q0 88 52 156q15 19 37 39q71 54 162 54q95 0 153 -48q65 -57 65 -150q0 -92 -33 -168q-11 -22 -21 -39q-47 -67 -110 -67 q-30 0 -54 18q-30 24 -30 60v3q0 16 17 70q31 96 31 130q0 24 -9 44q-19 34 -60 34q-39 0 -67 -33q-33 -42 -33 -99q0 -45 16 -82l-61 -262q-13 -53 -13 -110v-9q0 -43 6 -94q0 -8 6 -9h1h3q3 3 17 21q29 42 47 75q15 28 29 64q13 47 39 153q4 -7 13 -18q15 -13 24 -19 q44 -27 89 -27q1 1 3 1h1q44 0 89 17q75 30 124 105q61 98 61 230q0 51 -18 101q-37 93 -124 147q-82 49 -184 49q-135 0 -232 -69q-17 -10 -45 -37q-26 -29 -36 -45q-56 -83 -56 -171z" />
<glyph unicode="]" d="M50 0v1408h1408v-1408h-1408zM248 699q0 -87 55 -158q26 -31 44 -43q58 -40 123 -40h1q86 0 152 66q37 39 51 78q19 47 19 98q0 96 -65 170q-25 26 -41 36q-55 35 -117 35q-84 0 -151 -65q-71 -75 -71 -177zM805 703q0 -98 70 -173q32 -29 54 -40q51 -25 100 -25h9 q69 0 133 47q30 25 45 46q46 68 46 139v11q0 75 -50 144q-43 57 -116 80q-33 9 -62 9q-92 0 -163 -71q-66 -73 -66 -167z" />
<glyph unicode="^" d="M50 0v1408h1408v-1408h-1408zM332 1006q0 -45 36 -77q29 -24 66 -24q47 0 79 39q21 28 21 63q0 51 -45 84q-27 16 -56 16q-45 0 -77 -36q-24 -29 -24 -65zM346 267h175v561h-175v-561zM630 267h174v261q0 74 11 100q22 61 91 61h1h1h3h2q53 0 74 -49q9 -25 9 -36 q3 -13 3 -83v-254h175v313q0 143 -50 202q-49 61 -161 61q-70 0 -125 -44q-21 -19 -27 -28q-7 -11 -12 -20h-1q-1 0 -1 1v76h-167v-561z" />
<glyph unicode="_" d="M50 0v1408h1408v-1408h-1408zM468 790q0 -1 1 -1h96v-313q0 -45 17 -90q31 -82 104 -126q68 -42 160 -42h3q63 0 128 27q18 7 32 17q4 3 12 12q-4 15 -46 138l-11 -5q-40 -12 -67 -12h-5q-40 0 -63 23q-24 26 -24 73v298h193v1v145h-193v245v1h-141q-3 0 -7 -6 q-2 -27 -6 -45q-6 -24 -14 -47q-12 -33 -30 -60q-7 -13 -21 -28q-3 -4 -21 -23q-20 -17 -36 -28q-26 -16 -51 -27l-10 -3v-124z" />
<glyph unicode="`" d="M50 0v1408h1408v-1408h-1408zM242 904q0 -6 2 -14q41 -92 87 -176q38 -70 81 -132q25 -38 63 -82q21 -25 47 -48q23 -19 42 -31q32 -21 64 -34q65 -25 118 -25h66q5 0 17 5t17 14q3 4 4 17q0 40 10 68q4 11 9 18q12 15 25 15h2q20 0 55 -41q27 -31 46 -51q18 -18 27 -23 q34 -24 63 -24h1q5 0 9 1l136 1q4 0 14 2q35 9 35 32v2q0 6 -3 14q-6 13 -16 28q-11 17 -45 55q-12 13 -36 37q-33 30 -40 37q-31 29 -31 47v2q0 16 19 42q0 1 65 85q87 116 87 156q0 8 -3 12q-8 13 -38 13h-3h-12l-155 -1h-8q-4 0 -8 -2q-11 -2 -18 -16q-11 -24 -19 -46 q-20 -43 -36 -70q-74 -127 -106 -127q-5 0 -8 2q-19 13 -19 64v1v60q2 71 3 88q0 32 -6 44t-20 19q-11 4 -14 4q-21 7 -85 7h-13q-70 0 -96 -11q-7 -2 -18 -10q-13 -13 -13 -18v-2l1 -1q12 -2 18 -5q23 -8 32 -22q4 -9 7 -20q3 -10 5 -26q2 -39 2 -60v-3v-2v-2v-4 q0 -53 -10 -81q-6 -24 -23 -24q-28 0 -86 96q-42 69 -70 138q-7 19 -20 25q-13 5 -18 6q-23 -1 -148 -1q-10 0 -21 -4q-14 -4 -14 -18z" />
<glyph unicode="a" d="M50 0v1408h1408v-1408h-1408zM246 649q0 -59 8 -141q2 -26 8 -45q7 -33 16 -49q17 -32 50 -51q12 -6 29 -11q13 -2 38 -6q18 -3 95 -7q183 -5 266 -5q76 0 195 3q156 6 179 10q24 4 41 13q11 5 22 14t21 20q13 17 20 39q8 19 14 49q11 93 11 167v82q0 72 -10 164 q-7 33 -13 46q-9 31 -27 51q-14 14 -19 16q-13 10 -26 16q-11 5 -28 8q-21 4 -70 7q-155 7 -314 7q-80 0 -185 -3q-98 -2 -155 -7q-33 -2 -45 -5q-31 -5 -54 -23q-14 -11 -24 -23q-9 -13 -19 -38q-8 -19 -14 -52q-10 -92 -10 -164v-82zM648 559v284q4 -2 223 -116 q49 -25 50 -27l-45 -23q-2 -2 -228 -118z" />
<glyph unicode="b" d="M50 0v1408h1408v-1408h-1408zM278 438q0 -16 39 -33q29 -10 82 -19q10 0 16 -33q3 -30 19 -30q52 9 73 9q16 0 24 -2q38 0 96 -44q59 -45 121 -45h10q40 0 75 17q25 12 70 45q36 29 94 29h2q10 0 18 -1l55 -8q9 0 14 9q12 53 17 53q125 20 125 54q0 9 -12 12 q-49 7 -100 44q-26 19 -56 55q-49 67 -49 97q0 28 40 44q79 23 79 50q0 2 -2 9q-14 21 -39 21q-6 0 -11 -1q-32 -14 -50 -14q-12 0 -24 7q5 87 5 118q0 41 -5 69q-3 28 -32 74q-14 24 -52 56q-72 53 -154 53h-24q-44 0 -89 -16q-86 -33 -126 -105q-30 -42 -30 -125v-10 q0 -34 5 -114q-11 -7 -26 -7q-14 0 -29 4q-25 11 -32 11h-5q-34 -9 -34 -29q0 -22 47 -41q72 -18 72 -54q0 -19 -22 -57q-16 -30 -56 -72q-33 -31 -61 -45q-47 -21 -58 -21q-20 -1 -20 -13v-1z" />
<glyph unicode="c" d="M50 700v8q0 214 126 400q27 38 66 80q49 50 70 65q50 39 85 59q167 96 353 96h8q214 0 400 -126q38 -27 80 -66q50 -49 65 -70q39 -50 59 -85q96 -167 96 -353v-8q0 -214 -126 -400q-27 -38 -66 -80q-49 -50 -70 -65q-50 -39 -85 -59q-167 -96 -353 -96h-8 q-214 0 -400 126q-38 27 -80 66q-50 49 -65 70q-39 50 -59 85q-96 167 -96 353zM124 700q0 -166 86 -315q18 -32 53 -76q13 -20 58 -63q38 -35 71 -59q167 -113 358 -113h8q166 0 315 86q32 18 76 53q20 13 63 58q35 38 59 71q113 167 113 358v8q0 166 -86 315 q-18 32 -53 76q-13 20 -58 63q-38 35 -71 59q-167 113 -358 113h-8q-166 0 -315 -86q-32 -18 -76 -53q-20 -13 -63 -58q-35 -38 -59 -71q-113 -167 -113 -358v-8zM529 658h133v-395h1h158h1v395h133q1 7 20 154q0 1 -1 1h-152v86q0 36 3 45q0 3 6 15q9 15 29 22q13 5 49 5 h71v1v136v1q-55 6 -116 6h-4q-45 0 -83 -15q-58 -23 -86 -71q-29 -50 -29 -115v-116h-133v-1v-153v-1z" />
<glyph unicode="d" d="M50 700v8q0 214 126 400q27 38 66 80q49 50 70 65q50 39 85 59q167 96 353 96h8q214 0 400 -126q38 -27 80 -66q50 -49 65 -70q39 -50 59 -85q96 -167 96 -353v-8q0 -214 -126 -400q-27 -38 -66 -80q-49 -50 -70 -65q-50 -39 -85 -59q-167 -96 -353 -96h-8 q-214 0 -400 126q-38 27 -80 66q-50 49 -65 70q-39 50 -59 85q-96 167 -96 353zM124 700q0 -166 86 -315q18 -32 53 -76q13 -20 58 -63q38 -35 71 -59q167 -113 358 -113h8q166 0 315 86q32 18 76 53q20 13 63 58q35 38 59 71q113 167 113 358v8q0 166 -86 315 q-18 32 -53 76q-13 20 -58 63q-38 35 -71 59q-167 113 -358 113h-8q-166 0 -315 -86q-32 -18 -76 -53q-20 -13 -63 -58q-35 -38 -59 -71q-113 -167 -113 -358v-8zM346 390q50 -33 109 -53q81 -28 165 -28q136 0 251 63q37 20 80 57q41 37 56 57q36 44 60 90q17 31 32 72 q29 86 29 162v26v5q15 9 50 43q25 27 39 49h-1q-34 -14 -70 -23q-27 -4 -30 -4v1q11 4 37 29q30 35 40 68q-35 -21 -73 -33q-34 -10 -41 -10q-25 24 -38 30q-43 26 -91 26h-1q-71 0 -125 -51q-54 -55 -54 -126v-4q0 -16 5 -38h-1q-20 0 -77 9q-48 11 -86 26q-40 16 -86 45 q-35 22 -78 62q-22 23 -41 44q-23 -44 -23 -86v-7q0 -58 42 -112q21 -24 35 -32v-1q-36 0 -79 22v-5q0 -70 54 -125q34 -31 63 -40q19 -7 24 -7q0 -2 -20 -5q-12 -2 -18 -2h-4h-3h-3h-1q-13 0 -30 3q22 -62 73 -94q46 -29 93 -29q-26 -22 -50 -34q-83 -42 -164 -42h-12 q-18 0 -37 2z" />
<glyph unicode="e" d="M50 700v8q0 214 126 400q27 38 66 80q49 50 70 65q50 39 85 59q167 96 353 96h8q214 0 400 -126q38 -27 80 -66q50 -49 65 -70q39 -50 59 -85q96 -167 96 -353v-8q0 -214 -126 -400q-27 -38 -66 -80q-49 -50 -70 -65q-50 -39 -85 -59q-167 -96 -353 -96h-8 q-214 0 -400 126q-38 27 -80 66q-50 49 -65 70q-39 50 -59 85q-96 167 -96 353zM124 700q0 -166 86 -315q18 -32 53 -76q13 -20 58 -63q38 -35 71 -59q167 -113 358 -113h8q166 0 315 86q32 18 76 53q20 13 63 58q35 38 59 71q113 167 113 358v8q0 166 -86 315 q-18 32 -53 76q-13 20 -58 63q-38 35 -71 59q-167 113 -358 113h-8q-166 0 -315 -86q-32 -18 -76 -53q-20 -13 -63 -58q-35 -38 -59 -71q-113 -167 -113 -358v-8zM283 683v4q0 22 3 52q4 23 10 41q30 94 112 155q79 57 170 57h4h2h3h10q93 0 189 -74v-1q-18 -22 -66 -70 q-9 -8 -10 -9h-1q-62 42 -128 42q-62 0 -109 -38q-7 -5 -21 -18q-19 -21 -27 -36q-25 -45 -25 -98q0 -72 45 -125q16 -17 24 -23q49 -42 117 -42q64 0 117 39q21 19 28 29q13 18 18 31q9 24 9 30q-162 1 -172 2v102v1h198h90v-1q2 -21 2 -36v-5q0 -161 -109 -246 q-29 -20 -49 -29q-62 -28 -128 -28h-5q-85 0 -159 45q-87 56 -124 154q-18 48 -18 95zM974 648v85v1h86v86h1h85l1 -86h86v-1v-85q-69 -1 -86 -1q0 -58 -1 -86h-85h-1v8v78q-76 1 -86 1z" />
<glyph unicode="f" d="M50 700v8q0 214 126 400q27 38 66 80q49 50 70 65q50 39 85 59q167 96 353 96h8q214 0 400 -126q38 -27 80 -66q50 -49 65 -70q39 -50 59 -85q96 -167 96 -353v-8q0 -214 -126 -400q-27 -38 -66 -80q-49 -50 -70 -65q-50 -39 -85 -59q-167 -96 -353 -96h-8 q-214 0 -400 126q-38 27 -80 66q-50 49 -65 70q-39 50 -59 85q-96 167 -96 353zM124 700q0 -166 86 -315q18 -32 53 -76q13 -20 58 -63q38 -35 71 -59q167 -113 358 -113h8q166 0 315 86q32 18 76 53q20 13 63 58q35 38 59 71q113 167 113 358v8q0 166 -86 315 q-18 32 -53 76q-13 20 -58 63q-38 35 -71 59q-167 113 -358 113h-8q-166 0 -315 -86q-32 -18 -76 -53q-20 -13 -63 -58q-35 -38 -59 -71q-113 -167 -113 -358v-8zM402 481q0 -49 16 -75q5 -13 26 -36q41 -38 97 -38h435q58 0 100 41q39 39 39 103v424q0 53 -25 87 q-22 28 -45 39q-31 19 -67 19h-439q-62 0 -106 -51q-20 -23 -28 -59q-3 -12 -3 -41v-413zM471 469v292l1 1h104q1 0 1 -1q-14 -36 -14 -73q0 -83 65 -145q60 -50 126 -50h9q65 0 123 48q22 20 30 33q38 53 38 111v6q0 33 -14 71h105q1 0 1 -1v-294q0 -32 -33 -56 q-15 -10 -44 -10h-420q-32 0 -47 12q-3 0 -17 15q-14 19 -14 41zM633 688q0 48 36 88q39 38 86 38h7q50 0 91 -43q31 -36 31 -85q0 -45 -34 -84q-39 -39 -92 -39q-55 0 -95 44q-30 37 -30 81zM912 841v1v120h1q22 0 119 1l1 -1v-119q0 -1 -1 -1h-15q-33 0 -105 -1z" />
<glyph unicode="g" d="M50 700v8q0 214 126 400q27 38 66 80q49 50 70 65q50 39 85 59q167 96 353 96h8q214 0 400 -126q38 -27 80 -66q50 -49 65 -70q39 -50 59 -85q96 -167 96 -353v-8q0 -214 -126 -400q-27 -38 -66 -80q-49 -50 -70 -65q-50 -39 -85 -59q-167 -96 -353 -96h-8 q-214 0 -400 126q-38 27 -80 66q-50 49 -65 70q-39 50 -59 85q-96 167 -96 353zM124 700q0 -166 86 -315q18 -32 53 -76q13 -20 58 -63q38 -35 71 -59q167 -113 358 -113h8q166 0 315 86q32 18 76 53q20 13 63 58q35 38 59 71q113 167 113 358v8q0 166 -86 315 q-18 32 -53 76q-13 20 -58 63q-38 35 -71 59q-167 113 -358 113h-8q-166 0 -315 -86q-32 -18 -76 -53q-20 -13 -63 -58q-35 -38 -59 -71q-113 -167 -113 -358v-8zM446 787q0 -80 37 -132q10 -15 31 -32q27 -17 35 -17h3q4 0 8 2q6 5 7 14q11 39 11 45q0 4 -6 11 q-34 39 -34 96q0 81 48 143q13 17 34 35q64 50 148 50q86 0 140 -45q59 -52 59 -137q0 -84 -31 -153q-9 -21 -19 -36q-43 -61 -100 -61q-27 0 -49 16q-27 22 -27 55v3q0 15 15 64q28 88 28 120q0 21 -7 39q-19 31 -56 31q-35 0 -61 -30q-30 -38 -30 -90q0 -42 15 -75 l-56 -240q-12 -48 -12 -99v-9q0 -40 5 -86q0 -7 6 -9h1h3q2 4 14 20q28 38 45 68q13 27 26 59q12 43 34 139q5 -6 13 -16q13 -12 22 -17q39 -25 81 -25q2 1 3 1h1q40 0 80 15q69 27 114 95q57 92 57 212q0 46 -16 92q-35 84 -114 133q-75 46 -169 46q-123 0 -212 -63 q-15 -10 -41 -34q-24 -26 -33 -41q-51 -76 -51 -157z" />
<glyph unicode="h" d="M50 700v8q0 214 126 400q27 38 66 80q49 50 70 65q50 39 85 59q167 96 353 96h8q214 0 400 -126q38 -27 80 -66q50 -49 65 -70q39 -50 59 -85q96 -167 96 -353v-8q0 -214 -126 -400q-27 -38 -66 -80q-49 -50 -70 -65q-50 -39 -85 -59q-167 -96 -353 -96h-8 q-214 0 -400 126q-38 27 -80 66q-50 49 -65 70q-39 50 -59 85q-96 167 -96 353zM124 700q0 -166 86 -315q18 -32 53 -76q13 -20 58 -63q38 -35 71 -59q167 -113 358 -113h8q166 0 315 86q32 18 76 53q20 13 63 58q35 38 59 71q113 167 113 358v8q0 166 -86 315 q-18 32 -53 76q-13 20 -58 63q-38 35 -71 59q-167 113 -358 113h-8q-166 0 -315 -86q-32 -18 -76 -53q-20 -13 -63 -58q-35 -38 -59 -71q-113 -167 -113 -358v-8zM284 696q0 -81 51 -147q24 -29 41 -40q54 -37 115 -37h1q80 0 141 61q35 37 48 73q17 44 17 91q0 90 -60 159 q-24 24 -38 33q-52 33 -109 33q-79 0 -141 -61q-66 -70 -66 -165zM803 700q0 -91 65 -161q30 -27 50 -37q47 -23 93 -23h8q65 0 124 43q28 24 42 43q43 63 43 130v10q0 70 -47 134q-40 53 -108 74q-30 9 -57 9q-86 0 -152 -66q-61 -68 -61 -156z" />
<glyph unicode="i" d="M50 700v8q0 214 126 400q27 38 66 80q49 50 70 65q50 39 85 59q167 96 353 96h8q214 0 400 -126q38 -27 80 -66q50 -49 65 -70q39 -50 59 -85q96 -167 96 -353v-8q0 -214 -126 -400q-27 -38 -66 -80q-49 -50 -70 -65q-50 -39 -85 -59q-167 -96 -353 -96h-8 q-214 0 -400 126q-38 27 -80 66q-50 49 -65 70q-39 50 -59 85q-96 167 -96 353zM124 700q0 -166 86 -315q18 -32 53 -76q13 -20 58 -63q38 -35 71 -59q167 -113 358 -113h8q166 0 315 86q32 18 76 53q20 13 63 58q35 38 59 71q113 167 113 358v8q0 166 -86 315 q-18 32 -53 76q-13 20 -58 63q-38 35 -71 59q-167 113 -358 113h-8q-166 0 -315 -86q-32 -18 -76 -53q-20 -13 -63 -58q-35 -38 -59 -71q-113 -167 -113 -358v-8zM379 1009q0 -41 33 -70q27 -22 61 -22q43 0 72 36q19 25 19 57q0 47 -41 77q-25 15 -51 15q-42 0 -71 -33 q-22 -27 -22 -60zM392 331h161v515h-161v-515zM653 331h159v240q0 68 10 91q21 56 84 56h1h1h3h1q49 0 68 -45q9 -23 9 -33q2 -12 2 -76v-233h161v287q0 132 -46 186q-45 56 -148 56q-64 0 -114 -41q-20 -17 -25 -25q-7 -10 -11 -19h-1q-1 0 -1 1v70h-153v-515z" />
<glyph unicode="j" d="M50 700v8q0 214 126 400q27 38 66 80q49 50 70 65q50 39 85 59q167 96 353 96h8q214 0 400 -126q38 -27 80 -66q50 -49 65 -70q39 -50 59 -85q96 -167 96 -353v-8q0 -214 -126 -400q-27 -38 -66 -80q-49 -50 -70 -65q-50 -39 -85 -59q-167 -96 -353 -96h-8 q-214 0 -400 126q-38 27 -80 66q-50 49 -65 70q-39 50 -59 85q-96 167 -96 353zM124 700q0 -166 86 -315q18 -32 53 -76q13 -20 58 -63q38 -35 71 -59q167 -113 358 -113h8q166 0 315 86q32 18 76 53q20 13 63 58q35 38 59 71q113 167 113 358v8q0 166 -86 315 q-18 32 -53 76q-13 20 -58 63q-38 35 -71 59q-167 113 -358 113h-8q-166 0 -315 -86q-32 -18 -76 -53q-20 -13 -63 -58q-35 -38 -59 -71q-113 -167 -113 -358v-8zM475 793q0 -1 1 -1h91v-298q0 -43 17 -86q29 -78 98 -119q65 -40 152 -40h3q60 0 122 26q17 6 31 16l11 11 q-5 15 -44 131l-10 -4q-38 -12 -64 -12h-5q-38 0 -60 23q-23 24 -23 68v284h183v1v138h-183v233v1h-133q-4 0 -7 -6q-2 -26 -7 -43q-5 -23 -12 -45q-12 -30 -29 -56q-6 -13 -20 -27q-2 -4 -20 -22q-20 -17 -34 -26q-25 -16 -48 -26l-10 -3v-118z" />
<glyph unicode="k" d="M50 700v8q0 214 126 400q27 38 66 80q49 50 70 65q50 39 85 59q167 96 353 96h8q214 0 400 -126q38 -27 80 -66q50 -49 65 -70q39 -50 59 -85q96 -167 96 -353v-8q0 -214 -126 -400q-27 -38 -66 -80q-49 -50 -70 -65q-50 -39 -85 -59q-167 -96 -353 -96h-8 q-214 0 -400 126q-38 27 -80 66q-50 49 -65 70q-39 50 -59 85q-96 167 -96 353zM124 700q0 -166 86 -315q18 -32 53 -76q13 -20 58 -63q38 -35 71 -59q167 -113 358 -113h8q166 0 315 86q32 18 76 53q20 13 63 58q35 38 59 71q113 167 113 358v8q0 166 -86 315 q-18 32 -53 76q-13 20 -58 63q-38 35 -71 59q-167 113 -358 113h-8q-166 0 -315 -86q-32 -18 -76 -53q-20 -13 -63 -58q-35 -38 -59 -71q-113 -167 -113 -358v-8zM261 869q0 -4 2 -12q36 -81 77 -155q33 -62 71 -116q23 -35 56 -74q18 -21 42 -41q20 -17 37 -28 q28 -19 56 -30q58 -22 104 -22h59q4 0 14 4q12 4 15 13q3 3 4 14q0 36 9 61q4 9 8 15q11 13 22 13h2q17 0 49 -36q23 -27 40 -44q17 -16 24 -21q30 -21 56 -21h1q4 0 8 1l119 1q4 0 13 2q31 7 31 28v1q0 6 -3 13q-5 12 -14 24q-10 15 -39 50q-12 11 -32 32q-30 26 -35 33 q-28 26 -28 41v2q0 14 17 37q0 1 57 75q77 102 77 138q0 7 -3 11q-7 11 -33 11h-3h-10l-137 -1h-8t-6 -2q-10 -1 -17 -14q-9 -21 -17 -41q-17 -38 -31 -61q-65 -112 -94 -112q-4 0 -7 2q-17 11 -17 56v54q2 62 3 77q0 29 -6 39q-4 11 -17 18q-10 3 -12 3q-19 6 -76 6h-11 q-62 0 -85 -9q-6 -2 -16 -10q-11 -11 -11 -15v-2l1 -1q10 -2 16 -5q20 -6 28 -19q3 -8 6 -18q3 -8 5 -23q2 -34 2 -53v-3v-2v-4q0 -47 -10 -72q-5 -21 -20 -21q-24 0 -76 84q-37 62 -61 123q-7 17 -18 22q-12 4 -17 5q-20 -1 -130 -1q-9 0 -19 -4q-12 -3 -12 -16z" />
<glyph unicode="l" d="M50 700v8q0 214 126 400q27 38 66 80q49 50 70 65q50 39 85 59q167 96 353 96h8q214 0 400 -126q38 -27 80 -66q50 -49 65 -70q39 -50 59 -85q96 -167 96 -353v-8q0 -214 -126 -400q-27 -38 -66 -80q-49 -50 -70 -65q-50 -39 -85 -59q-167 -96 -353 -96h-8 q-214 0 -400 126q-38 27 -80 66q-50 49 -65 70q-39 50 -59 85q-96 167 -96 353zM124 700q0 -166 86 -315q18 -32 53 -76q13 -20 58 -63q38 -35 71 -59q167 -113 358 -113h8q166 0 315 86q32 18 76 53q20 13 63 58q35 38 59 71q113 167 113 358v8q0 166 -86 315 q-18 32 -53 76q-13 20 -58 63q-38 35 -71 59q-167 113 -358 113h-8q-166 0 -315 -86q-32 -18 -76 -53q-20 -13 -63 -58q-35 -38 -59 -71q-113 -167 -113 -358v-8zM311 655q0 -52 7 -124q1 -23 7 -40q7 -29 14 -44q15 -28 45 -45q10 -4 24 -9q13 -2 35 -6q15 -3 84 -5 q161 -5 235 -5q66 0 172 3q138 4 158 8q21 4 36 12q10 4 19 12q10 8 19 18q11 14 19 34q6 18 11 44q9 82 9 147v73q0 63 -8 144q-6 29 -11 41q-9 28 -24 45q-13 13 -18 14q-10 9 -22 14q-10 5 -25 8q-18 4 -62 6q-136 6 -277 6q-71 0 -163 -3q-87 -2 -138 -5q-29 -2 -39 -5 q-27 -5 -48 -21q-12 -9 -22 -20q-7 -11 -15 -33q-7 -18 -14 -47q-8 -81 -8 -144v-73zM665 576v251q5 -2 198 -103q43 -23 44 -24l-40 -19q-2 -2 -202 -105z" />
<glyph unicode="m" d="M50 700v8q0 214 126 400q27 38 66 80q49 50 70 65q50 39 85 59q167 96 353 96h8q214 0 400 -126q38 -27 80 -66q50 -49 65 -70q39 -50 59 -85q96 -167 96 -353v-8q0 -214 -126 -400q-27 -38 -66 -80q-49 -50 -70 -65q-50 -39 -85 -59q-167 -96 -353 -96h-8 q-214 0 -400 126q-38 27 -80 66q-50 49 -65 70q-39 50 -59 85q-96 167 -96 353zM124 700q0 -166 86 -315q18 -32 53 -76q13 -20 58 -63q38 -35 71 -59q167 -113 358 -113h8q166 0 315 86q32 18 76 53q20 13 63 58q35 38 59 71q113 167 113 358v8q0 166 -86 315 q-18 32 -53 76q-13 20 -58 63q-38 35 -71 59q-167 113 -358 113h-8q-166 0 -315 -86q-32 -18 -76 -53q-20 -13 -63 -58q-35 -38 -59 -71q-113 -167 -113 -358v-8zM317 470v1q0 11 18 12q11 0 54 19q26 13 56 42q37 38 51 66q21 35 21 53q0 33 -67 49q-43 18 -43 38 q0 18 31 27h5q6 0 29 -11q14 -3 27 -3q14 0 24 6q-5 74 -5 105v9q0 77 28 115q37 67 116 97q41 15 82 15h22q75 0 142 -49q35 -30 47 -52q27 -42 30 -68q5 -25 5 -63q0 -29 -5 -109q11 -6 22 -6q17 0 46 13q5 1 10 1q23 0 36 -20q2 -6 2 -8q0 -25 -73 -46q-37 -15 -37 -40 q0 -28 45 -90q28 -33 52 -50q47 -34 92 -41q11 -3 11 -11q0 -31 -115 -50q-5 0 -16 -48q-4 -9 -13 -9l-50 8q-7 1 -17 1h-2q-53 0 -86 -27q-41 -30 -64 -41q-33 -16 -69 -16h-10q-57 0 -111 41q-53 41 -88 41q-8 2 -22 2q-20 0 -67 -9q-15 0 -18 28q-5 30 -15 30 q-48 9 -75 18q-36 16 -36 30z" />
<glyph unicode="n" d="M50 704q54 94 149 149q-55 97 -55 203q97 55 203 55v4q0 101 55 199q106 0 203 -55q54 94 148 149h1q14 -6 48 -32q18 -13 50 -46q24 -28 37 -47l14 -23h1q97 54 202 54q55 -97 55 -203h4q99 0 196 -53q3 -2 3 -3q0 -104 -54 -202v-1q92 -53 148 -147v-1q-6 -14 -32 -48 q-13 -18 -46 -50q-28 -24 -47 -37l-23 -14v-1q54 -96 54 -202q-98 -55 -203 -55v-4q0 -99 -53 -196q-2 -3 -3 -3q-104 0 -202 54h-1q-53 -92 -147 -148h-1q-14 7 -46 31q-17 12 -52 48q-21 24 -26 32q-8 10 -25 37h-1q-96 -54 -202 -54q-55 97 -55 203h-6q-89 0 -181 46 l-16 9q0 106 55 203q-30 17 -64 45q-31 29 -40 41q-28 33 -42 57q-3 5 -3 6zM144 704q0 -1 3 -5q12 -21 36 -49q8 -11 35 -37q29 -23 55 -38q-47 -84 -47 -176l13 -8q80 -39 157 -39h6q0 -93 47 -176q92 0 175 46h1q15 -23 22 -32q4 -6 22 -27q31 -32 45 -42q28 -21 40 -27 h1q82 48 127 128h1q85 -46 175 -46q1 0 3 2q45 84 45 170v4q92 0 176 47q0 92 -46 175v1l20 12q17 12 40 32q29 28 40 44q23 29 28 41v1q-48 82 -128 127v1q46 85 46 175q0 1 -2 3q-84 45 -170 45h-4q0 93 -47 176q-91 0 -175 -46h-1l-12 20q-12 17 -32 40q-28 29 -44 40 q-29 23 -41 28h-1q-82 -47 -128 -129q-84 47 -176 47q-47 -84 -47 -172v-4q-93 0 -176 -47q0 -91 47 -176q-82 -47 -129 -129zM548 653h124v-367h148v367h123q1 6 19 143h-142v81q0 33 3 41q0 3 6 14q8 14 27 21q12 4 45 4h66v1v127q-51 6 -107 6h-4q-43 0 -78 -13 q-53 -22 -80 -67q-26 -46 -26 -106v-109h-124v-143z" />
<glyph unicode="o" d="M50 704q54 94 149 149q-55 97 -55 203q97 55 203 55v4q0 101 55 199q106 0 203 -55q54 94 148 149h1q14 -6 48 -32q18 -13 50 -46q24 -28 37 -47l14 -23h1q97 54 202 54q55 -97 55 -203h4q99 0 196 -53q3 -2 3 -3q0 -104 -54 -202v-1q92 -53 148 -147v-1q-6 -14 -32 -48 q-13 -18 -46 -50q-28 -24 -47 -37l-23 -14v-1q54 -96 54 -202q-98 -55 -203 -55v-4q0 -99 -53 -196q-2 -3 -3 -3q-104 0 -202 54h-1q-53 -92 -147 -148h-1q-14 7 -46 31q-17 12 -52 48q-21 24 -26 32q-8 10 -25 37h-1q-96 -54 -202 -54q-55 97 -55 203h-6q-89 0 -181 46 l-16 9q0 106 55 203q-30 17 -64 45q-31 29 -40 41q-28 33 -42 57q-3 5 -3 6zM144 704q0 -1 3 -5q12 -21 36 -49q8 -11 35 -37q29 -23 55 -38q-47 -84 -47 -176l13 -8q80 -39 157 -39h6q0 -93 47 -176q92 0 175 46h1q15 -23 22 -32q4 -6 22 -27q31 -32 45 -42q28 -21 40 -27 h1q82 48 127 128h1q85 -46 175 -46q1 0 3 2q45 84 45 170v4q92 0 176 47q0 92 -46 175v1l20 12q17 12 40 32q29 28 40 44q23 29 28 41v1q-48 82 -128 127v1q46 85 46 175q0 1 -2 3q-84 45 -170 45h-4q0 93 -47 176q-91 0 -175 -46h-1l-12 20q-12 17 -32 40q-28 29 -44 40 q-29 23 -41 28h-1q-82 -47 -128 -129q-84 47 -176 47q-47 -84 -47 -172v-4q-93 0 -176 -47q0 -91 47 -176q-82 -47 -129 -129zM386 440q44 -29 95 -46q72 -25 146 -25q120 0 221 55q32 19 70 50q36 33 49 51q31 39 53 79q15 27 28 63q26 76 26 143v22v5q13 8 44 38 q21 23 34 42h-1q-30 -12 -61 -20q-25 -3 -27 -3v1q10 3 33 25q26 31 35 60q-31 -18 -65 -29q-30 -9 -35 -9q-23 22 -34 26q-38 23 -80 23h-1q-62 0 -110 -45q-47 -48 -47 -110v-4q0 -14 4 -33h-1q-17 0 -68 8q-42 10 -75 23q-35 14 -76 39q-30 20 -68 55q-20 20 -36 39 q-21 -39 -21 -76v-6q0 -52 37 -98q20 -22 32 -28v-1q-33 0 -70 19v-4q0 -63 47 -111q30 -27 55 -35q18 -6 22 -6q0 -2 -17 -4q-11 -2 -17 -2h-4h-1h-3h-1q-11 0 -26 2q18 -54 64 -83q40 -25 81 -25q-22 -20 -44 -30q-72 -37 -144 -37h-11q-15 0 -32 2z" />
<glyph unicode="p" d="M50 704q54 94 149 149q-55 97 -55 203q97 55 203 55v4q0 101 55 199q106 0 203 -55q54 94 148 149h1q14 -6 48 -32q18 -13 50 -46q24 -28 37 -47l14 -23h1q97 54 202 54q55 -97 55 -203h4q99 0 196 -53q3 -2 3 -3q0 -104 -54 -202v-1q92 -53 148 -147v-1q-6 -14 -32 -48 q-13 -18 -46 -50q-28 -24 -47 -37l-23 -14v-1q54 -96 54 -202q-98 -55 -203 -55v-4q0 -99 -53 -196q-2 -3 -3 -3q-104 0 -202 54h-1q-53 -92 -147 -148h-1q-14 7 -46 31q-17 12 -52 48q-21 24 -26 32q-8 10 -25 37h-1q-96 -54 -202 -54q-55 97 -55 203h-6q-89 0 -181 46 l-16 9q0 106 55 203q-30 17 -64 45q-31 29 -40 41q-28 33 -42 57q-3 5 -3 6zM144 704q0 -1 3 -5q12 -21 36 -49q8 -11 35 -37q29 -23 55 -38q-47 -84 -47 -176l13 -8q80 -39 157 -39h6q0 -93 47 -176q92 0 175 46h1q15 -23 22 -32q4 -6 22 -27q31 -32 45 -42q28 -21 40 -27 h1q82 48 127 128h1q85 -46 175 -46q1 0 3 2q45 84 45 170v4q92 0 176 47q0 92 -46 175v1l20 12q17 12 40 32q29 28 40 44q23 29 28 41v1q-48 82 -128 127v1q46 85 46 175q0 1 -2 3q-84 45 -170 45h-4q0 93 -47 176q-91 0 -175 -46h-1l-12 20q-12 17 -32 40q-28 29 -44 40 q-29 23 -41 28h-1q-82 -47 -128 -129q-84 47 -176 47q-47 -84 -47 -172v-4q-93 0 -176 -47q0 -91 47 -176q-82 -47 -129 -129zM334 687v4q0 20 3 46q3 21 9 37q27 84 100 139q71 51 152 51h4h2h2h9q83 0 169 -66v-1q-16 -20 -59 -63q-8 -7 -9 -8h-1q-55 38 -114 38 q-56 0 -98 -34q-6 -5 -19 -16q-17 -19 -24 -33q-22 -40 -22 -87q0 -65 40 -112q15 -16 22 -21q44 -38 104 -38q58 0 105 35q19 17 25 26q12 16 16 28q8 22 8 27q-145 1 -154 2v91v1h178h80v-1q2 -19 2 -32v-5q0 -144 -97 -220q-26 -18 -44 -26q-56 -25 -115 -25h-4 q-77 0 -143 40q-78 50 -111 138q-16 43 -16 85zM953 656v76v1h77v77h1h76l1 -77h77v-1v-76q-62 -1 -77 -1q0 -52 -1 -77h-76h-1v7v70q-68 1 -77 1z" />
<glyph unicode="q" d="M50 704q54 94 149 149q-55 97 -55 203q97 55 203 55v4q0 101 55 199q106 0 203 -55q54 94 148 149h1q14 -6 48 -32q18 -13 50 -46q24 -28 37 -47l14 -23h1q97 54 202 54q55 -97 55 -203h4q99 0 196 -53q3 -2 3 -3q0 -104 -54 -202v-1q92 -53 148 -147v-1q-6 -14 -32 -48 q-13 -18 -46 -50q-28 -24 -47 -37l-23 -14v-1q54 -96 54 -202q-98 -55 -203 -55v-4q0 -99 -53 -196q-2 -3 -3 -3q-104 0 -202 54h-1q-53 -92 -147 -148h-1q-14 7 -46 31q-17 12 -52 48q-21 24 -26 32q-8 10 -25 37h-1q-96 -54 -202 -54q-55 97 -55 203h-6q-89 0 -181 46 l-16 9q0 106 55 203q-30 17 -64 45q-31 29 -40 41q-28 33 -42 57q-3 5 -3 6zM144 704q0 -1 3 -5q12 -21 36 -49q8 -11 35 -37q29 -23 55 -38q-47 -84 -47 -176l13 -8q80 -39 157 -39h6q0 -93 47 -176q92 0 175 46h1q15 -23 22 -32q4 -6 22 -27q31 -32 45 -42q28 -21 40 -27 h1q82 48 127 128h1q85 -46 175 -46q1 0 3 2q45 84 45 170v4q92 0 176 47q0 92 -46 175v1l20 12q17 12 40 32q29 28 40 44q23 29 28 41v1q-48 82 -128 127v1q46 85 46 175q0 1 -2 3q-84 45 -170 45h-4q0 93 -47 176q-91 0 -175 -46h-1l-12 20q-12 17 -32 40q-28 29 -44 40 q-29 23 -41 28h-1q-82 -47 -128 -129q-84 47 -176 47q-47 -84 -47 -172v-4q-93 0 -176 -47q0 -91 47 -176q-82 -47 -129 -129zM429 508q0 -44 14 -67q5 -12 24 -32q37 -35 88 -35h393q53 0 90 37q36 35 36 94v382q0 48 -23 79q-19 26 -40 36q-28 17 -61 17h-397 q-56 0 -96 -46q-18 -21 -25 -54q-3 -10 -3 -36v-375zM491 498v263l1 1h95q1 0 1 -1q-13 -32 -13 -64q0 -76 59 -132q54 -45 114 -45h7q59 0 111 43q21 19 28 30q34 48 34 101v4q0 31 -13 64h96q1 0 1 -1v-265q0 -29 -30 -51q-13 -9 -41 -9h-378q-31 0 -44 11q-3 0 -15 14 q-13 16 -13 37zM638 697q0 43 32 78q35 35 79 35h5q46 0 83 -39q28 -33 28 -76q0 -41 -31 -77q-35 -35 -82 -35q-50 0 -87 40q-27 33 -27 74zM891 835v1v108q20 0 108 1l1 -1v-108h-1h-13q-30 0 -95 -1z" />
<glyph unicode="r" d="M50 704q54 94 149 149q-55 97 -55 203q97 55 203 55v4q0 101 55 199q106 0 203 -55q54 94 148 149h1q14 -6 48 -32q18 -13 50 -46q24 -28 37 -47l14 -23h1q97 54 202 54q55 -97 55 -203h4q99 0 196 -53q3 -2 3 -3q0 -104 -54 -202v-1q92 -53 148 -147v-1q-6 -14 -32 -48 q-13 -18 -46 -50q-28 -24 -47 -37l-23 -14v-1q54 -96 54 -202q-98 -55 -203 -55v-4q0 -99 -53 -196q-2 -3 -3 -3q-104 0 -202 54h-1q-53 -92 -147 -148h-1q-14 7 -46 31q-17 12 -52 48q-21 24 -26 32q-8 10 -25 37h-1q-96 -54 -202 -54q-55 97 -55 203h-6q-89 0 -181 46 l-16 9q0 106 55 203q-30 17 -64 45q-31 29 -40 41q-28 33 -42 57q-3 5 -3 6zM144 704q0 -1 3 -5q12 -21 36 -49q8 -11 35 -37q29 -23 55 -38q-47 -84 -47 -176l13 -8q80 -39 157 -39h6q0 -93 47 -176q92 0 175 46h1q15 -23 22 -32q4 -6 22 -27q31 -32 45 -42q28 -21 40 -27 h1q82 48 127 128h1q85 -46 175 -46q1 0 3 2q45 84 45 170v4q92 0 176 47q0 92 -46 175v1l20 12q17 12 40 32q29 28 40 44q23 29 28 41v1q-48 82 -128 127v1q46 85 46 175q0 1 -2 3q-84 45 -170 45h-4q0 93 -47 176q-91 0 -175 -46h-1l-12 20q-12 17 -32 40q-28 29 -44 40 q-29 23 -41 28h-1q-82 -47 -128 -129q-84 47 -176 47q-47 -84 -47 -172v-4q-93 0 -176 -47q0 -91 47 -176q-82 -47 -129 -129zM459 787q0 -75 35 -124q8 -14 28 -29q25 -17 33 -17h2q4 0 8 3q5 3 6 12q11 37 11 43q0 3 -5 10q-32 36 -32 89q0 76 44 133q13 17 32 33 q60 46 138 46q81 0 131 -40q55 -49 55 -128q0 -78 -28 -143q-9 -20 -18 -34q-40 -57 -94 -57q-25 0 -46 15q-25 21 -25 51v3q0 14 14 60q27 82 27 111q0 21 -8 37q-17 30 -51 30q-33 0 -58 -29q-28 -35 -28 -84q0 -38 14 -70l-52 -224q-12 -45 -12 -93v-8q0 -37 6 -80 q0 -7 5 -8h1h2q3 3 15 18q25 36 40 64q13 24 25 55q11 39 33 130q4 -6 11 -15q13 -12 21 -17q37 -23 75 -23q2 1 3 1h1q37 0 76 14q63 26 106 90q52 84 52 197q0 43 -15 85q-32 80 -106 126q-71 42 -158 42q-115 0 -198 -59q-14 -9 -38 -32q-22 -24 -31 -38 q-47 -71 -47 -146z" />
<glyph unicode="s" d="M50 704q54 94 149 149q-55 97 -55 203q97 55 203 55v4q0 101 55 199q106 0 203 -55q54 94 148 149h1q14 -6 48 -32q18 -13 50 -46q24 -28 37 -47l14 -23h1q97 54 202 54q55 -97 55 -203h4q99 0 196 -53q3 -2 3 -3q0 -104 -54 -202v-1q92 -53 148 -147v-1q-6 -14 -32 -48 q-13 -18 -46 -50q-28 -24 -47 -37l-23 -14v-1q54 -96 54 -202q-98 -55 -203 -55v-4q0 -99 -53 -196q-2 -3 -3 -3q-104 0 -202 54h-1q-53 -92 -147 -148h-1q-14 7 -46 31q-17 12 -52 48q-21 24 -26 32q-8 10 -25 37h-1q-96 -54 -202 -54q-55 97 -55 203h-6q-89 0 -181 46 l-16 9q0 106 55 203q-30 17 -64 45q-31 29 -40 41q-28 33 -42 57q-3 5 -3 6zM144 704q0 -1 3 -5q12 -21 36 -49q8 -11 35 -37q29 -23 55 -38q-47 -84 -47 -176l13 -8q80 -39 157 -39h6q0 -93 47 -176q92 0 175 46h1q15 -23 22 -32q4 -6 22 -27q31 -32 45 -42q28 -21 40 -27 h1q82 48 127 128h1q85 -46 175 -46q1 0 3 2q45 84 45 170v4q92 0 176 47q0 92 -46 175v1l20 12q17 12 40 32q29 28 40 44q23 29 28 41v1q-48 82 -128 127v1q46 85 46 175q0 1 -2 3q-84 45 -170 45h-4q0 93 -47 176q-91 0 -175 -46h-1l-12 20q-12 17 -32 40q-28 29 -44 40 q-29 23 -41 28h-1q-82 -47 -128 -129q-84 47 -176 47q-47 -84 -47 -172v-4q-93 0 -176 -47q0 -91 47 -176q-82 -47 -129 -129zM360 704q0 -70 44 -126q20 -24 34 -34q46 -31 97 -31h1q68 0 120 52q29 30 40 62q15 37 15 77q0 75 -52 134q-19 21 -32 29q-43 27 -92 27 q-66 0 -119 -51q-56 -60 -56 -139zM800 706q0 -77 55 -136q24 -23 42 -31q40 -20 79 -20h8q54 0 104 37q24 20 36 36q36 54 36 110v8q0 59 -40 114q-33 44 -91 63q-26 7 -49 7q-72 0 -128 -56q-52 -58 -52 -132z" />
<glyph unicode="t" d="M50 704q54 94 149 149q-55 97 -55 203q97 55 203 55v4q0 101 55 199q106 0 203 -55q54 94 148 149h1q14 -6 48 -32q18 -13 50 -46q24 -28 37 -47l14 -23h1q97 54 202 54q55 -97 55 -203h4q99 0 196 -53q3 -2 3 -3q0 -104 -54 -202v-1q92 -53 148 -147v-1q-6 -14 -32 -48 q-13 -18 -46 -50q-28 -24 -47 -37l-23 -14v-1q54 -96 54 -202q-98 -55 -203 -55v-4q0 -99 -53 -196q-2 -3 -3 -3q-104 0 -202 54h-1q-53 -92 -147 -148h-1q-14 7 -46 31q-17 12 -52 48q-21 24 -26 32q-8 10 -25 37h-1q-96 -54 -202 -54q-55 97 -55 203h-6q-89 0 -181 46 l-16 9q0 106 55 203q-30 17 -64 45q-31 29 -40 41q-28 33 -42 57q-3 5 -3 6zM144 704q0 -1 3 -5q12 -21 36 -49q8 -11 35 -37q29 -23 55 -38q-47 -84 -47 -176l13 -8q80 -39 157 -39h6q0 -93 47 -176q92 0 175 46h1q15 -23 22 -32q4 -6 22 -27q31 -32 45 -42q28 -21 40 -27 h1q82 48 127 128h1q85 -46 175 -46q1 0 3 2q45 84 45 170v4q92 0 176 47q0 92 -46 175v1l20 12q17 12 40 32q29 28 40 44q23 29 28 41v1q-48 82 -128 127v1q46 85 46 175q0 1 -2 3q-84 45 -170 45h-4q0 93 -47 176q-91 0 -175 -46h-1l-12 20q-12 17 -32 40q-28 29 -44 40 q-29 23 -41 28h-1q-82 -47 -128 -129q-84 47 -176 47q-47 -84 -47 -172v-4q-93 0 -176 -47q0 -91 47 -176q-82 -47 -129 -129zM437 950q0 -35 27 -59q23 -18 51 -18q35 0 60 30q16 20 16 47q0 39 -34 64q-21 13 -43 13q-34 0 -59 -28q-18 -22 -18 -49zM448 386h133v428h-133 v-428zM664 386h133v199q0 56 8 76q17 46 70 46h1h2h2q40 0 56 -36q8 -20 8 -28q1 -10 1 -64v-193h134v239q0 109 -38 153q-37 47 -123 47q-53 0 -95 -33q-16 -15 -20 -22q-6 -8 -10 -14h-1v58h-128v-428z" />
<glyph unicode="u" d="M50 704q54 94 149 149q-55 97 -55 203q97 55 203 55v4q0 101 55 199q106 0 203 -55q54 94 148 149h1q14 -6 48 -32q18 -13 50 -46q24 -28 37 -47l14 -23h1q97 54 202 54q55 -97 55 -203h4q99 0 196 -53q3 -2 3 -3q0 -104 -54 -202v-1q92 -53 148 -147v-1q-6 -14 -32 -48 q-13 -18 -46 -50q-28 -24 -47 -37l-23 -14v-1q54 -96 54 -202q-98 -55 -203 -55v-4q0 -99 -53 -196q-2 -3 -3 -3q-104 0 -202 54h-1q-53 -92 -147 -148h-1q-14 7 -46 31q-17 12 -52 48q-21 24 -26 32q-8 10 -25 37h-1q-96 -54 -202 -54q-55 97 -55 203h-6q-89 0 -181 46 l-16 9q0 106 55 203q-30 17 -64 45q-31 29 -40 41q-28 33 -42 57q-3 5 -3 6zM144 704q0 -1 3 -5q12 -21 36 -49q8 -11 35 -37q29 -23 55 -38q-47 -84 -47 -176l13 -8q80 -39 157 -39h6q0 -93 47 -176q92 0 175 46h1q15 -23 22 -32q4 -6 22 -27q31 -32 45 -42q28 -21 40 -27 h1q82 48 127 128h1q85 -46 175 -46q1 0 3 2q45 84 45 170v4q92 0 176 47q0 92 -46 175v1l20 12q17 12 40 32q29 28 40 44q23 29 28 41v1q-48 82 -128 127v1q46 85 46 175q0 1 -2 3q-84 45 -170 45h-4q0 93 -47 176q-91 0 -175 -46h-1l-12 20q-12 17 -32 40q-28 29 -44 40 q-29 23 -41 28h-1q-82 -47 -128 -129q-84 47 -176 47q-47 -84 -47 -172v-4q-93 0 -176 -47q0 -91 47 -176q-82 -47 -129 -129zM527 765q0 -1 1 -1h74v-242q0 -35 13 -70q25 -64 81 -98q53 -32 123 -32h2q50 0 100 21q14 6 25 13q3 3 9 10q-4 11 -36 106l-9 -3 q-30 -10 -51 -10h-4q-31 0 -49 18q-19 20 -19 56v231h150v1v112h-150v189v1h-109q-2 0 -4 -4q-2 -21 -6 -35q-4 -20 -10 -37q-10 -25 -24 -46q-5 -10 -15 -22q-3 -3 -17 -18q-15 -13 -28 -21q-20 -13 -39 -20l-8 -3v-96z" />
<glyph unicode="v" d="M50 704q54 94 149 149q-55 97 -55 203q97 55 203 55v4q0 101 55 199q106 0 203 -55q54 94 148 149h1q14 -6 48 -32q18 -13 50 -46q24 -28 37 -47l14 -23h1q97 54 202 54q55 -97 55 -203h4q99 0 196 -53q3 -2 3 -3q0 -104 -54 -202v-1q92 -53 148 -147v-1q-6 -14 -32 -48 q-13 -18 -46 -50q-28 -24 -47 -37l-23 -14v-1q54 -96 54 -202q-98 -55 -203 -55v-4q0 -99 -53 -196q-2 -3 -3 -3q-104 0 -202 54h-1q-53 -92 -147 -148h-1q-14 7 -46 31q-17 12 -52 48q-21 24 -26 32q-8 10 -25 37h-1q-96 -54 -202 -54q-55 97 -55 203h-6q-89 0 -181 46 l-16 9q0 106 55 203q-30 17 -64 45q-31 29 -40 41q-28 33 -42 57q-3 5 -3 6zM144 704q0 -1 3 -5q12 -21 36 -49q8 -11 35 -37q29 -23 55 -38q-47 -84 -47 -176l13 -8q80 -39 157 -39h6q0 -93 47 -176q92 0 175 46h1q15 -23 22 -32q4 -6 22 -27q31 -32 45 -42q28 -21 40 -27 h1q82 48 127 128h1q85 -46 175 -46q1 0 3 2q45 84 45 170v4q92 0 176 47q0 92 -46 175v1l20 12q17 12 40 32q29 28 40 44q23 29 28 41v1q-48 82 -128 127v1q46 85 46 175q0 1 -2 3q-84 45 -170 45h-4q0 93 -47 176q-91 0 -175 -46h-1l-12 20q-12 17 -32 40q-28 29 -44 40 q-29 23 -41 28h-1q-82 -47 -128 -129q-84 47 -176 47q-47 -84 -47 -172v-4q-93 0 -176 -47q0 -91 47 -176q-82 -47 -129 -129zM343 885q0 -4 2 -11q31 -71 66 -136q30 -53 63 -101q20 -30 49 -64q16 -19 36 -37q18 -15 32 -24q25 -17 50 -26q50 -19 92 -19h50q4 0 13 4 q10 3 13 11q3 2 4 13q0 30 7 52q3 8 7 14q9 11 19 11h2q16 0 43 -31q21 -24 36 -40q13 -14 20 -18q27 -18 49 -18h1q3 0 6 1l105 1q3 0 12 1q26 7 26 25v2q0 4 -2 10q-5 10 -12 22q-9 13 -36 42q-9 11 -27 29q-25 23 -31 29q-24 22 -24 36v1q0 12 15 33q0 1 50 65 q67 90 67 121q0 6 -2 10q-6 9 -29 9h-3h-9h-120h-6q-3 0 -6 -2q-8 -2 -14 -12q-8 -19 -15 -36q-15 -33 -27 -55q-58 -97 -83 -97q-3 0 -5 1q-15 11 -15 49v1v46q1 56 2 69q0 25 -5 34q-4 9 -15 15q-9 2 -11 2q-16 6 -65 6h-10q-55 0 -75 -8q-5 -2 -14 -9q-9 -9 -9 -13v-1v-1 q9 -2 14 -4q18 -6 25 -18q3 -6 5 -14q3 -9 4 -21q2 -30 2 -46v-3v-1v-1v-4q0 -41 -8 -62q-4 -18 -18 -18q-21 0 -67 73q-32 54 -53 107q-6 14 -16 19q-10 4 -14 5q-17 -1 -114 -1q-8 0 -16 -3q-11 -3 -11 -14z" />
<glyph unicode="w" d="M50 704q54 94 149 149q-55 97 -55 203q97 55 203 55v4q0 101 55 199q106 0 203 -55q54 94 148 149h1q14 -6 48 -32q18 -13 50 -46q24 -28 37 -47l14 -23h1q97 54 202 54q55 -97 55 -203h4q99 0 196 -53q3 -2 3 -3q0 -104 -54 -202v-1q92 -53 148 -147v-1q-6 -14 -32 -48 q-13 -18 -46 -50q-28 -24 -47 -37l-23 -14v-1q54 -96 54 -202q-98 -55 -203 -55v-4q0 -99 -53 -196q-2 -3 -3 -3q-104 0 -202 54h-1q-53 -92 -147 -148h-1q-14 7 -46 31q-17 12 -52 48q-21 24 -26 32q-8 10 -25 37h-1q-96 -54 -202 -54q-55 97 -55 203h-6q-89 0 -181 46 l-16 9q0 106 55 203q-30 17 -64 45q-31 29 -40 41q-28 33 -42 57q-3 5 -3 6zM144 704q0 -1 3 -5q12 -21 36 -49q8 -11 35 -37q29 -23 55 -38q-47 -84 -47 -176l13 -8q80 -39 157 -39h6q0 -93 47 -176q92 0 175 46h1q15 -23 22 -32q4 -6 22 -27q31 -32 45 -42q28 -21 40 -27 h1q82 48 127 128h1q85 -46 175 -46q1 0 3 2q45 84 45 170v4q92 0 176 47q0 92 -46 175v1l20 12q17 12 40 32q29 28 40 44q23 29 28 41v1q-48 82 -128 127v1q46 85 46 175q0 1 -2 3q-84 45 -170 45h-4q0 93 -47 176q-91 0 -175 -46h-1l-12 20q-12 17 -32 40q-28 29 -44 40 q-29 23 -41 28h-1q-82 -47 -128 -129q-84 47 -176 47q-47 -84 -47 -172v-4q-93 0 -176 -47q0 -91 47 -176q-82 -47 -129 -129zM383 665q0 -44 5 -103q2 -19 6 -34q6 -23 14 -36q9 -24 36 -36q8 -5 20 -8q10 -3 28 -6q14 -2 70 -4q133 -4 194 -4q55 0 142 2q114 4 131 8 q17 3 30 9q7 4 16 9q8 6 15 16q9 12 14 29q7 13 10 36q9 67 9 122v58q0 54 -8 120q-4 25 -9 35q-7 22 -20 37q-10 11 -13 12q-9 6 -20 11q-8 3 -20 6q-16 3 -52 5q-112 5 -228 5q-59 0 -136 -2q-71 -2 -113 -5q-24 -1 -33 -4q-22 -4 -39 -16q-10 -8 -18 -17q-6 -10 -13 -29 q-5 -13 -11 -38q-7 -67 -7 -120v-58zM676 598v208q4 -2 163 -85q37 -18 38 -19l-34 -18q-2 0 -167 -86z" />
<glyph unicode="x" d="M50 704q54 94 149 149q-55 97 -55 203q97 55 203 55v4q0 101 55 199q106 0 203 -55q54 94 148 149h1q14 -6 48 -32q18 -13 50 -46q24 -28 37 -47l14 -23h1q97 54 202 54q55 -97 55 -203h4q99 0 196 -53q3 -2 3 -3q0 -104 -54 -202v-1q92 -53 148 -147v-1q-6 -14 -32 -48 q-13 -18 -46 -50q-28 -24 -47 -37l-23 -14v-1q54 -96 54 -202q-98 -55 -203 -55v-4q0 -99 -53 -196q-2 -3 -3 -3q-104 0 -202 54h-1q-53 -92 -147 -148h-1q-14 7 -46 31q-17 12 -52 48q-21 24 -26 32q-8 10 -25 37h-1q-96 -54 -202 -54q-55 97 -55 203h-6q-89 0 -181 46 l-16 9q0 106 55 203q-30 17 -64 45q-31 29 -40 41q-28 33 -42 57q-3 5 -3 6zM144 704q0 -1 3 -5q12 -21 36 -49q8 -11 35 -37q29 -23 55 -38q-47 -84 -47 -176l13 -8q80 -39 157 -39h6q0 -93 47 -176q92 0 175 46h1q15 -23 22 -32q4 -6 22 -27q31 -32 45 -42q28 -21 40 -27 h1q82 48 127 128h1q85 -46 175 -46q1 0 3 2q45 84 45 170v4q92 0 176 47q0 92 -46 175v1l20 12q17 12 40 32q29 28 40 44q23 29 28 41v1q-48 82 -128 127v1q46 85 46 175q0 1 -2 3q-84 45 -170 45h-4q0 93 -47 176q-91 0 -175 -46h-1l-12 20q-12 17 -32 40q-28 29 -44 40 q-29 23 -41 28h-1q-82 -47 -128 -129q-84 47 -176 47q-47 -84 -47 -172v-4q-93 0 -176 -47q0 -91 47 -176q-82 -47 -129 -129zM348 484v1q0 10 17 11q10 0 50 18q25 12 53 39q35 36 48 62q19 33 19 49q0 32 -62 47q-40 16 -40 35q0 18 29 26h4q6 0 28 -10q13 -3 25 -3 q13 0 22 6q-4 69 -4 98v9q0 71 26 108q34 62 109 90q39 14 77 14h20q71 0 133 -46q33 -27 45 -48q25 -40 28 -64q4 -24 4 -60q0 -26 -4 -101q10 -6 20 -6q16 0 44 12q4 1 9 1q22 0 34 -19q1 -6 1 -7q0 -24 -68 -44q-34 -13 -34 -38t42 -83q26 -31 48 -48q44 -32 87 -38 q10 -2 10 -10q0 -29 -108 -47q-4 0 -15 -45q-4 -8 -12 -8l-47 7q-7 1 -16 1h-1q-50 0 -81 -25q-39 -29 -61 -39q-30 -15 -65 -15h-8q-54 0 -105 39q-50 38 -83 38q-7 2 -20 2q-18 0 -63 -8q-14 0 -17 26q-5 28 -14 28q-45 8 -70 17q-34 14 -34 28z" />
<glyph unicode="y" d="M50 704q134 135 205 205q1 238 1 293h1h216h74q198 198 207 206q136 -135 205 -205q238 -1 293 -1v-1v-216v-74q198 -198 206 -207q-135 -136 -205 -205q-1 -238 -1 -293h-1h-216h-74q-198 -198 -207 -206q-135 134 -205 205q-238 1 -293 1v1v216v74q-198 198 -206 207z M147 704q6 -8 177 -178v-64v-187v-1h253q60 -62 177 -177q8 6 178 177h64h187h1v253q61 59 178 177q-7 8 -178 178v64v187v1h-253q-59 61 -177 178q-8 -7 -178 -178h-64h-187h-1v-253q-62 -60 -177 -177zM568 654h111v-329h132v329h111q1 5 16 128h-127v72q0 29 3 37 q0 3 6 13q7 12 24 18q10 4 40 4h59v1v114q-46 5 -96 5h-4q-37 0 -69 -12q-48 -19 -71 -60q-24 -41 -24 -95v-97h-111v-128z" />
<glyph unicode="z" d="M50 704q134 135 205 205q1 238 1 293h1h216h74q198 198 207 206q136 -135 205 -205q238 -1 293 -1v-1v-216v-74q198 -198 206 -207q-135 -136 -205 -205q-1 -238 -1 -293h-1h-216h-74q-198 -198 -207 -206q-135 134 -205 205q-238 1 -293 1v1v216v74q-198 198 -206 207z M147 704q6 -8 177 -178v-64v-187v-1h253q60 -62 177 -177q8 6 178 177h64h187h1v253q61 59 178 177q-7 8 -178 178v64v187v1h-253q-59 61 -177 178q-8 -7 -178 -178h-64h-187h-1v-253q-62 -60 -177 -177zM405 487q40 -26 88 -42q66 -23 133 -23q110 0 203 51q29 17 64 46 q33 29 45 45q29 36 49 73q14 25 26 58q23 70 23 131v21v5q12 7 40 35q20 21 32 38h-1q-27 -11 -56 -18q-22 -4 -25 -4v1q9 4 30 23q25 29 32 56q-28 -16 -58 -27q-28 -8 -33 -8q-21 20 -31 24q-35 21 -73 21h-1q-57 0 -102 -41q-42 -44 -42 -101v-4q0 -12 3 -31h-1 q-16 0 -61 7q-40 10 -70 22q-32 13 -70 36q-27 18 -62 51q-19 18 -34 36q-19 -36 -19 -71v-6q0 -46 34 -89q18 -21 29 -27v-1q-30 0 -64 18v-3q0 -57 44 -102q27 -25 51 -31q16 -6 18 -6q0 -2 -15 -5q-9 -2 -15 -2h-3h-2h-2h-1q-11 0 -25 3q18 -50 60 -76q36 -23 75 -23 q-22 -18 -41 -27q-67 -35 -132 -35h-11q-14 0 -29 2z" />
<glyph unicode="{" d="M50 704q134 135 205 205q1 238 1 293h1h216h74q198 198 207 206q136 -135 205 -205q238 -1 293 -1v-1v-216v-74q198 -198 206 -207q-135 -136 -205 -205q-1 -238 -1 -293h-1h-216h-74q-198 -198 -207 -206q-135 134 -205 205q-238 1 -293 1v1v216v74q-198 198 -206 207z M147 704q6 -8 177 -178v-64v-187v-1h253q60 -62 177 -177q8 6 178 177h64h187h1v253q61 59 178 177q-7 8 -178 178v64v187v1h-253q-59 61 -177 178q-8 -7 -178 -178h-64h-187h-1v-253q-62 -60 -177 -177zM355 695v3q0 19 2 44q4 19 9 34q25 79 94 130q66 48 142 48h4h1h3h8 q78 0 159 -62v-1q-15 -18 -55 -59q-8 -6 -9 -7h-1q-52 35 -107 35q-52 0 -92 -32q-5 -4 -17 -15q-16 -18 -23 -30q-21 -38 -21 -82q0 -61 38 -105q13 -15 20 -20q41 -35 98 -35q54 0 98 33q18 16 24 24q11 15 15 26q8 20 8 25q-136 1 -145 2v86v1h166h76v-1q2 -18 2 -31v-4 q0 -135 -92 -206q-24 -17 -41 -25q-52 -23 -107 -23h-5q-71 0 -133 38q-73 47 -104 129q-15 40 -15 80zM935 665v72v1h72v72h1h71l1 -72h72v-1v-72q-58 -1 -72 -1q0 -48 -1 -72h-71h-1v7v65q-64 1 -72 1z" />
<glyph unicode="|" d="M50 704q134 135 205 205q1 238 1 293h1h216h74q198 198 207 206q136 -135 205 -205q238 -1 293 -1v-1v-216v-74q198 -198 206 -207q-135 -136 -205 -205q-1 -238 -1 -293h-1h-216h-74q-198 -198 -207 -206q-135 134 -205 205q-238 1 -293 1v1v216v74q-198 198 -206 207z M147 704q6 -8 177 -178v-64v-187v-1h253q60 -62 177 -177q8 6 178 177h64h187h1v253q61 59 178 177q-7 8 -178 178v64v187v1h-253q-59 61 -177 178q-8 -7 -178 -178h-64h-187h-1v-253q-62 -60 -177 -177zM449 525q0 -43 14 -65q3 -12 23 -31q34 -33 83 -33h377q50 0 86 36 q34 34 34 89v367q0 45 -22 75q-18 24 -38 34q-27 16 -59 16h-379q-55 0 -92 -44q-17 -20 -24 -51q-3 -10 -3 -36v-357zM509 515v252v1h91q1 0 1 -1q-13 -30 -13 -62q0 -73 57 -127q51 -43 109 -43h7q57 0 106 41q20 19 27 30q33 45 33 96v4q0 30 -13 62h92v-1v-254 q0 -28 -28 -48q-13 -9 -38 -9h-364q-28 0 -41 10q-2 0 -15 13q-11 16 -11 36zM649 705q0 41 31 75q34 33 75 33h5q44 0 79 -37q27 -31 27 -73q0 -39 -29 -73q-34 -34 -79 -34q-48 0 -83 38q-26 32 -26 71zM890 836v1v105h1h104v-104v-1h-14q-29 0 -91 -1z" />
<glyph unicode="}" d="M50 704q134 135 205 205q1 238 1 293h1h216h74q198 198 207 206q136 -135 205 -205q238 -1 293 -1v-1v-216v-74q198 -198 206 -207q-135 -136 -205 -205q-1 -238 -1 -293h-1h-216h-74q-198 -198 -207 -206q-135 134 -205 205q-238 1 -293 1v1v216v74q-198 198 -206 207z M147 704q6 -8 177 -178v-64v-187v-1h253q60 -62 177 -177q8 6 178 177h64h187h1v253q61 59 178 177q-7 8 -178 178v64v187v1h-253q-59 61 -177 178q-8 -7 -178 -178h-64h-187h-1v-253q-62 -60 -177 -177zM487 796q0 -70 32 -116q9 -13 27 -27q24 -15 31 -15h2q4 0 8 1 q4 4 5 13q10 34 10 39q0 4 -5 9q-30 34 -30 85q0 70 42 124q12 15 30 30q56 44 129 44q75 0 122 -39q51 -46 51 -120q0 -73 -26 -133q-9 -18 -17 -32q-37 -53 -88 -53q-23 0 -42 15q-24 18 -24 47v3q0 13 13 56q25 77 25 104q0 19 -7 34q-16 28 -48 28q-30 0 -53 -27 q-27 -33 -27 -79q0 -36 14 -65l-50 -210q-10 -41 -10 -86v-7q0 -36 5 -75q0 -7 4 -8h1h3q2 3 12 17q25 33 39 60q12 23 23 51q10 37 30 121q4 -5 12 -14q11 -10 19 -15q34 -22 70 -22q2 1 3 1h1q35 0 70 13q60 24 100 84q49 80 49 185q0 40 -14 80q-31 73 -100 116 q-65 40 -147 40q-107 0 -185 -55q-13 -9 -36 -29q-21 -23 -28 -36q-45 -67 -45 -137z" />
<glyph unicode="~" d="M50 704q134 135 205 205q1 238 1 293h1h216h74q198 198 207 206q136 -135 205 -205q238 -1 293 -1v-1v-216v-74q198 -198 206 -207q-135 -136 -205 -205q-1 -238 -1 -293h-1h-216h-74q-198 -198 -207 -206q-135 134 -205 205q-238 1 -293 1v1v216v74q-198 198 -206 207z M147 704q6 -8 177 -178v-64v-187v-1h253q60 -62 177 -177q8 6 178 177h64h187h1v253q61 59 178 177q-7 8 -178 178v64v187v1h-253q-59 61 -177 178q-8 -7 -178 -178h-64h-187h-1v-253q-62 -60 -177 -177zM368 699q0 -67 42 -121q20 -23 33 -33q44 -30 93 -30h1q66 0 115 50 q30 30 40 59q14 36 14 75q0 73 -49 130q-19 19 -31 26q-42 27 -90 27q-63 0 -115 -50q-53 -57 -53 -133zM791 699q0 -75 53 -133q24 -21 41 -30q39 -18 76 -18h8q51 0 100 36q23 18 35 35q35 51 35 105v8q0 58 -39 109q-32 44 -87 61q-26 7 -48 7q-70 0 -123 -53 q-51 -56 -51 -127z" />
<glyph unicode="&#xa1;" d="M50 704q134 135 205 205q1 238 1 293h1h216h74q198 198 207 206q136 -135 205 -205q238 -1 293 -1v-1v-216v-74q198 -198 206 -207q-135 -136 -205 -205q-1 -238 -1 -293h-1h-216h-74q-198 -198 -207 -206q-135 134 -205 205q-238 1 -293 1v1v216v74q-198 198 -206 207z M147 704q6 -8 177 -178v-64v-187v-1h253q60 -62 177 -177q8 6 178 177h64h187h1v253q61 59 178 177q-7 8 -178 178v64v187v1h-253q-59 61 -177 178q-8 -7 -178 -178h-64h-187h-1v-253q-62 -60 -177 -177zM413 959q0 -37 29 -62q24 -20 54 -20q37 0 64 32q17 23 17 51 q0 41 -37 68q-21 14 -44 14q-37 0 -63 -29q-20 -24 -20 -54zM424 359h143v456h-143v-456zM655 359h141v212q0 60 9 81q19 49 74 49h1h2h2h1q43 0 60 -38q8 -21 8 -30q3 -10 3 -68v-206h141v254q0 117 -41 164q-39 50 -131 50q-56 0 -101 -35q-16 -17 -21 -24q-7 -9 -11 -15 h-1v1v61h-136v-456z" />
<glyph unicode="&#xa2;" d="M50 704q134 135 205 205q1 238 1 293h1h216h74q198 198 207 206q136 -135 205 -205q238 -1 293 -1v-1v-216v-74q198 -198 206 -207q-135 -136 -205 -205q-1 -238 -1 -293h-1h-216h-74q-198 -198 -207 -206q-135 134 -205 205q-238 1 -293 1v1v216v74q-198 198 -206 207z M147 704q6 -8 177 -178v-64v-187v-1h253q60 -62 177 -177q8 6 178 177h64h187h1v253q61 59 178 177q-7 8 -178 178v64v187v1h-253q-59 61 -177 178q-8 -7 -178 -178h-64h-187h-1v-253q-62 -60 -177 -177zM550 769q0 -1 1 -1h70v-229q0 -33 12 -66q24 -61 77 -94 q51 -30 118 -30h2q46 0 95 20q12 5 23 12l9 9q-4 11 -34 102l-8 -4q-30 -9 -49 -9h-5q-29 0 -46 17q-18 20 -18 54v218h142v1v108h-142v179v1h-103q-2 0 -5 -4q-2 -20 -5 -34q-4 -17 -9 -34q-10 -24 -23 -43q-5 -10 -15 -21q-3 -4 -16 -18q-15 -13 -26 -20q-19 -12 -38 -19 l-7 -3v-92z" />
<glyph unicode="&#xa3;" d="M50 704q134 135 205 205q1 238 1 293h1h216h74q198 198 207 206q136 -135 205 -205q238 -1 293 -1v-1v-216v-74q198 -198 206 -207q-135 -136 -205 -205q-1 -238 -1 -293h-1h-216h-74q-198 -198 -207 -206q-135 134 -205 205q-238 1 -293 1v1v216v74q-198 198 -206 207z M147 704q6 -8 177 -178v-64v-187v-1h253q60 -62 177 -177q8 6 178 177h64h187h1v253q61 59 178 177q-7 8 -178 178v64v187v1h-253q-59 61 -177 178q-8 -7 -178 -178h-64h-187h-1v-253q-62 -60 -177 -177zM413 845q0 -4 2 -9q27 -62 57 -117q26 -47 55 -89q16 -25 42 -55 q14 -16 31 -32q16 -12 28 -20q22 -15 43 -23q43 -16 79 -16h44q3 0 10 3q10 3 12 9q2 3 3 11q0 27 7 46q3 7 7 12q7 9 16 9h1q13 0 37 -26q17 -22 30 -34q13 -13 19 -17q21 -15 41 -15h1q4 0 5 1l92 1q3 0 9 1q23 5 23 21q0 5 -1 10q-5 9 -11 20q-8 11 -30 36q-8 9 -25 25 l-25 25q-22 18 -22 32v1q0 10 13 28q0 1 43 56q58 78 58 104v1q0 4 -1 8q-6 8 -25 8h-3h-8l-104 -1h-5q-2 0 -6 -1q-6 -2 -11 -11q-8 -16 -13 -30q-14 -29 -23 -47q-50 -85 -72 -85q-3 0 -4 2q-14 8 -14 42v1v40q2 47 2 58q0 22 -4 30q-3 8 -13 12q-8 3 -9 3q-14 5 -57 5h-8 q-47 0 -65 -8q-5 0 -11 -6q-9 -9 -9 -11v-2v-1q9 -2 11 -3q17 -6 23 -15q3 -6 4 -13q2 -7 3 -18q2 -26 2 -40v-2v-1v-2v-2q0 -35 -6 -54q-5 -16 -16 -16q-19 0 -58 64q-28 46 -47 92q-5 13 -12 16q-10 4 -13 5q-14 -1 -98 -1q-7 0 -15 -3q-9 -3 -9 -12z" />
<glyph unicode="&#xa4;" d="M50 704q134 135 205 205q1 238 1 293h1h216h74q198 198 207 206q136 -135 205 -205q238 -1 293 -1v-1v-216v-74q198 -198 206 -207q-135 -136 -205 -205q-1 -238 -1 -293h-1h-216h-74q-198 -198 -207 -206q-135 134 -205 205q-238 1 -293 1v1v216v74q-198 198 -206 207z M147 704q6 -8 177 -178v-64v-187v-1h253q60 -62 177 -177q8 6 178 177h64h187h1v253q61 59 178 177q-7 8 -178 178v64v187v1h-253q-59 61 -177 178q-8 -7 -178 -178h-64h-187h-1v-253q-62 -60 -177 -177zM404 671q0 -41 6 -98q2 -18 5 -31q5 -22 11 -35q12 -22 35 -35 q9 -4 20 -6q10 -3 27 -6q12 -2 65 -5q128 -3 186 -3q52 0 135 2q109 4 125 7q16 4 28 9q8 3 15 10q8 6 15 14q8 11 13 27q6 14 11 34q7 64 7 116v58q0 49 -7 113q-5 22 -9 32q-6 22 -18 35q-11 10 -14 12q-8 7 -19 11q-7 2 -18 5q-15 2 -50 5q-107 5 -217 5q-56 0 -129 -3 q-68 0 -108 -4q-22 -1 -32 -3q-20 -4 -37 -16q-9 -9 -16 -17q-6 -8 -13 -26q-5 -14 -9 -36q-8 -64 -8 -113v-58zM683 609v197q3 -1 155 -81q35 -18 36 -18l-32 -16q-1 -1 -159 -82z" />
<glyph unicode="&#xa5;" d="M50 704q134 135 205 205q1 238 1 293h1h216h74q198 198 207 206q136 -135 205 -205q238 -1 293 -1v-1v-216v-74q198 -198 206 -207q-135 -136 -205 -205q-1 -238 -1 -293h-1h-216h-74q-198 -198 -207 -206q-135 134 -205 205q-238 1 -293 1v1v216v74q-198 198 -206 207z M147 704q6 -8 177 -178v-64v-187v-1h253q60 -62 177 -177q8 6 178 177h64h187h1v253q61 59 178 177q-7 8 -178 178v64v187v1h-253q-59 61 -177 178q-8 -7 -178 -178h-64h-187h-1v-253q-62 -60 -177 -177zM363 491q0 10 16 11q9 0 48 17q23 12 50 37q33 35 46 59q18 32 18 47 q0 30 -59 44q-39 16 -39 34q0 17 28 24h4q6 0 27 -9q12 -3 23 -3q13 0 22 5q-4 66 -4 94v8q0 68 24 103q33 59 104 86q37 13 73 13h19q68 0 127 -43q31 -27 43 -46q23 -38 26 -61q4 -23 4 -57q0 -25 -4 -97q10 -5 19 -5q15 0 42 11q4 1 9 1q20 0 32 -17q1 -6 1 -8 q0 -22 -65 -41q-32 -13 -32 -36q0 -24 40 -79q24 -30 46 -46q42 -30 82 -36q10 -2 10 -10q0 -27 -103 -44q-4 0 -14 -43q-4 -8 -11 -8l-46 7q-6 1 -14 1h-2q-48 0 -77 -24q-37 -27 -58 -37q-28 -14 -61 -14h-8q-51 0 -100 37q-47 36 -78 36q-7 2 -20 2q-17 0 -60 -8 q-13 0 -16 25q-4 27 -13 27q-43 7 -67 16q-32 14 -32 27z" />
<glyph unicode="&#xa6;" horiz-adv-x="1321" d="M50 352v704q237 137 487 281q121 70 123 71l387 -223l224 -129v-704q-237 -137 -487 -281q-121 -70 -123 -71l-387 223zM123 394l197 -114l341 -196q2 1 108 63q220 126 429 247v620l-197 114l-341 196q-2 -1 -108 -63q-220 -126 -429 -247v-620zM460 662h119v-354h1h142 v354h119q1 5 18 138h-137v78q0 31 4 39q0 3 5 14q8 13 26 20q11 4 44 4h63v1v122v1q-49 5 -103 5h-4q-41 0 -75 -13q-52 -21 -77 -64q-26 -45 -26 -103v-104h-119v-138z" />
<glyph unicode="&#xa7;" horiz-adv-x="1321" d="M50 352v704q237 137 487 281q121 70 123 71l387 -223l224 -129v-704q-237 -137 -487 -281q-121 -70 -123 -71l-387 223zM123 394l197 -114l341 -196q2 1 108 63q220 126 429 247v620l-197 114l-341 196q-2 -1 -108 -63q-220 -126 -429 -247v-620zM280 450q44 -29 97 -47 q72 -24 146 -24q120 0 223 55q32 19 70 51q36 33 50 51q32 38 53 80q15 27 29 64q25 76 25 143v23v4q13 9 44 39q22 24 35 43h-1q-30 -12 -62 -20q-24 -4 -26 -4v1q9 4 33 25q26 32 35 61q-31 -18 -65 -29q-30 -9 -36 -9q-22 21 -34 26q-38 24 -81 24h-1q-63 0 -110 -46 q-48 -48 -48 -112v-3q0 -14 4 -34h-1q-17 0 -68 9q-43 9 -76 23q-35 14 -77 39q-31 20 -69 56q-19 20 -36 39q-21 -39 -21 -77v-7q0 -51 38 -99q19 -21 31 -27v-1q-32 0 -70 19v-5q0 -61 48 -111q29 -27 56 -34q17 -7 21 -7q0 -2 -17 -5q-12 -1 -17 -1h-3h-3h-2h-1 q-12 0 -27 2q19 -54 65 -84q41 -25 83 -25q-24 -19 -46 -30q-72 -37 -144 -37h-12q-15 0 -32 1z" />
<glyph unicode="&#xa8;" horiz-adv-x="1321" d="M50 352v704q237 137 487 281q121 70 123 71l387 -223l224 -129v-704q-237 -137 -487 -281q-121 -70 -123 -71l-387 223zM123 394l197 -114l341 -196q2 1 108 63q220 126 429 247v620l-197 114l-341 196q-2 -1 -108 -63q-220 -126 -429 -247v-620zM205 689v4q0 21 3 49 q4 23 9 40q29 90 108 148q76 55 163 55h4h2h2h10q89 0 181 -71v-1q-17 -21 -63 -67q-9 -8 -10 -9h-1q-59 41 -122 41q-60 0 -105 -37q-7 -5 -20 -17q-18 -20 -26 -35q-24 -43 -24 -93q0 -69 43 -120q16 -17 23 -22q47 -41 112 -41q62 0 113 38q20 18 26 28q13 17 18 29 q8 23 8 29q-155 1 -165 2v98v1h190h87v-1q1 -20 1 -35v-5q0 -154 -104 -235q-28 -20 -47 -28q-59 -27 -123 -27h-4q-82 0 -153 43q-83 54 -119 148q-17 46 -17 91zM867 655v82v1h83v82h1h81l1 -82h83v-1v-82q-67 -1 -83 -1q0 -55 -1 -82h-81h-1v8v74q-73 1 -83 1z" />
<glyph unicode="&#xa9;" horiz-adv-x="1321" d="M50 352v704q237 137 487 281q121 70 123 71l387 -223l224 -129v-704q-237 -137 -487 -281q-121 -70 -123 -71l-387 223zM123 394l197 -114l341 -196q2 1 108 63q220 126 429 247v620l-197 114l-341 196q-2 -1 -108 -63q-220 -126 -429 -247v-620zM327 509q0 -45 15 -70 q4 -12 24 -32q38 -36 90 -36h403q54 0 93 38q36 36 36 96v392q0 50 -23 82q-20 25 -42 36q-28 17 -62 17h-407q-58 0 -99 -48q-18 -20 -25 -54q-3 -11 -3 -38v-383zM391 498v270l1 1h97q1 0 1 -1q-13 -32 -13 -67q0 -77 60 -135q56 -45 116 -45h9q60 0 114 44q20 18 28 30 q34 50 34 103v6q0 31 -13 65h98q1 0 1 -1v-272q0 -30 -30 -51q-14 -10 -42 -10h-388q-30 0 -44 11q-3 0 -16 14q-13 18 -13 38zM541 701q0 45 33 81q36 36 80 36h7q47 0 84 -40q29 -34 29 -79q0 -41 -31 -77q-36 -37 -86 -37t-88 41q-28 35 -28 75zM800 843v1v111 q22 0 111 1l1 -1v-111h-1h-14q-31 0 -97 -1z" />
<glyph unicode="&#xaa;" horiz-adv-x="1321" d="M50 352v704q237 137 487 281q121 70 123 71l387 -223l224 -129v-704q-237 -137 -487 -281q-121 -70 -123 -71l-387 223zM123 394l197 -114l341 -196q2 1 108 63q220 126 429 247v620l-197 114l-341 196q-2 -1 -108 -63q-220 -126 -429 -247v-620zM364 819q0 -77 35 -126 q9 -15 29 -30q26 -17 34 -17h2q4 0 8 2q6 4 7 14q10 37 10 43q0 4 -5 10q-33 37 -33 91q0 77 46 136q13 17 33 34q61 47 141 47q82 0 133 -42q56 -49 56 -130q0 -80 -29 -146q-9 -20 -18 -34q-41 -59 -95 -59q-26 0 -47 16q-26 20 -26 52v2q0 15 14 62q27 83 27 113 q0 21 -7 38q-17 30 -53 30q-34 0 -58 -29q-29 -36 -29 -86q0 -39 14 -71l-53 -229q-12 -46 -12 -95v-8q0 -38 5 -82q0 -7 5 -8h2h2q3 3 15 18q26 37 41 66q13 24 25 56q12 40 34 133q4 -7 12 -16q13 -12 21 -17q38 -23 77 -23q1 1 2 1h2q38 0 77 14q65 26 108 92 q54 86 54 201q0 44 -16 87q-33 81 -108 128q-72 43 -161 43q-117 0 -202 -60q-15 -9 -39 -33q-23 -24 -32 -39q-48 -72 -48 -149z" />
<glyph unicode="&#xab;" horiz-adv-x="1321" d="M50 352v704q237 137 487 281q121 70 123 71l387 -223l224 -129v-704q-237 -137 -487 -281q-121 -70 -123 -71l-387 223zM123 394l197 -114l341 -196q2 1 108 63q220 126 429 247v620l-197 114l-341 196q-2 -1 -108 -63q-220 -126 -429 -247v-620zM255 696q0 -71 45 -129 q20 -25 35 -35q48 -32 100 -32h1q70 0 123 54q30 31 42 63q15 38 15 79q0 78 -53 138q-20 22 -33 30q-45 28 -95 28q-68 0 -122 -53q-58 -61 -58 -143zM707 699q0 -80 57 -140q25 -24 44 -33q41 -20 81 -20h8q55 0 107 38q24 20 37 37q37 56 37 113v9q0 60 -41 117 q-34 46 -94 65q-27 7 -50 7q-74 0 -132 -58q-54 -59 -54 -135z" />
<glyph unicode="&#xac;" horiz-adv-x="1321" d="M50 352v704q237 137 487 281q121 70 123 71l387 -223l224 -129v-704q-237 -137 -487 -281q-121 -70 -123 -71l-387 223zM123 394l197 -114l341 -196q2 1 108 63q220 126 429 247v620l-197 114l-341 196q-2 -1 -108 -63q-220 -126 -429 -247v-620zM324 982q0 -36 30 -62 q23 -19 52 -19q38 0 65 32q16 22 16 50q0 41 -36 68q-22 13 -45 13q-37 0 -63 -30q-19 -23 -19 -52zM335 386h141v453h-141v-453zM565 386h140v210q0 60 8 82q19 48 74 48h1h3h3q41 0 58 -39q7 -21 7 -29q4 -11 4 -67v-205h140v252q0 116 -40 162q-39 50 -131 50 q-55 0 -99 -34q-18 -17 -23 -24q-5 -8 -9 -16h-1v1v62h-135v-453z" />
<glyph unicode="&#xad;" d="M50 704q54 94 149 149q-55 97 -55 203q97 55 203 55v4q0 101 55 199q106 0 203 -55q54 94 148 149h1q14 -6 48 -32q18 -13 50 -46q24 -28 37 -47l14 -23h1q97 54 202 54q55 -97 55 -203h4q99 0 196 -53q3 -2 3 -3q0 -104 -54 -202v-1q92 -53 148 -147v-1q-6 -14 -32 -48 q-13 -18 -46 -50q-28 -24 -47 -37l-23 -14v-1q54 -96 54 -202q-98 -55 -203 -55v-4q0 -99 -53 -196q-2 -3 -3 -3q-104 0 -202 54h-1q-53 -92 -147 -148h-1q-14 7 -46 31q-17 12 -52 48q-21 24 -26 32q-8 10 -25 37h-1q-96 -54 -202 -54q-55 97 -55 203h-6q-89 0 -181 46 l-16 9q0 106 55 203q-30 17 -64 45q-31 29 -40 41q-28 33 -42 57q-3 5 -3 6zM386 415q47 -31 102 -49q77 -27 157 -27q128 0 237 59q34 20 75 54q39 35 53 54q33 42 56 85q16 29 30 68q28 81 28 153v24v5q14 9 47 41q23 25 37 45h-1q-32 -13 -66 -21q-26 -4 -29 -4v1 q11 4 36 27q28 34 37 65q-33 -20 -69 -31q-32 -10 -38 -10q-24 23 -36 28q-41 25 -86 25h-1q-67 0 -118 -49q-51 -51 -51 -118v-4q0 -15 5 -36h-1q-19 0 -73 9q-46 11 -81 25q-38 15 -81 42q-33 21 -74 59q-21 21 -38 41q-23 -41 -23 -81v-7q0 -55 40 -105q21 -23 34 -30v-1 q-35 0 -75 20v-4q0 -67 51 -119q32 -29 59 -37q19 -7 23 -7q0 -2 -18 -4q-12 -2 -18 -2h-4h-2h-3h-1q-12 0 -28 2q20 -58 69 -89q43 -27 87 -27q-24 -21 -47 -32q-78 -40 -155 -40h-12q-16 0 -34 2z" />
<glyph unicode="&#xae;" horiz-adv-x="1321" d="M50 352v704q237 137 487 281q121 70 123 71l387 -223l224 -129v-704q-237 -137 -487 -281q-121 -70 -123 -71l-387 223zM123 394l197 -114l341 -196q2 1 108 63q220 126 429 247v620l-197 114l-341 196q-2 -1 -108 -63q-220 -126 -429 -247v-620zM435 788q0 -1 1 -1h79 v-258q0 -37 14 -74q25 -68 85 -104q56 -34 131 -34h3q52 0 106 22q15 6 26 14l10 10q-4 12 -38 113l-9 -3q-33 -11 -55 -11h-5q-32 0 -52 20q-19 21 -19 59v246h158v1v119h-158v201v1h-116q-3 0 -5 -5q-2 -22 -6 -37q-5 -20 -11 -39q-10 -26 -25 -49q-6 -11 -17 -23 q-3 -4 -17 -19q-17 -14 -30 -23q-21 -13 -42 -22l-8 -3v-101z" />
<glyph unicode="&#xaf;" horiz-adv-x="1321" d="M50 352v704q237 137 487 281q121 70 123 71l387 -223l224 -129v-704q-237 -137 -487 -281q-121 -70 -123 -71l-387 223zM123 394l197 -114l341 -196q2 1 108 63q220 126 429 247v620l-197 114l-341 196q-2 -1 -108 -63q-220 -126 -429 -247v-620zM261 876q0 -4 2 -10 q30 -70 65 -133q29 -53 61 -99q19 -29 47 -62q16 -19 36 -36q18 -15 32 -25q24 -15 48 -25q49 -18 89 -18h49q5 0 13 3q10 4 13 11q2 3 4 13q0 30 7 52q3 7 7 13q9 11 19 11h1q15 0 42 -31q21 -23 34 -39q14 -14 21 -17q25 -18 47 -18h1q4 0 7 1l102 1q3 0 11 2q27 6 27 23 v2q0 3 -2 10q-5 10 -13 21q-8 13 -34 42q-9 10 -27 28q-25 23 -29 28q-24 21 -24 35v2q0 12 14 31q0 1 49 65q66 86 66 117q0 6 -2 9q-7 11 -29 11h-3q-4 0 -9 -1h-117h-6q-2 0 -6 -2q-7 -2 -13 -12q-8 -19 -15 -35q-15 -33 -27 -53q-55 -96 -79 -96q-4 0 -7 2 q-15 10 -15 48v1q1 33 1 46q2 52 2 65q0 24 -5 34q-4 9 -14 14q-9 3 -12 3q-14 5 -64 5h-9q-53 0 -72 -8q-6 -1 -14 -8q-9 -9 -9 -13v-2v-1q10 -1 14 -2q17 -7 24 -18q3 -6 5 -15q2 -7 4 -19q2 -30 2 -46v-2v-1v-2v-3q0 -40 -8 -61q-5 -18 -17 -18q-22 0 -65 72 q-32 52 -53 104q-6 14 -15 19q-10 5 -14 5q-17 0 -112 -1q-7 0 -16 -3q-10 -3 -10 -13v-1z" />
<glyph unicode="&#xb0;" horiz-adv-x="1321" d="M50 352v704q237 137 487 281q121 70 123 71l387 -223l224 -129v-704q-237 -137 -487 -281q-121 -70 -123 -71l-387 223zM123 394l197 -114l341 -196q2 1 108 63q220 126 429 247v620l-197 114l-341 196q-2 -1 -108 -63q-220 -126 -429 -247v-620zM301 675q0 -43 6 -103 q2 -17 5 -32q6 -23 13 -35q11 -24 35 -36q9 -5 21 -9q10 -2 28 -5q13 -1 68 -4q132 -4 193 -4q55 0 141 2q113 5 129 7q17 3 30 10q7 4 16 9l15 15q8 13 14 28t10 37q8 66 8 120v59q0 53 -8 118q-4 24 -8 35q-7 21 -20 35q-10 11 -13 13q-10 6 -20 10q-7 4 -20 7 q-15 2 -51 4q-111 6 -226 6q-59 0 -134 -3q-71 -1 -112 -5q-24 0 -32 -2q-23 -5 -40 -18q-9 -8 -17 -16q-6 -10 -13 -28q-6 -14 -10 -37q-8 -67 -8 -119v-59zM592 609v206q2 -1 160 -84q36 -18 37 -19l-32 -17q-2 -1 -165 -86z" />
<glyph unicode="&#xb1;" horiz-adv-x="1321" d="M50 352v704q237 137 487 281q121 70 123 71l387 -223l224 -129v-704q-237 -137 -487 -281q-121 -70 -123 -71l-387 223zM123 394l197 -114l341 -196q2 1 108 63q220 126 429 247v620l-197 114l-341 196q-2 -1 -108 -63q-220 -126 -429 -247v-620zM241 482v1q0 10 18 11 q9 0 50 18q25 13 54 40q35 37 49 63q19 33 19 50q0 31 -63 47q-41 17 -41 36q0 18 30 26h4q6 0 28 -10q13 -4 26 -4t22 7q-4 70 -4 100v8q0 73 26 110q35 63 111 92q39 14 78 14h21q72 0 135 -46q33 -29 45 -50q26 -40 28 -64q5 -25 5 -61q0 -27 -5 -103q11 -7 22 -7 q15 0 43 13q5 1 10 1q22 0 34 -19q2 -6 2 -8q0 -23 -69 -43q-35 -15 -35 -39q0 -26 43 -85q26 -32 49 -48q44 -33 87 -39q11 -3 11 -10q0 -30 -110 -48q-4 0 -15 -46q-4 -8 -12 -8l-48 7q-7 1 -16 1h-2q-51 0 -82 -26q-40 -29 -61 -39q-31 -15 -66 -15h-9q-54 0 -106 39 q-51 39 -84 39q-7 2 -21 2q-19 0 -64 -8q-14 0 -17 26q-5 29 -14 29q-46 8 -72 17q-34 15 -34 29z" />
<glyph unicode="&#xb2;" d="M50 167v1074q0 70 55 123q51 44 112 44h1074q70 0 123 -55q44 -51 44 -112v-1074q0 -61 -43 -111q-54 -56 -124 -56h-1073q-75 0 -130 61q-38 50 -38 106zM129 165q0 -50 46 -77q19 -9 41 -9h1076q51 0 77 45q10 20 10 41v1078q0 51 -47 78q-19 8 -39 8h-1078 q-36 0 -61 -24q-25 -26 -25 -62v-1078zM510 657h149v-442h178v442h149q1 7 22 172h-1h-170v97q0 40 4 50q0 4 7 17q10 17 32 24q15 6 55 6h79v1v153q-62 7 -129 7h-5q-51 0 -93 -16q-64 -26 -96 -81t-32 -127v-131h-149v-172z" />
<glyph unicode="&#xb3;" d="M50 167v1074q0 70 55 123q51 44 112 44h1074q70 0 123 -55q44 -51 44 -112v-1074q0 -61 -43 -111q-54 -56 -124 -56h-1073q-75 0 -130 61q-38 50 -38 106zM129 165q0 -50 46 -77q19 -9 41 -9h1076q51 0 77 45q10 20 10 41v1078q0 51 -47 78q-19 8 -39 8h-1078 q-36 0 -61 -24q-25 -26 -25 -62v-1078zM296 395q53 -35 116 -56q87 -30 177 -30q145 0 268 67q39 22 85 61q44 40 60 61q38 47 64 96q18 33 34 77q31 92 31 173v28v5q16 10 53 46q27 29 42 52h-1q-36 -15 -75 -24q-29 -5 -32 -5v1q12 5 40 31q32 38 42 73q-37 -22 -78 -35 q-36 -11 -43 -11q-27 26 -41 32q-46 28 -97 28h-1q-76 0 -134 -55q-57 -58 -57 -134v-4q0 -17 5 -41h-1q-21 0 -82 10q-52 12 -92 28q-43 17 -92 48q-37 23 -83 66q-24 24 -44 47q-25 -47 -25 -92v-8q0 -62 45 -119q23 -26 38 -34v-1q-39 0 -85 23v-5q0 -75 58 -134 q36 -33 67 -42q21 -8 26 -8q0 -2 -21 -5q-13 -2 -20 -2h-4h-3h-3h-1q-14 0 -32 3q23 -66 78 -101q49 -31 99 -31q-28 -23 -54 -36q-88 -45 -175 -45h-13q-19 0 -39 2z" />
<glyph unicode="&#xb4;" d="M50 167v1074q0 70 55 123q51 44 112 44h1074q70 0 123 -55q44 -51 44 -112v-1074q0 -61 -43 -111q-54 -56 -124 -56h-1073q-75 0 -130 61q-38 50 -38 106zM129 165q0 -50 46 -77q19 -9 41 -9h1076q51 0 77 45q10 20 10 41v1078q0 51 -47 78q-19 8 -39 8h-1078 q-36 0 -61 -24q-25 -26 -25 -62v-1078zM258 678v5q0 23 3 55q4 24 11 43q32 100 119 165q84 60 180 60h5h2h3h11q98 0 200 -78v-1q-19 -24 -70 -75q-9 -8 -10 -9h-2q-65 44 -135 44q-66 0 -116 -40q-8 -5 -23 -19q-20 -22 -28 -38q-27 -48 -27 -104q0 -77 48 -133 q17 -18 25 -24q53 -45 125 -45q68 0 124 41q22 20 30 31q14 19 19 33q9 26 9 32q-172 1 -182 2v108v1h210h96v-1q2 -22 2 -38v-5q0 -171 -116 -261q-31 -22 -52 -31q-66 -30 -136 -30h-5q-91 0 -169 48q-93 59 -132 163q-19 51 -19 101zM992 641v90v1h91v92h1h91l1 -92h91 v-1v-90q-73 -1 -91 -1q0 -62 -1 -91h-91h-1v8v83q-80 1 -91 1z" />
<glyph unicode="&#xb5;" d="M50 167v1074q0 70 55 123q51 44 112 44h1074q70 0 123 -55q44 -51 44 -112v-1074q0 -61 -43 -111q-54 -56 -124 -56h-1073q-75 0 -130 61q-38 50 -38 106zM129 165q0 -50 46 -77q19 -9 41 -9h1076q51 0 77 45q10 20 10 41v1078q0 51 -47 78q-19 8 -39 8h-1078 q-36 0 -61 -24q-25 -26 -25 -62v-1078zM371 472q0 -53 17 -81q5 -14 28 -38q44 -41 104 -41h467q62 0 107 44q42 42 42 111v454q0 57 -27 94q-23 30 -48 42q-33 20 -72 20h-471q-67 0 -114 -55q-21 -24 -30 -63q-3 -13 -3 -44v-443zM445 459v313l1 1h112q1 0 1 -1 q-15 -38 -15 -78q0 -89 70 -156q64 -53 135 -53h9q70 0 132 51q24 22 33 36q40 57 40 119v6q0 36 -15 76h113q1 0 1 -1v-315q0 -35 -35 -60q-16 -11 -48 -11h-450q-35 0 -51 13q-3 0 -18 16q-15 20 -15 44zM619 694q0 52 38 94q42 41 93 41h7q54 0 98 -46q33 -39 33 -91 q0 -48 -36 -90q-42 -42 -99 -42q-59 0 -102 47q-32 40 -32 87zM918 858v1v129h1q24 0 128 1l1 -1v-128q0 -1 -1 -1h-16q-36 0 -113 -1z" />
<glyph unicode="&#xb6;" d="M50 167v1074q0 70 55 123q51 44 112 44h1074q70 0 123 -55q44 -51 44 -112v-1074q0 -61 -43 -111q-54 -56 -124 -56h-1073q-75 0 -130 61q-38 50 -38 106zM129 165q0 -50 46 -77q19 -9 41 -9h1076q51 0 77 45q10 20 10 41v1078q0 51 -47 78q-19 8 -39 8h-1078 q-36 0 -61 -24q-25 -26 -25 -62v-1078zM416 822q0 -86 40 -142q10 -16 32 -34q29 -19 38 -19h3q4 0 9 3q6 4 7 15q12 42 12 48q0 5 -6 12q-37 41 -37 103q0 86 52 152q14 19 36 39q69 52 159 52q93 0 150 -47q63 -55 63 -146q0 -90 -32 -165q-11 -22 -21 -38 q-45 -66 -107 -66q-29 0 -53 17q-29 24 -29 59v3q0 16 16 69q31 94 31 128q0 23 -9 42q-19 34 -59 34q-38 0 -66 -32q-32 -41 -32 -97q0 -44 16 -81l-60 -257q-14 -51 -14 -107v-9q0 -42 6 -92q0 -8 6 -9h2h3q3 3 16 21q29 41 47 73q14 28 28 63q13 46 38 150q4 -7 13 -18 q15 -13 24 -19q42 -26 86 -26q2 1 3 1h2q42 0 86 16q74 30 122 103q60 97 60 226q0 50 -17 99q-37 91 -122 144q-81 48 -181 48q-132 0 -227 -68q-17 -10 -44 -36q-25 -28 -36 -44q-54 -81 -54 -168z" />
<glyph unicode="&#xb7;" d="M50 167v1074q0 70 55 123q51 44 112 44h1074q70 0 123 -55q44 -51 44 -112v-1074q0 -61 -43 -111q-54 -56 -124 -56h-1073q-75 0 -130 61q-38 50 -38 106zM129 165q0 -50 46 -77q19 -9 41 -9h1076q51 0 77 45q10 20 10 41v1078q0 51 -47 78q-19 8 -39 8h-1078 q-36 0 -61 -24q-25 -26 -25 -62v-1078zM265 693q0 -84 53 -153q26 -31 43 -42q56 -39 120 -39h1q83 0 147 64q36 38 50 76q18 45 18 95q0 93 -63 165q-24 25 -40 35q-53 34 -113 34q-82 0 -147 -63q-69 -73 -69 -172zM806 697q0 -95 68 -168q31 -28 52 -39q50 -24 97 -24h9 q67 0 129 45q29 25 44 45q45 66 45 135v11q0 73 -49 140q-42 55 -113 77q-32 9 -60 9q-89 0 -158 -69q-64 -71 -64 -162z" />
<glyph unicode="&#xb8;" d="M50 167v1074q0 70 55 123q51 44 112 44h1074q70 0 123 -55q44 -51 44 -112v-1074q0 -61 -43 -111q-54 -56 -124 -56h-1073q-75 0 -130 61q-38 50 -38 106zM129 165q0 -50 46 -77q19 -9 41 -9h1076q51 0 77 45q10 20 10 41v1078q0 51 -47 78q-19 8 -39 8h-1078 q-36 0 -61 -24q-25 -26 -25 -62v-1078zM340 1029q0 -45 36 -77q29 -24 66 -24q47 0 79 39q21 28 21 63q0 51 -45 84q-27 16 -56 16q-45 0 -77 -36q-24 -29 -24 -65zM354 290h175v561h-175v-561zM638 290h174v261q0 74 11 100q22 61 91 61h1h1h3h2q53 0 74 -49q9 -25 9 -36 q3 -13 3 -83v-254h175v313q0 143 -50 202q-49 61 -161 61q-70 0 -125 -44q-21 -19 -27 -28q-7 -11 -12 -20h-1q-1 0 -1 1v76h-167v-561z" />
<glyph unicode="&#xb9;" d="M50 167v1074q0 70 55 123q51 44 112 44h1074q70 0 123 -55q44 -51 44 -112v-1074q0 -61 -43 -111q-54 -56 -124 -56h-1073q-75 0 -130 61q-38 50 -38 106zM129 165q0 -50 46 -77q19 -9 41 -9h1076q51 0 77 45q10 20 10 41v1078q0 51 -47 78q-19 8 -39 8h-1078 q-36 0 -61 -24q-25 -26 -25 -62v-1078zM518 780q0 -1 1 -1h85v-278q0 -40 15 -80q28 -73 92 -112q61 -37 142 -37h3q56 0 114 24q16 6 28 15q4 3 11 11q-4 13 -41 122l-10 -4q-35 -11 -59 -11h-5q-35 0 -56 21q-21 23 -21 64v265h171v1v129h-171v217v1h-125q-3 0 -6 -5 q-2 -24 -6 -40q-5 -22 -12 -42q-11 -29 -27 -53q-6 -12 -18 -25q-3 -4 -19 -21q-18 -15 -32 -24q-23 -15 -45 -24l-9 -3v-110z" />
<glyph unicode="&#xba;" d="M50 167v1074q0 70 55 123q51 44 112 44h1074q70 0 123 -55q44 -51 44 -112v-1074q0 -61 -43 -111q-54 -56 -124 -56h-1073q-75 0 -130 61q-38 50 -38 106zM129 165q0 -50 46 -77q19 -9 41 -9h1076q51 0 77 45q10 20 10 41v1078q0 51 -47 78q-19 8 -39 8h-1078 q-36 0 -61 -24q-25 -26 -25 -62v-1078zM281 898q0 -5 2 -13q38 -86 81 -165q36 -65 76 -123q24 -36 59 -77q20 -23 44 -45q22 -18 39 -29q30 -20 60 -32q61 -23 111 -23h61q5 0 16 5q12 4 16 13q3 3 4 16q0 37 9 63q4 11 9 17q11 14 23 14h2q19 0 52 -38q25 -29 43 -48 q16 -17 25 -22q32 -22 59 -22h1q4 0 8 1l127 1q4 0 14 2q32 8 32 30v2q0 5 -2 13q-6 12 -15 26q-11 16 -43 51q-11 13 -33 35q-31 28 -38 35q-29 27 -29 44v1q0 15 18 40q0 1 61 79q81 109 81 146q0 8 -2 12q-8 12 -36 12h-3h-11l-145 -1h-8t-7 -2q-10 -2 -17 -15 q-10 -23 -18 -43q-18 -40 -33 -66q-70 -118 -100 -118q-4 0 -7 1q-18 13 -18 60v1v56q2 67 3 83q0 30 -6 41q-5 11 -18 18q-11 3 -14 3q-19 7 -79 7h-12q-66 0 -90 -10q-7 -2 -17 -10q-12 -12 -12 -17v-1l1 -1q11 -2 17 -5q21 -7 30 -21q3 -8 6 -18t5 -25q2 -36 2 -56v-3v-1 v-2v-4q0 -50 -10 -76q-5 -22 -21 -22q-26 0 -81 89q-39 65 -65 130q-7 17 -19 23q-12 5 -17 6q-21 -1 -138 -1q-10 0 -20 -4q-13 -4 -13 -17z" />
<glyph unicode="&#xbb;" d="M50 167v1074q0 70 55 123q51 44 112 44h1074q70 0 123 -55q44 -51 44 -112v-1074q0 -61 -43 -111q-54 -56 -124 -56h-1073q-75 0 -130 61q-38 50 -38 106zM129 165q0 -50 46 -77q19 -9 41 -9h1076q51 0 77 45q10 20 10 41v1078q0 51 -47 78q-19 8 -39 8h-1078 q-36 0 -61 -24q-25 -26 -25 -62v-1078zM284 663q0 -56 7 -132q2 -24 7 -42q8 -31 16 -46q15 -30 47 -47q11 -5 26 -10q13 -3 36 -6q16 -3 89 -6q169 -5 247 -5q71 0 182 3q145 5 166 9q22 4 39 12q10 5 20 13t19 19q12 15 19 36q8 18 13 46q10 86 10 156v75q0 68 -9 153 q-6 31 -12 43q-9 29 -25 47q-14 14 -18 16q-12 9 -25 14q-9 5 -26 8q-19 4 -65 7q-143 6 -291 6q-75 0 -173 -3q-91 -2 -145 -6q-30 -2 -41 -5q-29 -5 -51 -21q-12 -10 -22 -22q-8 -12 -17 -35q-8 -18 -14 -49q-9 -86 -9 -153v-75zM658 579v264q4 -2 208 -108q46 -24 47 -25 l-43 -21q-2 -2 -212 -110z" />
<glyph unicode="&#xbc;" d="M50 167v1074q0 70 55 123q51 44 112 44h1074q70 0 123 -55q44 -51 44 -112v-1074q0 -61 -43 -111q-54 -56 -124 -56h-1073q-75 0 -130 61q-38 50 -38 106zM129 165q0 -50 46 -77q19 -9 41 -9h1076q51 0 77 45q10 20 10 41v1078q0 51 -47 78q-19 8 -39 8h-1078 q-36 0 -61 -24q-25 -26 -25 -62v-1078zM288 462v1q0 12 20 13q11 0 58 21q28 14 61 45q40 42 56 72q22 38 22 57q0 36 -72 54q-47 19 -47 41q0 20 34 29h5q7 0 32 -11q15 -4 29 -4q15 0 26 7q-5 80 -5 114v10q0 83 30 125q40 72 126 105q45 16 89 16h24q82 0 154 -53 q38 -32 52 -56q29 -46 32 -74q5 -28 5 -69q0 -31 -5 -118q12 -7 24 -7q18 0 50 14q5 1 11 1q25 0 39 -21q2 -7 2 -9q0 -27 -79 -50q-40 -16 -40 -44q0 -30 49 -97q30 -36 56 -55q51 -37 100 -44q12 -3 12 -12q0 -34 -125 -54q-5 0 -17 -53q-5 -9 -14 -9l-55 8q-8 1 -18 1h-2 q-58 0 -94 -29q-45 -33 -70 -45q-35 -17 -75 -17h-10q-62 0 -121 45q-58 44 -96 44q-8 2 -24 2q-21 0 -73 -9q-16 0 -19 30q-6 33 -16 33q-53 9 -82 19q-39 17 -39 33z" />
<glyph unicode="&#xbd;" d="M50 0v1408h1408v-1408h-1408zM129 79h1250v1250h-1250v-1250zM499 653h149v-442h178v442h149q1 7 22 172h-1h-170v97q0 40 4 50q0 4 7 17q10 17 32 24q15 6 55 6h79v1v153q-62 7 -129 7h-5q-51 0 -93 -16q-64 -26 -96 -81t-32 -127v-131h-149v-172z" />
<glyph unicode="&#xbe;" d="M50 0v1408h1408v-1408h-1408zM129 79h1250v1250h-1250v-1250zM293 405q53 -35 116 -56q87 -30 177 -30q145 0 268 67q39 22 85 61q44 40 60 61q38 47 64 96q18 33 34 77q31 92 31 173v28v5q16 10 53 46q27 29 42 52h-1q-36 -15 -75 -24q-29 -5 -32 -5v1q12 5 40 31 q32 38 42 73q-37 -22 -78 -35q-36 -11 -43 -11q-27 26 -41 32q-46 28 -97 28h-1q-76 0 -134 -55q-57 -58 -57 -134v-4q0 -17 5 -41h-1q-21 0 -82 10q-52 12 -92 28q-43 17 -92 48q-37 23 -83 66q-24 24 -44 47q-25 -47 -25 -92v-8q0 -62 45 -119q23 -26 38 -34v-1 q-39 0 -85 23v-5q0 -75 58 -134q36 -33 67 -42q21 -8 26 -8q0 -2 -21 -5q-13 -2 -20 -2h-4h-3h-3h-1q-14 0 -32 3q23 -66 78 -101q49 -31 99 -31q-28 -23 -54 -36q-88 -45 -175 -45h-13q-19 0 -39 2z" />
<glyph unicode="&#xbf;" d="M50 0v1408h1408v-1408h-1408zM129 79h1250v1250h-1250v-1250zM253 690v5q0 23 3 55q5 25 11 44q32 101 120 167q85 61 182 61h5h2h3h11q100 0 203 -80v-1q-20 -23 -71 -75q-10 -8 -11 -9h-1q-67 45 -137 45q-67 0 -117 -41q-8 -5 -23 -19q-20 -23 -29 -39 q-27 -48 -27 -105q0 -77 49 -134q17 -18 25 -25q53 -45 126 -45q69 0 125 42q23 20 30 31q14 19 20 33q9 26 9 32q-173 2 -184 3v109v1h212h97v-1q2 -23 2 -39v-5q0 -173 -117 -264q-31 -21 -52 -31q-67 -30 -138 -30h-5q-91 0 -171 48q-93 60 -133 165q-19 52 -19 102z M994 653v91v1h92v92h2h91l1 -92h92v-1v-91q-74 -1 -92 -1q0 -62 -1 -93h-91h-2v9v84q-81 1 -92 1z" />
<glyph unicode="&#xc0;" d="M50 0v1408h1408v-1408h-1408zM129 79h1250v1250h-1250v-1250zM372 476q0 -53 17 -81q5 -14 28 -38q44 -41 104 -41h467q62 0 107 44q42 42 42 111v454q0 57 -27 94q-23 30 -48 42q-33 20 -72 20h-471q-67 0 -114 -55q-21 -24 -30 -63q-3 -13 -3 -44v-443zM446 463v313 l1 1h112q1 0 1 -1q-15 -38 -15 -78q0 -89 70 -156q64 -53 135 -53h9q70 0 132 51q24 22 33 36q40 57 40 119v6q0 36 -15 76h113q1 0 1 -1v-315q0 -35 -35 -60q-16 -11 -48 -11h-450q-35 0 -51 13q-3 0 -18 16q-15 20 -15 44zM620 698q0 52 38 94q42 41 93 41h7q54 0 98 -46 q33 -39 33 -91q0 -48 -36 -90q-42 -42 -99 -42q-59 0 -102 47q-32 40 -32 87zM919 862v1v129h1q24 0 128 1l1 -1v-128q0 -1 -1 -1h-16q-36 0 -113 -1z" />
<glyph unicode="&#xc1;" d="M50 0v1408h1408v-1408h-1408zM129 79h1250v1250h-1250v-1250zM407 814q0 -89 41 -145q10 -17 33 -35q30 -19 39 -19h3q4 0 9 3q6 4 7 15q12 43 12 49q0 5 -6 12q-37 42 -37 105q0 88 52 156q15 19 37 39q71 54 162 54q95 0 153 -48q65 -57 65 -150q0 -92 -33 -168 q-11 -22 -21 -39q-47 -67 -110 -67q-30 0 -54 18q-30 24 -30 60v3q0 16 17 70q31 96 31 130q0 24 -9 44q-19 34 -60 34q-39 0 -67 -33q-33 -42 -33 -99q0 -45 16 -82l-61 -262q-13 -53 -13 -110v-9q0 -43 6 -94q0 -8 6 -9h1h3q3 3 17 21q29 42 47 75q15 28 29 64 q13 47 39 153q4 -7 13 -18q15 -13 24 -19q44 -27 89 -27q1 1 3 1h1q44 0 89 17q75 30 124 105q61 98 61 230q0 51 -18 101q-37 93 -124 147q-82 49 -184 49q-135 0 -232 -69q-17 -10 -45 -37q-26 -29 -36 -45q-56 -83 -56 -171z" />
<glyph unicode="&#xc2;" d="M50 0v1408h1408v-1408h-1408zM129 79h1250v1250h-1250v-1250zM301 691q0 -79 50 -144q24 -29 40 -39q53 -37 113 -37h1q78 0 138 60q34 36 47 71q17 43 17 90q0 88 -59 155q-23 24 -37 33q-51 32 -107 32q-77 0 -138 -59q-65 -69 -65 -162zM810 695q0 -90 63 -158 q30 -27 50 -37q46 -23 91 -23h8q63 0 122 43q27 23 41 42q42 62 42 127v10q0 69 -46 132q-39 52 -106 73q-30 8 -56 8q-84 0 -149 -65q-60 -66 -60 -152z" />
<glyph unicode="&#xc3;" d="M50 0v1408h1408v-1408h-1408zM129 79h1250v1250h-1250v-1250zM330 1016q0 -45 36 -77q29 -24 66 -24q47 0 79 39q21 28 21 63q0 51 -45 84q-27 16 -56 16q-45 0 -77 -36q-24 -29 -24 -65zM344 277h175v561h-175v-561zM628 277h174v261q0 74 11 100q22 61 91 61h1h1h3h2 q53 0 74 -49q9 -25 9 -36q3 -13 3 -83v-254h175v313q0 143 -50 202q-49 61 -161 61q-70 0 -125 -44q-21 -19 -27 -28q-7 -11 -12 -20h-1q-1 0 -1 1v76h-167v-561z" />
<glyph unicode="&#xc4;" d="M50 0v1408h1408v-1408h-1408zM129 79h1250v1250h-1250v-1250zM498 766q0 -1 1 -1h89v-289q0 -41 15 -83q29 -76 96 -116q63 -39 148 -39h3q58 0 118 25q17 6 29 16q4 2 12 11q-4 14 -43 127l-10 -5q-37 -11 -62 -11h-5q-37 0 -58 22q-22 24 -22 67v275h178v1v134h-178 v226v1h-130q-3 0 -7 -6q-1 -24 -5 -41q-6 -22 -13 -43q-11 -31 -28 -56q-6 -12 -19 -26q-3 -3 -19 -21q-19 -16 -34 -26q-24 -15 -47 -25l-9 -2v-115z" />
<glyph unicode="&#xc5;" d="M50 0v1408h1408v-1408h-1408zM129 79h1250v1250h-1250v-1250zM292 903q0 -6 2 -13q36 -81 77 -156q34 -62 72 -117q22 -34 56 -73q18 -22 41 -42q21 -17 38 -28q28 -19 56 -30q58 -22 105 -22h59q4 0 15 4q10 5 15 13q2 3 3 15q0 35 9 60q4 10 8 16q11 13 22 13h2 q18 0 49 -36q24 -28 41 -45q16 -16 24 -21q30 -21 56 -21q5 0 8 1l121 1q4 0 12 2q31 8 31 28v2q0 5 -2 12q-5 12 -14 25q-10 15 -40 49q-11 11 -32 33q-29 26 -36 32q-27 26 -27 42v2q0 14 17 37q0 1 57 76q77 102 77 138q0 7 -2 11q-7 11 -34 11h-3h-10l-138 -1h-7t-7 -2 q-10 -1 -16 -14q-10 -21 -17 -41q-17 -38 -32 -62q-65 -112 -94 -112q-4 0 -7 1q-17 12 -17 57v1v53q2 63 3 78q0 29 -5 39q-6 11 -18 17q-10 4 -12 4q-19 6 -76 6h-11q-62 0 -85 -10q-7 -2 -16 -9q-12 -11 -12 -16v-1l1 -1q11 -2 16 -5q20 -7 28 -19q4 -8 6 -18q3 -9 5 -23 q2 -35 2 -53v-3v-2v-1v-4q0 -47 -9 -72q-6 -21 -21 -21q-24 0 -76 85q-37 61 -62 122q-6 17 -18 23q-11 4 -16 5q-20 -1 -131 -1q-9 0 -19 -3q-12 -4 -12 -16z" />
<glyph unicode="&#xc6;" d="M50 0v1408h1408v-1408h-1408zM129 79h1250v1250h-1250v-1250zM272 655q0 -56 7 -135q2 -24 8 -43q7 -31 16 -47q15 -31 48 -48q11 -6 27 -10q13 -3 37 -7q16 -3 90 -6q175 -5 254 -5q73 0 187 3q149 5 170 9q23 5 40 13q10 5 20 13q11 8 21 19q12 16 19 37q7 19 13 48 q10 88 10 159v78q0 69 -9 156q-7 32 -12 45q-9 30 -26 48q-14 14 -19 16q-12 9 -25 15q-10 4 -26 8q-20 4 -67 7q-147 6 -299 6q-77 0 -177 -3q-94 -2 -149 -6q-31 -2 -42 -5q-30 -5 -52 -22q-13 -10 -23 -22q-9 -12 -18 -36q-7 -19 -14 -51q-9 -88 -9 -156v-78zM656 569 v271q4 -1 213 -111q47 -24 48 -26l-44 -21q-2 -2 -217 -113z" />
<glyph unicode="&#xc7;" d="M50 0v1408h1408v-1408h-1408zM129 79h1250v1250h-1250v-1250zM283 465v1q0 12 20 13q11 0 58 21q28 14 61 45q40 42 56 72q22 38 22 57q0 36 -72 54q-47 19 -47 41q0 20 34 29h5q7 0 32 -11q15 -4 29 -4q15 0 26 7q-5 80 -5 114v10q0 83 30 125q40 72 126 105 q45 16 89 16h24q82 0 154 -53q38 -32 52 -56q29 -46 32 -74q5 -28 5 -69q0 -31 -5 -118q12 -7 24 -7q18 0 50 14q5 1 11 1q25 0 39 -21q2 -7 2 -9q0 -27 -79 -50q-40 -16 -40 -44q0 -30 49 -97q30 -36 56 -55q51 -37 100 -44q12 -3 12 -12q0 -34 -125 -54q-5 0 -17 -53 q-5 -9 -14 -9l-55 8q-8 1 -18 1h-2q-58 0 -94 -29q-45 -33 -70 -45q-35 -17 -75 -17h-10q-62 0 -121 45q-58 44 -96 44q-8 2 -24 2q-21 0 -73 -9q-16 0 -19 30q-6 33 -16 33q-53 9 -82 19q-39 17 -39 33z" />
<glyph unicode="&#xc8;" d="M50 702v4q0 218 130 406q25 35 55 68q46 48 65 62q69 56 112 77q160 89 340 89h4q218 0 406 -130q35 -25 68 -55q48 -46 62 -65q56 -69 77 -112q89 -160 89 -340v-4q0 -218 -130 -406q-25 -35 -55 -68q-46 -48 -65 -62q-69 -56 -112 -77q-160 -89 -340 -89h-4 q-218 0 -406 130q-35 25 -68 55q-48 46 -62 65q-56 69 -77 112q-89 160 -89 340zM350 433q0 -13 7 -24q19 -32 49 -32h696q13 0 25 7q31 19 31 49v523q0 13 -6 24q-20 32 -50 32h-701q-5 0 -14 -4q-37 -19 -37 -50v-525zM466 493v328l288 -230l288 230h1v-328h-577zM559 896 h390l-195 -155q-191 151 -195 155z" />
<glyph unicode="&#xc9;" d="M50 702v4q0 218 130 406q25 35 55 68q46 48 65 62q69 56 112 77q160 89 340 89h4q218 0 406 -130q35 -25 68 -55q48 -46 62 -65q56 -69 77 -112q89 -160 89 -340v-4q0 -218 -130 -406q-25 -35 -55 -68q-46 -48 -65 -62q-69 -56 -112 -77q-160 -89 -340 -89h-4 q-218 0 -406 130q-35 25 -68 55q-48 46 -62 65q-56 69 -77 112q-89 160 -89 340zM383 451q0 -33 26 -69q44 -53 101 -53q48 0 87 36q41 42 41 86v12q0 32 -24 67q-44 55 -103 55q-43 0 -83 -33q-45 -44 -45 -89v-12zM383 774q0 -30 27 -51q14 -13 63 -13q59 -4 117 -33 q34 -13 88 -65q48 -53 71 -115q8 -26 15 -66q2 -63 7 -63q19 -39 57 -39h64l2 2v73q0 62 -25 138q-58 151 -185 231q-114 67 -226 67h-73l-2 -2v-64zM383 1029q0 -22 16 -41q13 -15 38 -21q70 0 141 -15q45 -11 92 -30q181 -79 278 -249q29 -50 55 -136q10 -40 16 -93 q2 -61 5 -71q19 -44 59 -44h64l2 2v73q0 172 -92 337q-33 64 -112 148q-68 64 -114 93q-181 113 -373 113h-73l-2 -2v-64z" />
<glyph unicode="&#xca;" d="M50 704q54 94 149 149q-55 97 -55 203q97 55 203 55v4q0 101 55 199q106 0 203 -55q54 94 148 149h1q14 -6 48 -32q18 -13 50 -46q24 -28 37 -47l14 -23h1q97 54 202 54q55 -97 55 -203h4q99 0 196 -53q3 -2 3 -3q0 -104 -54 -202v-1q92 -53 148 -147v-1q-6 -14 -32 -48 q-13 -18 -46 -50q-28 -24 -47 -37l-23 -14v-1q54 -96 54 -202q-98 -55 -203 -55v-4q0 -99 -53 -196q-2 -3 -3 -3q-104 0 -202 54h-1q-53 -92 -147 -148h-1q-14 7 -46 31q-17 12 -52 48q-21 24 -26 32q-8 10 -25 37h-1q-96 -54 -202 -54q-55 97 -55 203h-6q-89 0 -181 46 l-16 9q0 106 55 203q-30 17 -64 45q-31 29 -40 41q-28 33 -42 57q-3 5 -3 6zM428 473q0 -10 5 -20q16 -26 41 -26h570q10 0 20 5q25 16 25 41v428q0 10 -4 20q-16 26 -41 26h-575q-3 0 -11 -3q-30 -17 -30 -41v-430zM523 522v269l236 -189l236 189v-269h-472zM600 852h319 l-160 -127q-157 124 -159 127z" />
<glyph unicode="&#xcb;" d="M50 704q54 94 149 149q-55 97 -55 203q97 55 203 55v4q0 101 55 199q106 0 203 -55q54 94 148 149h1q14 -6 48 -32q18 -13 50 -46q24 -28 37 -47l14 -23h1q97 54 202 54q55 -97 55 -203h4q99 0 196 -53q3 -2 3 -3q0 -104 -54 -202v-1q92 -53 148 -147v-1q-6 -14 -32 -48 q-13 -18 -46 -50q-28 -24 -47 -37l-23 -14v-1q54 -96 54 -202q-98 -55 -203 -55v-4q0 -99 -53 -196q-2 -3 -3 -3q-104 0 -202 54h-1q-53 -92 -147 -148h-1q-14 7 -46 31q-17 12 -52 48q-21 24 -26 32q-8 10 -25 37h-1q-96 -54 -202 -54q-55 97 -55 203h-6q-89 0 -181 46 l-16 9q0 106 55 203q-30 17 -64 45q-31 29 -40 41q-28 33 -42 57q-3 5 -3 6zM403 450q0 -30 24 -63q40 -48 92 -48q44 0 79 33q38 38 38 78v11q0 29 -22 61q-40 51 -94 51q-39 0 -76 -31q-41 -40 -41 -81v-11zM403 745q0 -27 25 -46q12 -12 57 -12q54 -4 107 -30 q31 -12 80 -60q44 -48 65 -105q7 -23 14 -60q2 -57 6 -57q17 -36 52 -36h58l2 2v66q0 57 -23 126q-52 138 -168 211q-104 61 -207 61h-66l-2 -2v-58zM403 978q0 -20 15 -38q11 -13 34 -19q64 0 129 -13q41 -11 84 -28q165 -72 254 -227q26 -46 50 -124q9 -37 14 -85 q2 -56 5 -65q17 -40 54 -40h58l2 2v66q0 157 -84 308q-30 58 -102 135q-62 58 -104 85q-165 103 -341 103h-66l-2 -2v-58z" />
<glyph unicode="&#xcc;" d="M50 704q134 135 205 205q1 238 1 293h1h216h74q198 198 207 206q136 -135 205 -205q238 -1 293 -1v-1v-216v-74q198 -198 206 -207q-135 -136 -205 -205q-1 -238 -1 -293h-1h-216h-74q-198 -198 -207 -206q-135 134 -205 205q-238 1 -293 1v1v216v74q-198 198 -206 207z M428 482q0 -10 5 -19q16 -26 40 -26h562q10 0 19 5q26 16 26 40v422q0 10 -5 19q-16 26 -40 26h-566q-3 0 -11 -3q-30 -16 -30 -40v-424zM521 530v265l232 -185l233 185h1v-265h-466zM597 856h314l-158 -126q-153 122 -156 126z" />
<glyph unicode="&#xcd;" d="M50 704q134 135 205 205q1 238 1 293h1h216h74q198 198 207 206q136 -135 205 -205q238 -1 293 -1v-1v-216v-74q198 -198 206 -207q-135 -136 -205 -205q-1 -238 -1 -293h-1h-216h-74q-198 -198 -207 -206q-135 134 -205 205q-238 1 -293 1v1v216v74q-198 198 -206 207z M423 466q0 -29 23 -60q39 -47 89 -47q42 0 76 32q36 37 36 75v11q0 28 -21 59q-39 48 -91 48q-37 0 -72 -29q-40 -39 -40 -78v-11zM423 750q0 -26 24 -45q12 -11 55 -11q52 -4 103 -29q30 -12 77 -57q42 -47 63 -101q7 -23 13 -58q2 -56 6 -56q17 -34 50 -34h56l2 2v64 q0 54 -22 121q-51 133 -163 203q-100 59 -198 59h-64l-2 -2v-56zM423 974q0 -19 14 -36q11 -13 33 -18q62 0 124 -14q40 -9 81 -26q159 -69 244 -219q26 -44 49 -119q9 -35 14 -82q2 -54 4 -62q17 -39 52 -39h56l2 2v64q0 151 -81 296q-29 56 -98 130q-60 56 -100 82 q-159 99 -328 99h-64l-2 -2v-56z" />
<glyph unicode="&#xce;" horiz-adv-x="1321" d="M50 352v704q237 137 487 281q121 70 123 71l387 -223l224 -129v-704q-237 -137 -487 -281q-121 -70 -123 -71l-387 223zM317 471q0 -11 6 -20q16 -27 41 -27h591q10 0 20 6q26 16 26 41v444q0 11 -5 20q-16 27 -41 27h-595q-4 0 -12 -3q-31 -17 -31 -43v-445zM415 522 v278l245 -194l243 194h1v-278h-489zM495 864h330l-165 -132q-162 129 -165 132z" />
<glyph unicode="&#xcf;" horiz-adv-x="1321" d="M50 352v704q237 137 487 281q121 70 123 71l387 -223l224 -129v-704q-237 -137 -487 -281q-121 -70 -123 -71l-387 223zM300 458q0 -32 25 -66q42 -51 97 -51q46 0 83 35q40 40 40 82v12q0 30 -23 64q-43 53 -99 53q-41 0 -80 -32q-43 -42 -43 -85v-12zM300 768 q0 -29 26 -49q13 -12 60 -12q57 -4 113 -32q32 -13 84 -62q46 -51 68 -111q8 -25 15 -63q2 -61 6 -61q19 -37 55 -37h61l2 2v70q0 59 -24 132q-55 145 -177 222q-110 64 -217 64h-70l-2 -2v-61zM300 1013q0 -21 15 -40q13 -14 37 -20q67 0 135 -14q43 -11 88 -29 q174 -76 267 -239q28 -48 53 -130q10 -39 15 -90q2 -58 5 -68q18 -42 57 -42h61l2 2v70q0 165 -88 323q-32 62 -108 142q-65 62 -109 90q-174 108 -358 108h-70l-2 -2v-61z" />
<glyph unicode="&#xd0;" d="M50 170v1068q0 90 70 142q39 28 90 28h1088q85 0 135 -75q25 -42 25 -95v-1068q0 -90 -70 -142q-39 -28 -90 -28h-1088q-85 0 -135 75q-25 42 -25 95zM330 413q0 -14 7 -26q21 -34 53 -34h741q13 0 26 7q33 21 33 53v556q0 14 -6 26q-21 34 -53 34h-747q-5 0 -15 -4 q-39 -21 -39 -53v-559zM453 476v350l307 -245l307 245h1v-350h-615zM553 906h415l-208 -166q-203 161 -207 166z" />
<glyph unicode="&#xd1;" d="M50 170v1068q0 90 70 142q39 28 90 28h1088q85 0 135 -75q25 -42 25 -95v-1068q0 -90 -70 -142q-39 -28 -90 -28h-1088q-85 0 -135 75q-25 42 -25 95zM360 435q0 -35 27 -73q47 -56 107 -56q50 0 91 38q44 44 44 91v12q0 34 -26 71q-46 58 -108 58q-45 0 -88 -35 q-47 -46 -47 -94v-12zM360 775q0 -32 28 -54q15 -14 67 -14q62 -4 123 -34q36 -14 93 -69q50 -56 75 -121q8 -27 15 -70q3 -66 8 -66q20 -41 60 -41h67l2 2v77q0 65 -26 145q-61 159 -195 244q-120 70 -238 70h-77l-2 -2v-67zM360 1043q0 -23 17 -43q14 -16 40 -22 q74 0 148 -16q48 -11 97 -31q191 -83 293 -263q31 -52 58 -143q11 -42 17 -98q2 -64 5 -75q20 -46 62 -46h68l2 2v77q0 181 -97 355q-35 67 -118 156q-72 67 -120 98q-191 119 -393 119h-77l-2 -2v-68z" />
<glyph unicode="&#xd2;" d="M50 0v1408h1408v-1408h-1408zM333 424q0 -14 7 -26q21 -34 53 -34h741q13 0 26 7q33 21 33 53v556q0 14 -6 26q-21 34 -53 34h-747q-5 0 -15 -4q-39 -21 -39 -53v-559zM456 487v350l307 -245l307 245h1v-350h-615zM556 917h415l-208 -166q-203 161 -207 166z" />
<glyph unicode="&#xd3;" d="M50 0v1408h1408v-1408h-1408zM346 432q0 -36 28 -75q48 -58 110 -58q52 0 95 39q44 46 44 94v13q0 35 -26 73q-48 59 -112 59q-47 0 -90 -35q-49 -48 -49 -97v-13zM346 783q0 -33 29 -56q16 -14 69 -14q64 -4 127 -36q37 -14 96 -70q52 -58 77 -125q9 -29 16 -72 q3 -69 8 -69q21 -42 62 -42h70l2 2v80q0 67 -27 150q-64 164 -202 251q-124 73 -245 73h-80l-2 -2v-70zM346 1060q0 -24 17 -44q15 -17 42 -23q76 0 153 -17q49 -11 100 -32q197 -86 302 -271q32 -54 60 -148q11 -43 18 -101q2 -66 5 -77q21 -48 64 -48h70l2 2v80 q0 187 -100 366q-36 70 -122 161q-74 70 -124 101q-197 123 -405 123h-80l-2 -2v-70z" />
<glyph unicode="&#xd4;" d="M50 700v8q0 214 126 400q27 38 66 80q49 50 70 65q50 39 85 59q167 96 353 96h8q214 0 400 -126q38 -27 80 -66q50 -49 65 -70q39 -50 59 -85q96 -167 96 -353v-8q0 -214 -126 -400q-27 -38 -66 -80q-49 -50 -70 -65q-50 -39 -85 -59q-167 -96 -353 -96h-8 q-214 0 -400 126q-38 27 -80 66q-50 49 -65 70q-39 50 -59 85q-96 167 -96 353zM124 700q0 -166 86 -315q18 -32 53 -76q13 -20 58 -63q38 -35 71 -59q167 -113 358 -113h8q166 0 315 86q32 18 76 53q20 13 63 58q35 38 59 71q113 167 113 358v8q0 166 -86 315 q-18 32 -53 76q-13 20 -58 63q-38 35 -71 59q-167 113 -358 113h-8q-166 0 -315 -86q-32 -18 -76 -53q-20 -13 -63 -58q-35 -38 -59 -71q-113 -167 -113 -358v-8zM399 453q0 -12 6 -22q17 -28 44 -28h621q11 0 21 6q28 17 28 44v466q0 12 -5 22q-17 28 -44 28h-626 q-4 0 -12 -4q-33 -17 -33 -44v-468zM502 506v293l257 -205l257 205h1v-293h-515zM584 866h347l-174 -139q-170 135 -173 139z" />
<glyph unicode="&#xd5;" d="M50 700v8q0 214 126 400q27 38 66 80q49 50 70 65q50 39 85 59q167 96 353 96h8q214 0 400 -126q38 -27 80 -66q50 -49 65 -70q39 -50 59 -85q96 -167 96 -353v-8q0 -214 -126 -400q-27 -38 -66 -80q-49 -50 -70 -65q-50 -39 -85 -59q-167 -96 -353 -96h-8 q-214 0 -400 126q-38 27 -80 66q-50 49 -65 70q-39 50 -59 85q-96 167 -96 353zM124 700q0 -166 86 -315q18 -32 53 -76q13 -20 58 -63q38 -35 71 -59q167 -113 358 -113h8q166 0 315 86q32 18 76 53q20 13 63 58q35 38 59 71q113 167 113 358v8q0 166 -86 315 q-18 32 -53 76q-13 20 -58 63q-38 35 -71 59q-167 113 -358 113h-8q-166 0 -315 -86q-32 -18 -76 -53q-20 -13 -63 -58q-35 -38 -59 -71q-113 -167 -113 -358v-8zM395 452q0 -31 25 -66q42 -51 97 -51q46 0 84 35q39 40 39 82v12q0 31 -23 64q-42 53 -99 53q-41 0 -80 -31 q-43 -43 -43 -86v-12zM395 763q0 -29 26 -49q13 -12 61 -12q56 -4 112 -32q33 -13 85 -63q46 -51 68 -110q8 -25 15 -64q2 -60 6 -60q19 -38 55 -38h62l2 2v70q0 60 -24 133q-56 145 -178 222q-110 65 -218 65h-70l-2 -2v-62zM395 1008q0 -21 15 -39q13 -14 37 -20 q67 0 136 -15q43 -10 88 -28q174 -76 268 -240q28 -48 53 -131q9 -38 15 -89q2 -59 5 -69q18 -42 56 -42h62l2 2v70q0 166 -89 324q-31 62 -107 143q-66 61 -110 89q-174 109 -359 109h-70l-2 -2v-62z" />
<glyph unicode="&#xd6;" d="M50 704q54 94 149 149q-55 97 -55 203q97 55 203 55v4q0 101 55 199q106 0 203 -55q54 94 148 149h1q14 -6 48 -32q18 -13 50 -46q24 -28 37 -47l14 -23h1q97 54 202 54q55 -97 55 -203h4q99 0 196 -53q3 -2 3 -3q0 -104 -54 -202v-1q92 -53 148 -147v-1q-6 -14 -32 -48 q-13 -18 -46 -50q-28 -24 -47 -37l-23 -14v-1q54 -96 54 -202q-98 -55 -203 -55v-4q0 -99 -53 -196q-2 -3 -3 -3q-104 0 -202 54h-1q-53 -92 -147 -148h-1q-14 7 -46 31q-17 12 -52 48q-21 24 -26 32q-8 10 -25 37h-1q-96 -54 -202 -54q-55 97 -55 203h-6q-89 0 -181 46 l-16 9q0 106 55 203q-30 17 -64 45q-31 29 -40 41q-28 33 -42 57q-3 5 -3 6zM144 704q0 -1 3 -5q12 -21 36 -49q8 -11 35 -37q29 -23 55 -38q-47 -84 -47 -176l13 -8q80 -39 157 -39h6q0 -93 47 -176q92 0 175 46h1q15 -23 22 -32q4 -6 22 -27q31 -32 45 -42q28 -21 40 -27 h1q82 48 127 128h1q85 -46 175 -46q1 0 3 2q45 84 45 170v4q92 0 176 47q0 92 -46 175v1l20 12q17 12 40 32q29 28 40 44q23 29 28 41v1q-48 82 -128 127v1q46 85 46 175q0 1 -2 3q-84 45 -170 45h-4q0 93 -47 176q-91 0 -175 -46h-1l-12 20q-12 17 -32 40q-28 29 -44 40 q-29 23 -41 28h-1q-82 -47 -128 -129q-84 47 -176 47q-47 -84 -47 -172v-4q-93 0 -176 -47q0 -91 47 -176q-82 -47 -129 -129zM441 482q0 -10 5 -19q16 -25 39 -25h542q9 0 19 5q23 16 23 39v406q0 10 -4 19q-15 25 -38 25h-546q-5 0 -11 -3q-29 -15 -29 -39v-408zM531 528 v256l224 -179l225 179v-256h-449zM604 842h303l-152 -121q-148 118 -151 121z" />
<glyph unicode="&#xd7;" d="M50 704q54 94 149 149q-55 97 -55 203q97 55 203 55v4q0 101 55 199q106 0 203 -55q54 94 148 149h1q14 -6 48 -32q18 -13 50 -46q24 -28 37 -47l14 -23h1q97 54 202 54q55 -97 55 -203h4q99 0 196 -53q3 -2 3 -3q0 -104 -54 -202v-1q92 -53 148 -147v-1q-6 -14 -32 -48 q-13 -18 -46 -50q-28 -24 -47 -37l-23 -14v-1q54 -96 54 -202q-98 -55 -203 -55v-4q0 -99 -53 -196q-2 -3 -3 -3q-104 0 -202 54h-1q-53 -92 -147 -148h-1q-14 7 -46 31q-17 12 -52 48q-21 24 -26 32q-8 10 -25 37h-1q-96 -54 -202 -54q-55 97 -55 203h-6q-89 0 -181 46 l-16 9q0 106 55 203q-30 17 -64 45q-31 29 -40 41q-28 33 -42 57q-3 5 -3 6zM144 704q0 -1 3 -5q12 -21 36 -49q8 -11 35 -37q29 -23 55 -38q-47 -84 -47 -176l13 -8q80 -39 157 -39h6q0 -93 47 -176q92 0 175 46h1q15 -23 22 -32q4 -6 22 -27q31 -32 45 -42q28 -21 40 -27 h1q82 48 127 128h1q85 -46 175 -46q1 0 3 2q45 84 45 170v4q92 0 176 47q0 92 -46 175v1l20 12q17 12 40 32q29 28 40 44q23 29 28 41v1q-48 82 -128 127v1q46 85 46 175q0 1 -2 3q-84 45 -170 45h-4q0 93 -47 176q-91 0 -175 -46h-1l-12 20q-12 17 -32 40q-28 29 -44 40 q-29 23 -41 28h-1q-82 -47 -128 -129q-84 47 -176 47q-47 -84 -47 -172v-4q-93 0 -176 -47q0 -91 47 -176q-82 -47 -129 -129zM437 484q0 -27 21 -57q37 -44 84 -44q40 0 72 30q34 34 34 71v10q0 26 -20 55q-37 46 -85 46q-36 0 -69 -28q-37 -36 -37 -73v-10zM437 751 q0 -25 22 -43q12 -10 53 -10q48 -3 96 -28q28 -10 73 -53q39 -44 59 -95q6 -22 12 -55q2 -52 5 -52q16 -32 48 -32h52l2 2v60q0 52 -20 114q-49 125 -153 191q-95 55 -187 55h-60l-2 -2v-52zM437 962q0 -19 14 -34q10 -13 31 -18q58 0 116 -12q37 -9 76 -25 q149 -65 230 -206q24 -41 46 -112q7 -33 12 -77q2 -50 5 -59q16 -36 49 -36h52l2 2v60q0 142 -76 279q-27 52 -93 122q-56 53 -94 77q-150 93 -308 93h-60l-2 -2v-52z" />
<glyph unicode="&#xd8;" d="M50 704q134 135 205 205q1 238 1 293h1h216h74q198 198 207 206q136 -135 205 -205q238 -1 293 -1v-1v-216v-74q198 -198 206 -207q-135 -136 -205 -205q-1 -238 -1 -293h-1h-216h-74q-198 -198 -207 -206q-135 134 -205 205q-238 1 -293 1v1v216v74q-198 198 -206 207z M147 704q6 -8 177 -178v-64v-187v-1h253q60 -62 177 -177q8 6 178 177h64h187h1v253q61 59 178 177q-7 8 -178 178v64v187v1h-253q-59 61 -177 178q-8 -7 -178 -178h-64h-187h-1v-253q-62 -60 -177 -177zM442 501q0 -10 5 -19q15 -24 38 -24h533q10 0 18 5q25 15 25 38v400 q0 10 -5 19q-15 24 -38 24h-537q-4 0 -11 -3q-28 -15 -28 -38v-402zM531 547v251l220 -176l221 176h1v-251h-442zM603 855h298l-150 -119q-146 116 -148 119z" />
<glyph unicode="&#xd9;" d="M50 704q134 135 205 205q1 238 1 293h1h216h74q198 198 207 206q136 -135 205 -205q238 -1 293 -1v-1v-216v-74q198 -198 206 -207q-135 -136 -205 -205q-1 -238 -1 -293h-1h-216h-74q-198 -198 -207 -206q-135 134 -205 205q-238 1 -293 1v1v216v74q-198 198 -206 207z M147 704q6 -8 177 -178v-64v-187v-1h253q60 -62 177 -177q8 6 178 177h64h187h1v253q61 59 178 177q-7 8 -178 178v64v187v1h-253q-59 61 -177 178q-8 -7 -178 -178h-64h-187h-1v-253q-62 -60 -177 -177zM426 481q0 -29 23 -60q38 -46 87 -46q41 0 75 31q36 37 36 75v10 q0 28 -21 58q-38 48 -89 48q-37 0 -72 -29q-39 -38 -39 -77v-10zM426 760q0 -26 23 -44q12 -11 55 -11q51 -4 101 -29q30 -11 76 -56q42 -46 62 -100q7 -22 13 -57q2 -54 6 -54q16 -34 49 -34h56l1 2v63q0 54 -21 119q-51 131 -160 200q-99 58 -196 58h-63l-2 -1v-56z M426 981q0 -19 14 -36q11 -13 33 -18q60 0 122 -13q39 -9 79 -26q157 -68 241 -215q25 -44 48 -118q8 -35 13 -80q2 -53 5 -62q16 -38 51 -38h55l2 2v63q0 149 -80 292q-28 55 -97 128q-58 55 -98 80q-157 98 -323 98h-63l-2 -2v-55z" />
<glyph unicode="&#xda;" horiz-adv-x="1321" d="M50 352v704q237 137 487 281q121 70 123 71l387 -223l224 -129v-704q-237 -137 -487 -281q-121 -70 -123 -71l-387 223zM123 394l197 -114l341 -196q2 1 108 63q220 126 429 247v620l-197 114l-341 196q-2 -1 -108 -63q-220 -126 -429 -247v-620zM341 481q0 -10 6 -20 q15 -25 39 -25h555q11 0 20 6q25 15 25 39v417q0 10 -5 20q-15 25 -40 25h-559q-4 0 -12 -3q-29 -16 -29 -39v-420zM434 529v262l230 -184l229 184h1v-262h-460zM508 850h312l-156 -124q-153 121 -156 124z" />
<glyph unicode="&#xdb;" horiz-adv-x="1321" d="M50 352v704q237 137 487 281q121 70 123 71l387 -223l224 -129v-704q-237 -137 -487 -281q-121 -70 -123 -71l-387 223zM123 394l197 -114l341 -196q2 1 108 63q220 126 429 247v620l-197 114l-341 196q-2 -1 -108 -63q-220 -126 -429 -247v-620zM330 476q0 -28 22 -59 q38 -46 88 -46q41 0 75 31q35 36 35 74v11q0 27 -20 58q-38 47 -89 47q-38 0 -72 -28q-39 -38 -39 -77v-11zM330 756q0 -26 23 -44q12 -12 55 -12q51 -3 101 -28q29 -11 76 -56q41 -46 61 -100q7 -22 13 -57q2 -54 6 -54q17 -34 50 -34h55l2 2v63q0 53 -22 119 q-50 131 -160 200q-98 58 -195 58h-63l-2 -2v-55zM330 976q0 -19 14 -35q11 -13 33 -19q60 0 122 -13q38 -9 79 -26q156 -68 240 -215q25 -43 48 -117q8 -35 14 -81q1 -52 4 -61q16 -38 51 -38h55l2 2v63q0 148 -80 291q-28 55 -96 128q-59 55 -99 80q-156 98 -322 98h-63 l-2 -2v-55z" />
<glyph unicode="&#xdc;" d="M50 167v1074q0 70 55 123q51 44 112 44h1074q70 0 123 -55q44 -51 44 -112v-1074q0 -61 -43 -111q-54 -56 -124 -56h-1073q-75 0 -130 61q-38 50 -38 106zM129 165q0 -50 46 -77q19 -9 41 -9h1076q51 0 77 45q10 20 10 41v1078q0 51 -47 78q-19 8 -39 8h-1078 q-36 0 -61 -24q-25 -26 -25 -62v-1078zM328 427q0 -14 7 -26q21 -34 53 -34h741q13 0 26 7q33 21 33 53v556q0 14 -6 26q-21 34 -53 34h-747q-5 0 -15 -4q-39 -21 -39 -53v-559zM451 490v350l307 -245l307 245h1v-350h-615zM551 920h415l-208 -166q-203 161 -207 166z" />
<glyph unicode="&#xdd;" d="M50 167v1074q0 70 55 123q51 44 112 44h1074q70 0 123 -55q44 -51 44 -112v-1074q0 -61 -43 -111q-54 -56 -124 -56h-1073q-75 0 -130 61q-38 50 -38 106zM129 165q0 -50 46 -77q19 -9 41 -9h1076q51 0 77 45q10 20 10 41v1078q0 51 -47 78q-19 8 -39 8h-1078 q-36 0 -61 -24q-25 -26 -25 -62v-1078zM383 451q0 -33 26 -69q44 -53 101 -53q48 0 87 36q41 42 41 86v12q0 32 -24 67q-44 55 -103 55q-43 0 -83 -33q-45 -44 -45 -89v-12zM383 774q0 -30 27 -51q14 -13 63 -13q59 -4 117 -33q34 -13 88 -65q48 -53 71 -115q8 -26 15 -66 q2 -63 7 -63q19 -39 57 -39h64l2 2v73q0 62 -25 138q-58 151 -185 231q-114 67 -226 67h-73l-2 -2v-64zM383 1029q0 -22 16 -41q13 -15 38 -21q70 0 141 -15q45 -11 92 -30q181 -79 278 -249q29 -50 55 -136q10 -40 16 -93q2 -61 5 -71q19 -44 59 -44h64l2 2v73 q0 172 -92 337q-33 64 -112 148q-68 64 -114 93q-181 113 -373 113h-73l-2 -2v-64z" />
<glyph unicode="&#xde;" d="M50 0v1408h1408v-1408h-1408zM129 79h1250v1250h-1250v-1250zM326 429q0 -14 7 -26q21 -34 53 -34h741q13 0 26 7q33 21 33 53v556q0 14 -6 26q-21 34 -53 34h-747q-5 0 -15 -4q-39 -21 -39 -53v-559zM449 492v350l307 -245l307 245h1v-350h-615zM549 922h415l-208 -166 q-203 161 -207 166z" />
<glyph unicode="&#xdf;" d="M50 0v1408h1408v-1408h-1408zM129 79h1250v1250h-1250v-1250zM375 451q0 -33 26 -69q44 -53 101 -53q48 0 87 36q41 42 41 86v12q0 32 -24 67q-44 55 -103 55q-43 0 -83 -33q-45 -44 -45 -89v-12zM375 774q0 -30 27 -51q14 -13 63 -13q59 -4 117 -33q34 -13 88 -65 q48 -53 71 -115q8 -26 15 -66q2 -63 7 -63q19 -39 57 -39h64l2 2v73q0 62 -25 138q-58 151 -185 231q-114 67 -226 67h-73l-2 -2v-64zM375 1029q0 -22 16 -41q13 -15 38 -21q70 0 141 -15q45 -11 92 -30q181 -79 278 -249q29 -50 55 -136q10 -40 16 -93q2 -61 5 -71 q19 -44 59 -44h64l2 2v73q0 172 -92 337q-33 64 -112 148q-68 64 -114 93q-181 113 -373 113h-73l-2 -2v-64z" />
<glyph unicode="&#xe0;" horiz-adv-x="1408" />
<glyph unicode="&#xe1;" horiz-adv-x="1408" />
<glyph unicode="&#xe2;" horiz-adv-x="1408" />
<glyph unicode="&#xe3;" horiz-adv-x="1408" />
<glyph unicode="&#xe4;" horiz-adv-x="460" />
<glyph unicode="&#xe5;" horiz-adv-x="1408" />
<glyph unicode="&#xe6;" horiz-adv-x="1408" />
<glyph unicode="&#xe7;" horiz-adv-x="1408" />
<glyph unicode="&#xe8;" horiz-adv-x="1408" />
<glyph unicode="&#xe9;" horiz-adv-x="1408" />
<glyph unicode="&#xea;" horiz-adv-x="1408" />
<glyph unicode="&#xeb;" horiz-adv-x="1408" />
<glyph unicode="&#xec;" horiz-adv-x="1408" />
<glyph unicode="&#xed;" horiz-adv-x="1408" />
<glyph unicode="&#xee;" horiz-adv-x="1408" />
<glyph unicode="&#xef;" horiz-adv-x="1408" />
<glyph unicode="&#xf0;" horiz-adv-x="1139" />
<glyph unicode="&#xf1;" horiz-adv-x="1108" />
<glyph unicode="&#xf2;" horiz-adv-x="1010" />
<glyph unicode="&#xf3;" horiz-adv-x="1010" />
<glyph unicode="&#xf4;" horiz-adv-x="1010" />
<glyph unicode="&#xf5;" horiz-adv-x="1010" />
<glyph unicode="&#xf6;" horiz-adv-x="1010" />
<glyph unicode="&#xf7;" horiz-adv-x="1014" />
<glyph unicode="&#xf8;" horiz-adv-x="1408" />
<glyph unicode="&#xf9;" horiz-adv-x="1408" />
<glyph unicode="&#xfa;" horiz-adv-x="1059" />
<glyph unicode="&#xfb;" horiz-adv-x="1059" />
<glyph unicode="&#xfc;" horiz-adv-x="1059" />
<glyph unicode="&#xfd;" />
<glyph unicode="&#xfe;" />
<glyph unicode="&#xff;" />
<glyph unicode="&#x131;" />
<glyph unicode="&#x2c6;" />
<glyph unicode="&#x2c7;" />
<glyph unicode="&#x2c9;" horiz-adv-x="1321" />
<glyph unicode="&#x2d8;" horiz-adv-x="1321" />
<glyph unicode="&#x2d9;" />
<glyph unicode="&#x2da;" />
<glyph unicode="&#x2db;" />
<glyph unicode="&#x2dc;" />
<glyph unicode="&#x2dd;" />
<glyph unicode="&#x2000;" horiz-adv-x="705" />
<glyph unicode="&#x2001;" horiz-adv-x="1410" />
<glyph unicode="&#x2002;" horiz-adv-x="705" />
<glyph unicode="&#x2003;" horiz-adv-x="1410" />
<glyph unicode="&#x2004;" horiz-adv-x="470" />
<glyph unicode="&#x2005;" horiz-adv-x="352" />
<glyph unicode="&#x2006;" horiz-adv-x="235" />
<glyph unicode="&#x2007;" horiz-adv-x="235" />
<glyph unicode="&#x2008;" horiz-adv-x="176" />
<glyph unicode="&#x2009;" horiz-adv-x="282" />
<glyph unicode="&#x200a;" horiz-adv-x="78" />
<glyph unicode="&#x2010;" d="M50 704q54 94 149 149q-55 97 -55 203q97 55 203 55v4q0 101 55 199q106 0 203 -55q54 94 148 149h1q14 -6 48 -32q18 -13 50 -46q24 -28 37 -47l14 -23h1q97 54 202 54q55 -97 55 -203h4q99 0 196 -53q3 -2 3 -3q0 -104 -54 -202v-1q92 -53 148 -147v-1q-6 -14 -32 -48 q-13 -18 -46 -50q-28 -24 -47 -37l-23 -14v-1q54 -96 54 -202q-98 -55 -203 -55v-4q0 -99 -53 -196q-2 -3 -3 -3q-104 0 -202 54h-1q-53 -92 -147 -148h-1q-14 7 -46 31q-17 12 -52 48q-21 24 -26 32q-8 10 -25 37h-1q-96 -54 -202 -54q-55 97 -55 203h-6q-89 0 -181 46 l-16 9q0 106 55 203q-30 17 -64 45q-31 29 -40 41q-28 33 -42 57q-3 5 -3 6zM386 415q47 -31 102 -49q77 -27 157 -27q128 0 237 59q34 20 75 54q39 35 53 54q33 42 56 85q16 29 30 68q28 81 28 153v24v5q14 9 47 41q23 25 37 45h-1q-32 -13 -66 -21q-26 -4 -29 -4v1 q11 4 36 27q28 34 37 65q-33 -20 -69 -31q-32 -10 -38 -10q-24 23 -36 28q-41 25 -86 25h-1q-67 0 -118 -49q-51 -51 -51 -118v-4q0 -15 5 -36h-1q-19 0 -73 9q-46 11 -81 25q-38 15 -81 42q-33 21 -74 59q-21 21 -38 41q-23 -41 -23 -81v-7q0 -55 40 -105q21 -23 34 -30v-1 q-35 0 -75 20v-4q0 -67 51 -119q32 -29 59 -37q19 -7 23 -7q0 -2 -18 -4q-12 -2 -18 -2h-4h-2h-3h-1q-12 0 -28 2q20 -58 69 -89q43 -27 87 -27q-24 -21 -47 -32q-78 -40 -155 -40h-12q-16 0 -34 2z" />
<glyph unicode="&#x2011;" d="M50 704q54 94 149 149q-55 97 -55 203q97 55 203 55v4q0 101 55 199q106 0 203 -55q54 94 148 149h1q14 -6 48 -32q18 -13 50 -46q24 -28 37 -47l14 -23h1q97 54 202 54q55 -97 55 -203h4q99 0 196 -53q3 -2 3 -3q0 -104 -54 -202v-1q92 -53 148 -147v-1q-6 -14 -32 -48 q-13 -18 -46 -50q-28 -24 -47 -37l-23 -14v-1q54 -96 54 -202q-98 -55 -203 -55v-4q0 -99 -53 -196q-2 -3 -3 -3q-104 0 -202 54h-1q-53 -92 -147 -148h-1q-14 7 -46 31q-17 12 -52 48q-21 24 -26 32q-8 10 -25 37h-1q-96 -54 -202 -54q-55 97 -55 203h-6q-89 0 -181 46 l-16 9q0 106 55 203q-30 17 -64 45q-31 29 -40 41q-28 33 -42 57q-3 5 -3 6zM386 415q47 -31 102 -49q77 -27 157 -27q128 0 237 59q34 20 75 54q39 35 53 54q33 42 56 85q16 29 30 68q28 81 28 153v24v5q14 9 47 41q23 25 37 45h-1q-32 -13 -66 -21q-26 -4 -29 -4v1 q11 4 36 27q28 34 37 65q-33 -20 -69 -31q-32 -10 -38 -10q-24 23 -36 28q-41 25 -86 25h-1q-67 0 -118 -49q-51 -51 -51 -118v-4q0 -15 5 -36h-1q-19 0 -73 9q-46 11 -81 25q-38 15 -81 42q-33 21 -74 59q-21 21 -38 41q-23 -41 -23 -81v-7q0 -55 40 -105q21 -23 34 -30v-1 q-35 0 -75 20v-4q0 -67 51 -119q32 -29 59 -37q19 -7 23 -7q0 -2 -18 -4q-12 -2 -18 -2h-4h-2h-3h-1q-12 0 -28 2q20 -58 69 -89q43 -27 87 -27q-24 -21 -47 -32q-78 -40 -155 -40h-12q-16 0 -34 2z" />
<glyph unicode="&#x2012;" d="M50 704q54 94 149 149q-55 97 -55 203q97 55 203 55v4q0 101 55 199q106 0 203 -55q54 94 148 149h1q14 -6 48 -32q18 -13 50 -46q24 -28 37 -47l14 -23h1q97 54 202 54q55 -97 55 -203h4q99 0 196 -53q3 -2 3 -3q0 -104 -54 -202v-1q92 -53 148 -147v-1q-6 -14 -32 -48 q-13 -18 -46 -50q-28 -24 -47 -37l-23 -14v-1q54 -96 54 -202q-98 -55 -203 -55v-4q0 -99 -53 -196q-2 -3 -3 -3q-104 0 -202 54h-1q-53 -92 -147 -148h-1q-14 7 -46 31q-17 12 -52 48q-21 24 -26 32q-8 10 -25 37h-1q-96 -54 -202 -54q-55 97 -55 203h-6q-89 0 -181 46 l-16 9q0 106 55 203q-30 17 -64 45q-31 29 -40 41q-28 33 -42 57q-3 5 -3 6zM386 415q47 -31 102 -49q77 -27 157 -27q128 0 237 59q34 20 75 54q39 35 53 54q33 42 56 85q16 29 30 68q28 81 28 153v24v5q14 9 47 41q23 25 37 45h-1q-32 -13 -66 -21q-26 -4 -29 -4v1 q11 4 36 27q28 34 37 65q-33 -20 -69 -31q-32 -10 -38 -10q-24 23 -36 28q-41 25 -86 25h-1q-67 0 -118 -49q-51 -51 -51 -118v-4q0 -15 5 -36h-1q-19 0 -73 9q-46 11 -81 25q-38 15 -81 42q-33 21 -74 59q-21 21 -38 41q-23 -41 -23 -81v-7q0 -55 40 -105q21 -23 34 -30v-1 q-35 0 -75 20v-4q0 -67 51 -119q32 -29 59 -37q19 -7 23 -7q0 -2 -18 -4q-12 -2 -18 -2h-4h-2h-3h-1q-12 0 -28 2q20 -58 69 -89q43 -27 87 -27q-24 -21 -47 -32q-78 -40 -155 -40h-12q-16 0 -34 2z" />
<glyph unicode="&#x2013;" />
<glyph unicode="&#x2014;" />
<glyph unicode="&#x2018;" />
<glyph unicode="&#x2019;" />
<glyph unicode="&#x201a;" />
<glyph unicode="&#x201c;" horiz-adv-x="1321" />
<glyph unicode="&#x201d;" horiz-adv-x="1321" />
<glyph unicode="&#x201e;" />
<glyph unicode="&#x2020;" />
<glyph unicode="&#x2021;" />
<glyph unicode="&#x2022;" />
<glyph unicode="&#x2026;" horiz-adv-x="2048" />
<glyph unicode="&#x202f;" horiz-adv-x="282" />
<glyph unicode="&#x2039;" horiz-adv-x="631" />
<glyph unicode="&#x203a;" horiz-adv-x="631" />
<glyph unicode="&#x2044;" horiz-adv-x="342" />
<glyph unicode="&#x205f;" horiz-adv-x="352" />
<glyph unicode="&#x20a3;" horiz-adv-x="1014" />
<glyph unicode="&#x20a4;" horiz-adv-x="1014" />
<glyph unicode="&#x20a7;" horiz-adv-x="2028" />
<glyph unicode="&#x20ac;" horiz-adv-x="1014" />
<glyph unicode="&#x2116;" horiz-adv-x="2271" />
<glyph unicode="&#x2122;" horiz-adv-x="1497" />
<glyph unicode="&#x2202;" horiz-adv-x="1014" />
<glyph unicode="&#x2206;" horiz-adv-x="1081" />
<glyph unicode="&#x220f;" horiz-adv-x="1515" />
<glyph unicode="&#x2211;" horiz-adv-x="1206" />
<glyph unicode="&#x2212;" horiz-adv-x="1014" />
<glyph unicode="&#x221a;" horiz-adv-x="1014" />
<glyph unicode="&#x221e;" horiz-adv-x="1014" />
<glyph unicode="&#x222b;" horiz-adv-x="665" />
<glyph unicode="&#x2248;" horiz-adv-x="1014" />
<glyph unicode="&#x2264;" horiz-adv-x="1014" />
<glyph unicode="&#x2265;" horiz-adv-x="1014" />
<glyph unicode="&#x25fc;" horiz-adv-x="1410" d="M0 0v1410h1410v-1410h-1410z" />
<glyph unicode="&#xf001;" horiz-adv-x="1073" />
<glyph unicode="&#xf002;" horiz-adv-x="1081" />
</font>
</defs>
</svg>
